<svg width="23" height="23" viewBox="0 0 23 23" fill="none" xmlns="http://www.w3.org/2000/svg">
<g id="Group 29">
<path id="Vector" d="M11.4988 3.94678C9.1321 3.94678 7.21387 5.86553 7.21387 8.23171C7.21387 10.5979 9.13262 12.5166 11.4988 12.5166C13.865 12.5166 15.7837 10.5984 15.7837 8.23171C15.7837 5.86501 13.8655 3.94678 11.4988 3.94678ZM11.4988 10.531C10.2313 10.531 9.20005 9.49973 9.20005 8.23223C9.20005 6.96473 10.2313 5.93348 11.4988 5.93348C12.7663 5.93348 13.7975 6.96473 13.7975 8.23223C13.7975 9.49973 12.7663 10.531 11.4988 10.531Z" fill="#545556"/>
<path id="Vector_2" d="M22.9979 11.499C22.9979 5.1484 17.8495 0 11.499 0C5.1484 0 0 5.1484 0 11.499C0 15.198 1.74836 18.4867 4.47309 20.5988C6.34063 22.0466 8.65714 22.8855 11.017 22.989C13.4193 23.0946 15.8471 22.4078 17.8506 21.0812C19.6778 19.8718 21.1424 18.1333 22.0262 16.1289C22.6681 14.6737 22.9979 13.0889 22.9979 11.4984V11.499ZM16.0614 19.8425C14.6763 20.6035 13.0869 21.0117 11.499 21.0117C9.91105 21.0117 8.35242 20.6145 6.96837 19.8618C6.85442 19.7996 6.7478 19.7265 6.63647 19.6601C6.85913 18.5337 7.08283 17.8568 7.19835 17.6613C7.5569 17.0514 8.13185 16.5329 8.86779 16.1576C9.65024 15.7546 10.5592 15.5414 11.4969 15.5414C13.3529 15.5414 15.0427 16.374 15.798 17.6561C15.9135 17.8542 16.1393 18.5363 16.362 19.6596C16.2616 19.7197 16.1644 19.7855 16.0614 19.8425ZM17.5129 16.6547C16.3891 14.7469 14.0475 13.5552 11.4969 13.5552C10.2268 13.5552 9.00368 13.8531 7.95832 14.3915C6.91296 14.9246 6.04531 15.7034 5.48605 16.6547C5.27123 17.0179 5.07156 17.6206 4.89594 18.3314C3.10576 16.6008 1.98618 14.1798 1.98618 11.499C1.98618 6.25334 6.25334 1.98618 11.499 1.98618C16.7446 1.98618 21.0117 6.25334 21.0117 11.499C21.0117 14.1803 19.8921 16.6014 18.1014 18.3325C17.9253 17.6211 17.7251 17.0185 17.5129 16.6547Z" fill="#545556"/>
</g>
</svg>
