<svg width="24" height="25" viewBox="0 0 24 25" fill="none" xmlns="http://www.w3.org/2000/svg">
<path id="Vector" d="M10.2993 0.529521C10.1006 0.528684 9.90974 0.607032 9.76856 0.747153C9.62757 0.887274 9.54796 1.07762 9.54712 1.27665V3.20423C8.70968 3.42688 7.91258 3.75935 7.16312 4.19443L5.80354 2.83223C5.66288 2.69077 5.47172 2.61125 5.27237 2.61125C5.07301 2.61125 4.88184 2.69077 4.74119 2.83223L2.32358 5.25801C2.18393 5.39847 2.10565 5.58865 2.10565 5.78687C2.10565 5.98492 2.18393 6.17509 2.32358 6.31555L3.6129 7.61047C3.53596 7.73921 3.4699 7.87431 3.38611 7.9987C3.25615 8.16259 3.20029 8.37319 3.23241 8.57992C3.26435 8.78667 3.38109 8.97066 3.55453 9.08735C3.7278 9.2042 3.94205 9.24321 4.14543 9.19499C4.34882 9.14678 4.52292 9.01586 4.62562 8.83372C4.84354 8.51062 5.03889 8.17848 5.21686 7.83177C5.29012 7.69064 5.31671 7.52993 5.29263 7.37273C5.26871 7.21553 5.19562 7.07005 5.08356 6.95722L3.91147 5.78384L5.27238 4.42163L6.44464 5.59484C6.56724 5.71922 6.72947 5.79673 6.90308 5.81415C7.07668 5.83139 7.25096 5.7877 7.3958 5.6901C8.31583 5.06867 9.35447 4.63895 10.4443 4.42749C10.6144 4.39351 10.7676 4.30143 10.8774 4.16717C10.9875 4.03274 11.0474 3.86432 11.0472 3.69056V2.02951H12.9716V3.68469C12.9716 3.85929 13.0323 4.02838 13.1435 4.1628C13.2545 4.29739 13.4091 4.3888 13.5803 4.42161C14.671 4.63322 15.7064 5.06194 16.6273 5.68422C16.7715 5.78249 16.9453 5.82736 17.1188 5.81095C17.2924 5.79471 17.455 5.7182 17.5784 5.59482L18.7522 4.42144L20.1059 5.78365L18.9336 6.9629C18.8121 7.08628 18.7368 7.248 18.7207 7.42044C18.7048 7.59303 18.749 7.7658 18.8457 7.90926C19.4665 8.83017 19.8943 9.8698 20.1057 10.9605C20.1397 11.1307 20.2315 11.2842 20.3658 11.3942C20.5001 11.5044 20.6684 11.5643 20.8418 11.5641H22.5014V13.4962H20.8477C20.6742 13.4959 20.506 13.556 20.3717 13.666C20.2374 13.7761 20.1456 13.9293 20.1116 14.0997C19.9002 15.1914 19.4674 16.2278 18.8457 17.1494C18.7482 17.2942 18.7042 17.4687 18.7213 17.6424C18.7383 17.8162 18.8154 17.9786 18.9394 18.1016L20.1058 19.275L18.7521 20.6372L17.5726 19.458C17.4493 19.3364 17.2879 19.2611 17.1155 19.2452C16.9432 19.2291 16.7706 19.2733 16.6271 19.3701C15.7071 19.9917 14.67 20.4199 13.5803 20.6314C13.4091 20.6642 13.2545 20.7556 13.1435 20.8902C13.0323 21.0246 12.9716 21.1937 12.9716 21.3681V23.0294H11.0472V21.374C11.0474 21.2004 10.9875 21.032 10.8774 20.8976C10.7676 20.7633 10.6144 20.6712 10.4443 20.6372C9.35344 20.4256 8.31082 19.9984 7.38994 19.376C7.24643 19.2792 7.074 19.235 6.90158 19.2511C6.72931 19.267 6.56774 19.3423 6.44464 19.4639L5.27238 20.6372L3.91147 19.275L5.08356 18.0958C5.20633 17.9734 5.28276 17.8122 5.30015 17.6396C5.31755 17.4671 5.27456 17.2939 5.17873 17.1494C4.99509 16.877 4.82533 16.5952 4.6753 16.3028C4.59134 16.1153 4.43412 15.9706 4.24046 15.9023C4.04695 15.8342 3.83371 15.8484 3.65088 15.9418C3.46806 16.0352 3.3316 16.1996 3.27323 16.3965C3.21486 16.5935 3.23978 16.8058 3.34214 16.9839C3.42459 17.1445 3.52762 17.2926 3.61877 17.4483L2.32358 18.7446C2.18393 18.8852 2.10566 19.0752 2.10566 19.2734C2.10566 19.4717 2.18393 19.6617 2.32358 19.8023L4.74119 22.2265C4.88185 22.368 5.07302 22.4475 5.27237 22.4475C5.47172 22.4475 5.6629 22.368 5.80355 22.2265L7.16313 20.8642C7.91275 21.2998 8.70934 21.6331 9.54713 21.8559V23.7763C9.54629 23.9764 9.6254 24.1682 9.76656 24.3096C9.90789 24.4509 10.0996 24.5301 10.2992 24.5293H13.7237C13.9224 24.5285 14.1127 24.4488 14.2527 24.3075C14.3926 24.1663 14.4708 23.9753 14.4701 23.7763V21.8559C15.3103 21.6331 16.1081 21.3013 16.8599 20.8641L18.2208 22.2265C18.3613 22.3663 18.5511 22.4446 18.7492 22.4446C18.947 22.4446 19.137 22.3663 19.2775 22.2265L21.6994 19.8023C21.8389 19.6616 21.9174 19.4716 21.9174 19.2734C21.9174 19.0752 21.8389 18.8852 21.6994 18.7446L20.3384 17.3824C20.7735 16.632 21.1065 15.8347 21.3292 14.9961H23.2477C23.4476 14.9969 23.6392 14.9177 23.7806 14.7764C23.9217 14.635 24.0007 14.4431 24 14.2431V10.8154C24.0007 10.6155 23.9217 10.4236 23.7806 10.2822C23.6392 10.1409 23.4476 10.0617 23.2477 10.0626H21.3233C21.1011 9.22535 20.7667 8.43147 20.3325 7.68216L21.6995 6.31541C21.839 6.17495 21.9174 5.98478 21.9174 5.78673C21.9174 5.58851 21.839 5.39833 21.6995 5.25787L19.2776 2.83208C19.1371 2.6923 18.9471 2.61395 18.7492 2.61395C18.5512 2.61395 18.3614 2.6923 18.2209 2.83208L16.8599 4.18842C16.1087 3.75231 15.3097 3.42085 14.4701 3.19834V1.27646C14.4693 1.07842 14.3903 0.888909 14.2507 0.748939C14.1109 0.608985 13.9214 0.530133 13.7237 0.529297L10.2993 0.529521ZM10.2613 9.56462C10.0606 9.57014 9.87044 9.65602 9.73363 9.80317C9.59666 9.95016 9.52457 10.146 9.53327 10.3469C9.54197 10.5477 9.63078 10.7367 9.7798 10.8713L10.7441 11.7794H0.769284C0.745367 11.7783 0.72145 11.7783 0.6977 11.7794C0.434283 11.798 0.199963 11.9537 0.0807206 12.1896C-0.0383593 12.4255 -0.0249838 12.7067 0.116177 12.93C0.257338 13.1535 0.505367 13.2861 0.769294 13.2794H10.7484L9.77955 14.1876C9.62919 14.3229 9.53971 14.513 9.53118 14.7153C9.52282 14.9173 9.59607 15.1144 9.73439 15.2618C9.87288 15.4092 10.0647 15.4945 10.2669 15.4986C10.469 15.5027 10.6642 15.4251 10.8083 15.2833L13.1221 13.1036C13.1331 13.0942 13.1438 13.0844 13.1544 13.0743L13.1572 13.0715C13.1719 13.0569 13.1861 13.0417 13.1997 13.0259L13.2055 13.0201C13.2126 13.012 13.2194 13.0037 13.2259 12.9953C13.228 12.9923 13.23 12.9894 13.2318 12.9864C13.2425 12.9732 13.2529 12.9595 13.2626 12.9454C13.2651 12.9421 13.2674 12.9385 13.2699 12.9352C13.2776 12.9231 13.2848 12.9109 13.2918 12.8985C13.2938 12.8952 13.2959 12.8917 13.2977 12.8883C13.3049 12.8748 13.3117 12.8612 13.3183 12.8473C13.3208 12.842 13.3231 12.8366 13.3255 12.8312C13.3296 12.8215 13.3335 12.8117 13.3372 12.8019C13.3425 12.7884 13.3474 12.7747 13.3519 12.7609L13.3534 12.7551C13.3602 12.7333 13.3661 12.7114 13.371 12.6891C13.3751 12.6692 13.3785 12.6491 13.3812 12.629C13.3828 12.6193 13.3843 12.6096 13.3855 12.5997C13.3865 12.5851 13.3868 12.5704 13.387 12.5559C13.3875 12.5505 13.388 12.545 13.3885 12.5396V12.5294C13.3882 12.5113 13.3872 12.4932 13.3855 12.4752V12.4649C13.385 12.4624 13.3845 12.4601 13.384 12.4576C13.3825 12.4375 13.38 12.4176 13.3768 12.3977C13.3763 12.3951 13.3758 12.3926 13.3753 12.3903L13.3738 12.3859C13.3694 12.3632 13.3641 12.3407 13.3577 12.3185C13.351 12.2952 13.3432 12.2723 13.3343 12.2497L13.3328 12.2468L13.3313 12.2453C13.3246 12.2284 13.3174 12.2118 13.3094 12.1954C13.303 12.1825 13.2962 12.1698 13.289 12.1574L13.286 12.1516L13.2831 12.1457C13.2729 12.1291 13.2622 12.1131 13.2509 12.0973C13.249 12.0943 13.247 12.0915 13.245 12.0884C13.2366 12.0771 13.2278 12.0658 13.2188 12.0548L13.2129 12.0489C13.2012 12.0349 13.189 12.0211 13.1763 12.0079C13.1739 12.0051 13.1714 12.0021 13.1689 11.9992C13.1642 11.9942 13.1592 11.9893 13.1544 11.9845L13.1457 11.9758L13.1411 11.9728L10.8084 9.77549C10.6622 9.63369 10.4648 9.55759 10.2613 9.56462Z" fill="#545556" stroke="#545556" stroke-width="0.25"/>
</svg>
