<svg width="22" height="22" viewBox="0 0 22 22" fill="none" xmlns="http://www.w3.org/2000/svg">
<g id="Group 30">
<path id="Vector" fill-rule="evenodd" clip-rule="evenodd" d="M4.58346 0H17.4169C18.6697 0 19.831 0.519357 20.656 1.34436C21.481 2.16936 22.0004 3.33064 22.0004 4.58307V17.4165C22.0004 18.6694 21.481 19.8306 20.656 20.6556C19.831 21.4806 18.6701 22 17.4169 22H4.58346C3.33064 22 2.16975 21.4806 1.34475 20.6556C0.51975 19.8306 0 18.6698 0 17.4169V4.58346C0 3.33064 0.519357 2.16975 1.34436 1.34475C2.16936 0.51975 3.33064 0 4.58346 0ZM17.4169 1.83346H4.58346C3.81936 1.83346 3.14757 2.13911 2.62782 2.62782C2.13911 3.14718 1.83346 3.81936 1.83346 4.58346V17.4169C1.83346 18.181 2.13911 18.8528 2.62782 19.3726C3.14718 19.8617 3.81936 20.1669 4.58346 20.1669H17.4169C18.181 20.1669 18.8528 19.8613 19.3726 19.3726C19.8617 18.8532 20.1669 18.181 20.1669 17.4169V4.58346C20.1669 3.81975 19.8613 3.14718 19.3726 2.62782C18.8532 2.13911 18.181 1.83346 17.4169 1.83346Z" fill="#545556"/>
<path id="Vector_2" d="M8.46411 17.2076C7.41714 17.2076 6.56543 16.3559 6.56543 15.3089V6.6924C6.56543 6.58043 6.58429 6.47279 6.61886 6.37222C6.66207 6.08033 6.76657 5.82222 6.93118 5.60183C7.21129 5.18893 7.63164 4.91275 8.11997 4.82161C8.59886 4.73243 9.09425 4.83222 9.51461 5.10211C9.52011 5.10565 9.52561 5.10918 9.53111 5.11272L15.9476 9.42118C16.1405 9.54965 16.3201 9.728 16.4525 9.92247C16.7495 10.3452 16.8599 10.8555 16.7624 11.3611C16.6658 11.8648 16.3625 12.313 15.9308 12.5904C15.9292 12.5915 15.9276 12.5923 15.926 12.5935L9.6195 16.8383C9.29618 17.0831 8.90764 17.2072 8.46372 17.2072L8.46411 17.2076ZM8.52972 6.93636V15.2048L14.7761 11.0005L8.55211 6.82125C8.547 6.86054 8.53954 6.89865 8.53011 6.93636H8.52972ZM14.8504 11.0508C14.8504 11.0508 14.8535 11.0527 14.8555 11.0543L14.8504 11.0508Z" fill="#545556"/>
</g>
</svg>
