<svg width="20" height="24" viewBox="0 0 20 24" fill="none" xmlns="http://www.w3.org/2000/svg">
<path id="Vector" d="M10.4949 0.529297C11.8913 0.529297 13.0328 1.64335 13.0464 3.00205C13.3712 2.71295 13.7178 2.55845 14.1433 2.55845C15.5482 2.55845 16.7 3.68244 16.7 5.05223V10.7558C17.3626 10.5475 18.077 10.535 18.724 10.8989C19.9412 11.5834 20.3625 13.122 19.6597 14.3079L16.7978 19.1411C16.7665 19.1941 16.7328 19.2273 16.7 19.2738V20.7646C16.7 22.2832 15.4233 23.5293 13.8655 23.5293H3.51451C1.95666 23.5293 0.68 22.283 0.68 20.7646V7.08138C0.68 5.71158 1.83144 4.58825 3.23668 4.58825C3.63891 4.58825 4.05322 4.78237 4.34052 4.985C4.3435 4.92981 4.33886 4.87607 4.34085 4.79601C4.47753 3.55025 5.5384 2.56935 6.8501 2.55847C7.27389 2.55494 7.65653 2.69596 7.94629 3.00207C7.95973 1.64353 9.09841 0.529481 10.495 0.529481L10.4949 0.529297ZM10.4949 1.96744C9.88031 1.96744 9.41225 2.42529 9.41225 3.02308V9.61784C9.41225 10.0148 9.08234 10.3366 8.67515 10.3366C8.26778 10.3367 7.93737 10.0149 7.93737 9.61768V5.05223C7.93737 4.45477 7.46448 3.99659 6.8498 3.99659C6.23524 3.99659 5.76651 4.45444 5.76651 5.05223V9.61809C5.76651 10.015 5.4366 10.3368 5.02941 10.3368C4.62237 10.3368 4.29231 10.015 4.29231 9.61809L4.29248 6.85397C4.18616 6.37702 3.76799 6.02582 3.23658 6.02582C2.62236 6.02582 2.15397 6.48368 2.15397 7.08146V18.0343C2.16856 18.0331 2.18316 18.0323 2.19792 18.032L15.7369 18.0322C15.7419 18.0323 15.747 18.0327 15.752 18.0328L18.3843 13.5894C18.6912 13.0715 18.5188 12.4427 17.9869 12.1435C17.4863 11.862 16.8928 12.004 16.5669 12.4538C16.1529 13.0301 15.2241 12.7432 15.2259 12.0396V5.05258C15.2259 4.45479 14.758 3.99694 14.1433 3.99694C13.5287 3.99694 13.055 4.45512 13.055 5.05258V9.61844C13.055 10.0157 12.7246 10.3375 12.3172 10.3372C11.9102 10.3372 11.5801 10.0154 11.5801 9.61844V3.02368C11.5801 2.42589 11.1094 1.96803 10.4947 1.96803L10.4949 1.96744ZM2.15405 19.4686V20.7642C2.15405 21.5109 2.74738 22.0907 3.51449 22.0907L13.8654 22.0909C14.6324 22.0909 15.2259 21.5106 15.2259 20.7644V19.4702H2.19771C2.18311 19.4702 2.16835 19.4697 2.15375 19.4689L2.15405 19.4686Z" fill="#545556" stroke="#545556" stroke-width="0.25"/>
</svg>
