<svg width="23" height="23" viewBox="0 0 23 23" fill="none" xmlns="http://www.w3.org/2000/svg">
<g id="Group 28">
<g id="Layer_1" clip-path="url(#clip0_82_243)">
<path id="Vector" d="M11.5 2.07C14.0008 2.07 16.3994 3.06352 18.1679 4.83205C19.9365 6.60059 20.93 8.99916 20.93 11.5C20.93 14.0008 19.9365 16.3994 18.1679 18.1679C16.3994 19.9365 14.0008 20.93 11.5 20.93C8.99916 20.93 6.60059 19.9365 4.83205 18.1679C3.06352 16.3994 2.07 14.0008 2.07 11.5C2.07 8.99916 3.06352 6.60059 4.83205 4.83205C6.60059 3.06352 8.99916 2.07 11.5 2.07ZM11.5 0C8.45004 0 5.52493 1.21161 3.36827 3.36827C1.21161 5.52493 0 8.45004 0 11.5C0 14.55 1.21161 17.4751 3.36827 19.6317C5.52493 21.7884 8.45004 23 11.5 23C14.55 23 17.4751 21.7884 19.6317 19.6317C21.7884 17.4751 23 14.55 23 11.5C23 8.45004 21.7884 5.52493 19.6317 3.36827C17.4751 1.21161 14.55 0 11.5 0Z" fill="#545556"/>
<path id="Vector_2" d="M11.3158 14.49C10.8887 14.4958 10.4804 14.6666 10.1765 14.9669C9.87257 15.2671 9.69638 15.6733 9.68529 16.1C9.68241 16.68 9.98922 17.2176 10.4903 17.5104C10.9914 17.8029 11.6103 17.8061 12.1143 17.5186C12.6182 17.2311 12.9303 16.6964 12.9332 16.1165C12.9262 15.6889 12.7537 15.2811 12.4523 14.9776C12.1508 14.6745 11.7438 14.4999 11.3162 14.4905L11.3158 14.49ZM14.7888 6.90004C13.1098 4.78404 9.91734 4.74502 8.07529 6.84254C7.32532 7.69354 7.41732 7.78102 8.22479 8.36752C9.03225 8.95402 9.06881 9.23002 9.89927 8.25252C10.1868 7.89315 10.5987 7.65493 11.0534 7.58388C11.508 7.51324 11.973 7.61551 12.3558 7.87056C13.0708 8.33056 13.0963 9.02056 12.3972 9.48056C11.9742 9.76601 11.5163 10.0005 11.0862 10.2765C10.717 10.4934 10.4159 10.8088 10.2163 11.1875C10.0167 11.5662 9.92679 11.9929 9.95677 12.42C9.97279 12.802 10.1363 13.0275 10.5503 13.0111H12.1327C12.2683 13.0283 12.4042 12.9848 12.504 12.892C12.6038 12.7991 12.6576 12.6669 12.6502 12.5305C12.6203 12.006 12.9492 11.776 13.3218 11.553C13.6093 11.3805 13.8988 11.2105 14.1822 11.031C15.8177 9.98902 15.6747 7.99952 14.7892 6.90004H14.7888Z" fill="#545556"/>
</g>
</g>
<defs>
<clipPath id="clip0_82_243">
<rect width="23" height="23" fill="white"/>
</clipPath>
</defs>
</svg>
