<svg width="411" height="112" viewBox="0 0 411 112" fill="none" xmlns="http://www.w3.org/2000/svg">
<g id="Group">
<path id="Vector" d="M216.058 109.284C217.023 109.127 217.816 108.884 217.721 107.937C217.697 107.691 217.953 107.358 218.215 107.18C220.189 105.842 222.509 105.172 225.176 105.168C227.928 105.163 230.678 105.168 233.431 105.181C233.894 105.184 234.426 105.099 234.79 105.463C233.921 105.884 232.988 105.667 232.095 105.698C231.179 105.729 230.262 105.693 229.346 105.708C228.44 105.721 227.533 105.762 226.729 105.788C226.484 106.052 226.566 106.194 226.896 106.25C229.979 106.756 233.09 107.025 236.252 106.942C237.284 106.917 238.323 106.981 239.356 107.004C239.41 107.547 238.933 107.464 238.667 107.467C234.344 107.5 230.02 107.503 225.697 107.541C224.133 107.554 222.545 107.379 221.022 107.776C220.849 107.823 220.746 108.068 220.658 108.236C220.634 108.28 220.774 108.409 220.873 108.443C221.108 108.52 221.363 108.616 221.605 108.61C223.043 108.577 224.498 108.61 225.908 108.435C227.486 108.236 229.012 108.14 230.579 108.435C232 108.701 233.438 108.706 234.862 108.443C235.901 108.249 236.93 108.241 237.976 108.406C241.25 108.923 244.49 108.758 247.693 108.068C250.248 107.518 252.861 107.456 255.488 107.541C255.876 107.554 256.275 107.609 256.636 107.709C256.844 107.766 257.099 107.939 257.134 108.086C257.164 108.215 256.929 108.502 256.789 108.512C253.144 108.773 249.498 109.026 245.849 109.233C244.415 109.315 242.967 109.3 241.526 109.3C239.686 109.3 237.87 109.388 236.054 109.656C234.903 109.827 233.71 109.824 232.542 109.927C232.327 109.945 232.129 110.095 231.925 110.183C231.993 110.266 232.034 110.39 232.129 110.421C233.608 110.893 235.175 111.151 236.739 110.911C239.856 110.428 242.998 110.537 246.139 110.521C248.105 110.513 250.071 110.464 251.999 110.121C252.507 110.031 253.031 109.979 253.553 109.951C257.338 109.731 261.123 109.519 264.908 109.305C265.43 109.277 265.971 109.305 266.472 109.212C269.436 108.654 272.462 108.807 275.467 108.711C277.034 108.662 278.608 108.61 280.162 108.45C281.473 108.316 282.758 108.231 284.066 108.425C285.255 108.6 286.396 108.414 287.558 108.213C290.873 107.637 294.195 107.077 297.534 106.576C298.682 106.403 299.878 106.392 301.054 106.359C303.278 106.292 305.51 106.294 307.687 105.863C308.065 105.788 308.464 105.76 308.856 105.749C313.608 105.651 318.177 104.732 322.787 103.986C323.939 103.8 325.09 103.609 326.238 103.405C329.162 102.886 332.218 102.785 334.984 101.786C338.289 101.497 341.246 100.392 344.306 99.5214C346.268 98.9636 348.237 98.4033 350.254 97.9824C353.048 97.3988 355.675 96.5235 358.305 95.6301C359.855 95.1033 361.426 94.5998 363.027 94.1634C365.13 93.5876 367.15 92.9008 369.123 92.1081C373.637 90.298 378.216 88.5757 382.519 86.4842C385.824 84.8781 389.091 83.2101 392.236 81.4284C394.641 80.065 396.958 78.5803 399.087 76.9768C405.019 72.5045 408.791 67.206 409.772 60.7972C410.296 57.3759 409.932 54.0733 408.712 50.794C408.252 49.552 407.724 48.3229 407.189 47.099C406.303 45.0746 404.763 43.3626 402.627 41.9864C400.914 40.8812 399.673 39.4688 398.212 38.201C396.314 36.5587 394.478 34.8752 392.556 33.251C392.14 32.8998 391.514 32.6597 390.924 32.4738C390.083 32.2078 389.183 32.04 388.311 31.8308L388.342 31.805C388.372 32.0839 388.447 32.3679 388.417 32.6442C388.4 32.8069 388.263 33.0341 388.093 33.0987C387.923 33.1658 387.558 33.1322 387.422 33.0315C386.894 32.6468 386.423 32.2156 385.933 31.8024L385.991 31.8412C382.846 30.7154 380.291 29.0318 378.066 27.0332L378.134 27.0746C377.851 26.8602 377.565 26.6433 377.282 26.429L377.33 26.4652C374.788 25.4633 372.407 24.2781 370.223 22.8683L370.267 22.9018C369.985 22.6875 369.702 22.4732 369.419 22.2589L369.463 22.3131C369.463 22.0936 369.463 21.8767 369.463 21.6573L369.426 21.7037C369.255 21.0066 368.908 20.3636 368.135 19.9453C367.623 19.669 367.027 19.4315 366.421 19.3204C365.733 19.1939 365.239 19.6225 364.724 19.9092L364.758 19.8807C365.259 20.188 365.777 20.4824 366.247 20.8129C366.411 20.9291 366.506 21.1279 366.56 21.3009C366.608 21.461 365.985 21.6314 365.576 21.5565C365.078 21.4636 364.482 21.4481 364.114 21.2235C362.39 20.1648 360.292 19.6045 358.465 18.6852C357.586 18.6852 356.782 18.5122 356.077 18.1017C355.355 18.1499 354.84 17.9476 354.534 17.4949C354.431 17.4845 354.322 17.4871 354.227 17.4587C354.155 17.4381 354.101 17.3787 354.04 17.3373C354.193 17.3993 354.346 17.4639 354.5 17.5258C355.014 17.7273 355.532 17.9287 356.046 18.1275C356.912 18.1636 357.733 18.2953 358.435 18.7136C359.321 18.6336 360.254 18.6542 360.932 18.1172C361.062 18.0139 361.031 17.7763 361.021 17.6007C361.017 17.5258 360.891 17.4251 360.789 17.389C358.479 16.5601 356.149 15.7623 353.661 15.2794C353.171 15.1839 352.65 15.1839 352.142 15.14L352.176 15.109C352.176 15.3155 352.169 15.5247 352.166 15.7313L352.125 15.7003C352.554 15.9137 352.554 16.1263 352.125 16.3381L352.166 16.3097C351.617 16.5963 351.028 16.7564 350.35 16.6841C349.713 16.6144 349.082 16.5162 348.442 16.4878C348.237 16.4801 347.9 16.6273 347.839 16.7615C347.781 16.8881 347.941 17.1773 348.111 17.2444C348.677 17.4716 349.28 17.6524 349.883 17.815C350.367 17.9441 350.878 18.0216 351.375 18.1223L351.338 18.0939C351.338 18.3005 351.338 18.5096 351.338 18.7162C351.869 18.9124 352.401 19.1087 352.936 19.3075C353.791 19.3514 354.595 19.5089 355.3 19.8988C357.913 20.1415 360.234 21.022 362.571 21.8535C362.789 21.931 362.99 22.1014 363.096 22.2666C363.198 22.4241 363.259 22.672 363.16 22.8037C363.058 22.9354 362.704 23.0671 362.52 23.0309C360.247 22.5817 358.169 21.7941 356.23 20.8026C355.832 20.5986 355.624 20.1854 355.327 19.8704C354.983 19.8937 354.639 19.9246 354.292 19.9401C353.638 19.9711 353.195 19.7465 352.966 19.2791C352.435 19.0829 351.903 18.884 351.372 18.6878C350.122 19.1629 348.844 19.2559 347.624 18.6826C345.825 17.8357 343.866 17.296 341.86 16.8287C341.243 16.6841 341.175 16.4543 341.529 15.6615C341.665 15.3594 341.744 15.0263 341.372 14.8817C339.386 14.1071 337.301 13.539 335.056 13.3764C334.8 13.3583 334.517 13.3712 334.286 13.4409C334.074 13.5055 333.795 13.6501 333.764 13.7869C333.734 13.9315 333.921 14.2104 334.088 14.2491C334.705 14.3911 335.352 14.4738 335.993 14.5512C337.89 14.7836 337.979 14.936 336.919 16.1341C336.705 16.3768 336.568 16.6608 336.398 16.9268C336.504 16.9784 336.609 17.0301 336.711 17.0817C336.616 17.0223 336.521 16.9629 336.425 16.9036C335.005 16.8416 333.611 16.6763 332.241 16.3536C331.563 16.1935 331.151 15.9146 330.967 15.3878C330.824 14.9721 330.354 14.7707 329.836 14.6674C328.589 14.4195 327.346 14.1613 326.085 13.9573C323.816 13.5933 321.53 13.2808 319.257 12.9193C317.813 12.6895 316.44 12.7308 315.162 13.3531C315.394 13.3634 315.629 13.3686 315.86 13.3841C316.208 13.4073 316.303 13.5132 316.102 13.6526C316.051 13.6888 315.871 13.6526 315.775 13.6139C315.571 13.5313 315.383 13.4228 315.193 13.3273C314.276 13.2369 313.404 13.0691 312.661 12.6198C311.612 11.982 310.375 11.7264 309.07 11.5456C307.663 11.3494 306.287 11.0292 304.883 10.8149C303.609 10.6186 302.324 10.4147 301.033 10.3527C299.057 10.2571 297.173 9.9602 295.367 9.33016C294.911 9.17007 294.372 9.09777 293.868 9.07453C293.347 9.05129 292.774 9.15716 292.505 9.52382C292.335 9.75621 292.4 10.0893 292.359 10.3785C292.734 10.3888 293.112 10.3966 293.487 10.4121C293.609 10.4172 293.742 10.4327 293.848 10.4766C293.926 10.5076 293.964 10.5928 294.021 10.6548C293.803 10.6909 293.555 10.7916 293.374 10.7478C293.027 10.66 292.713 10.487 292.386 10.3501C291.602 10.332 290.815 10.3217 290.032 10.2933C288.965 10.2571 287.96 10.0712 287.092 9.57288C285.01 8.37994 282.547 8.08557 280.059 7.96163C278.1 7.86609 276.141 7.85576 274.206 7.55366C273.293 7.41164 272.411 7.50718 271.586 7.93065C269.886 8.80082 268.138 8.66139 266.407 7.95388L266.442 7.98487C264.476 7.96163 262.513 7.91773 260.547 7.9229C258.578 7.92806 256.636 7.78863 254.677 7.61562C252.214 7.39873 249.713 7.41422 247.233 7.33159C246.878 7.31868 246.718 7.1999 246.82 6.96751C246.851 6.89779 247.021 6.84098 247.141 6.81775C247.519 6.74803 247.9 6.69639 248.251 6.64216C248.459 6.39169 248.36 6.2755 247.992 6.21353C245.301 5.74874 242.586 5.48537 239.812 5.54217C238.77 5.56283 237.686 5.57832 236.688 5.38983C234.102 4.90439 231.492 4.95861 228.872 4.9741C228.085 4.97927 227.302 4.98443 226.515 4.99734C225.83 5.00767 225.421 5.2065 225.636 5.31494C225.929 5.46213 226.307 5.52151 226.654 5.59123C226.906 5.64029 227.176 5.62996 227.431 5.67128C227.54 5.68935 227.7 5.76165 227.717 5.82621C227.772 6.02761 227.588 6.13606 227.25 6.13606C223.585 6.15155 219.915 6.17221 216.249 6.17738C216.011 6.17738 215.769 6.0586 215.503 5.9863C215.67 5.87785 215.82 5.69452 215.983 5.68677C217.159 5.6248 218.338 5.60672 219.513 5.55508C220.47 5.51377 221.196 5.17035 221.016 4.88115C220.746 4.44735 220.205 4.46026 219.704 4.44735C217.871 4.40345 216.038 4.36988 214.205 4.34148C211.718 4.30275 209.231 4.2666 206.744 4.24594C205.827 4.2382 204.911 4.295 203.997 4.30533C200.73 4.34664 197.456 4.52739 194.202 4.12458C194.114 4.11425 193.899 4.24594 193.909 4.27176C193.977 4.42669 194.059 4.67716 194.195 4.70298C194.822 4.81917 195.47 4.92504 196.114 4.93537C198.863 4.98443 201.616 4.99734 204.365 5.02574C205.272 5.03607 206.181 5.05157 206.928 5.06189C207.34 5.29687 207.289 5.49827 206.921 5.50602C203.647 5.55766 200.376 5.57832 197.102 5.60672C196.199 5.61447 195.286 5.55508 194.39 5.70743C194.431 6.17996 194.873 6.11282 195.16 6.1154C198.826 6.14639 202.495 6.16188 206.164 6.17221C208.393 6.17737 210.611 6.18254 212.811 6.5492C213.694 6.69638 214.634 6.67831 215.547 6.69638C216.856 6.7222 218.167 6.70929 219.476 6.7222C223.009 6.75836 226.535 6.78159 230.061 7.09145C232.654 7.31868 235.288 7.31868 237.904 7.3729C240 7.4168 242.098 7.39614 244.163 7.73698C244.418 7.7783 244.681 7.82478 244.94 7.82478C249.791 7.83252 254.578 8.50388 259.42 8.61749C260.466 8.64331 261.515 8.68204 262.554 8.775C266.448 9.13134 270.326 9.59354 274.24 9.85175C277.235 10.048 280.192 10.5489 283.184 10.7658C288.022 11.117 292.744 11.9329 297.507 12.6095C299.548 12.8987 301.622 13.2498 303.742 13.0407C303.997 13.0149 304.273 13.02 304.522 13.0665C307.694 13.6733 311.016 13.6914 314.133 14.5228C315.24 14.8198 316.406 14.9979 317.557 15.1813C322.422 15.9637 327.23 16.9294 332.068 17.8099C338.456 18.9718 344.585 20.7174 350.81 22.2486C353.167 22.8295 355.426 23.6532 357.716 24.3917C359.402 24.934 361.072 25.5072 362.741 26.083C363.576 26.3696 364.434 26.633 365.204 27.0023C369.627 29.1248 374.196 31.0743 378.063 33.8139C380.356 35.4381 382.853 36.8918 385.234 38.4437C385.824 38.8284 386.318 39.3009 386.856 39.7322C387.483 40.2383 388.083 40.765 388.747 41.2427C393.186 44.4445 396.348 48.3022 398.723 52.5421C399.544 54.0088 400.011 55.5735 400.082 57.1744C400.154 58.7599 400.161 60.3505 400.079 61.9359C400.038 62.7209 399.799 63.5084 399.541 64.2753C397.946 68.9644 394.498 72.755 389.548 75.7529C387.299 77.1136 384.88 78.3092 382.529 79.5692C381.78 79.9695 380.945 80.2819 380.236 80.7131C377.04 82.6652 373.398 84.0105 369.688 85.2732C366.472 86.368 363.205 87.3957 360.295 88.945C359.978 89.1128 359.624 89.2858 359.252 89.3478C356.036 89.8849 353.181 91.1837 350.026 91.855C347.631 92.3637 345.307 93.0402 343.066 93.882C341.294 94.5456 339.403 94.9381 337.407 95.0336C336.497 95.0775 335.58 95.1911 334.701 95.3693C329.512 96.4306 324.252 97.2362 318.985 98.0289C313.976 98.7829 308.954 99.4775 303.861 99.8364C302.692 99.919 301.541 100.162 300.372 100.268C297.514 100.526 294.679 100.885 291.793 101.016C288.403 101.174 285.044 101.654 281.661 101.897C278.015 102.158 274.411 102.744 270.724 102.723C269.941 102.718 269.136 102.741 268.38 102.876C265.927 103.312 263.437 103.271 260.949 103.296C257.283 103.333 253.614 103.348 249.948 103.4C248.773 103.415 247.587 103.457 246.425 103.588C243.955 103.872 241.471 103.934 238.981 103.937C235.707 103.942 232.433 103.952 229.155 103.963C228.368 103.965 227.578 103.947 226.797 103.999C224.975 104.12 223.155 104.376 221.332 104.391C219.506 104.407 217.68 104.195 215.854 104.084C215.724 104.076 215.585 104.061 215.462 104.084C212.726 104.546 210.011 104.229 207.272 104.037C205.06 103.885 202.822 103.955 200.594 103.937C197.32 103.911 194.046 103.893 190.768 103.88C188.669 103.872 186.581 103.836 184.506 103.534C183.739 103.423 182.942 103.397 182.158 103.395C177.051 103.371 171.941 103.358 166.83 103.358C166.316 103.358 165.801 103.449 165.29 103.518C165.215 103.529 165.113 103.648 165.113 103.715C165.113 103.797 165.188 103.921 165.277 103.952C165.628 104.081 165.982 104.231 166.36 104.283C167.13 104.383 167.927 104.523 168.694 104.476C171.392 104.314 173.91 104.887 176.322 105.631C177.958 106.134 179.569 106.341 181.283 106.333C185.473 106.312 189.664 106.299 193.858 106.289C195.824 106.284 197.786 106.302 199.752 106.292C200.393 106.289 201.057 106.387 201.681 106.088C201.534 105.979 201.398 105.788 201.255 105.786C199.555 105.737 197.851 105.729 196.155 105.672C195.647 105.654 195.143 105.525 194.645 105.422C194.557 105.403 194.431 105.251 194.454 105.197C194.529 105.037 194.628 104.807 194.792 104.763C195.149 104.668 195.572 104.595 195.936 104.644C200.485 105.274 205.078 105.029 209.653 105.081C210.44 105.088 211.224 105.081 212.011 105.101C212.849 105.122 213.592 105.256 213.718 106.039C213.731 106.132 213.806 106.227 213.874 106.31C214.294 106.808 215.22 106.942 215.445 107.591C215.643 108.166 215.885 108.732 216.106 109.302L216.045 109.279L216.058 109.284ZM349.791 95.5939C349.897 95.563 350.002 95.5294 350.108 95.4984C349.995 95.5242 349.883 95.5475 349.771 95.5733C349.082 95.9709 348.278 96.1207 347.433 96.1749C346.902 96.3712 346.367 96.5674 345.836 96.7636C344.193 97.5977 342.35 98.0211 340.429 98.2819C340.347 98.2923 340.183 98.1864 340.156 98.1141C340.132 98.0444 340.207 97.9075 340.292 97.8714C342.02 97.1329 343.89 96.8075 345.866 96.792C346.398 96.5958 346.929 96.397 347.461 96.2007C348.152 95.8108 348.956 95.6662 349.791 95.5939ZM390.672 35.4071C391.565 35.562 392.406 35.8022 392.979 36.3806C393.108 36.5122 393.101 36.724 393.156 36.8996C392.934 36.8996 392.614 36.977 392.505 36.8918C391.875 36.4115 391.295 35.8925 390.699 35.3864L390.672 35.4071ZM271.937 103.924C270.138 104.709 268.172 104.497 266.237 104.448C266.094 104.445 265.961 104.241 265.825 104.13C265.93 104.079 266.036 103.983 266.142 103.983C268.084 103.968 270.026 103.963 271.968 103.955C274.584 103.271 275.467 103.224 278.795 103.609C278.724 103.671 278.652 103.787 278.577 103.787C276.363 103.839 274.152 103.883 271.937 103.924ZM394.634 42.5234C392.321 41.7178 390.56 40.4268 389.095 38.8826C388.563 38.3223 388.069 37.7413 387.561 37.1707L387.524 37.1991C388.693 37.3876 389.589 37.9118 390.338 38.5805C391.401 39.5308 392.474 40.4655 393.691 41.315C394.127 41.6171 394.3 42.1361 394.593 42.5544C395.145 42.8101 395.725 43.0476 395.973 43.5408C396.004 43.6028 395.943 43.737 395.868 43.7758C395.789 43.8171 395.616 43.8197 395.53 43.7784C394.921 43.4917 394.777 43.0089 394.638 42.526L394.634 42.5234ZM283.603 104.606C283.616 104.758 283.63 104.913 283.647 105.065C282.403 105.344 281.156 105.61 279.927 105.917C279.756 105.959 279.671 106.196 279.545 106.341C279.657 106.385 279.773 106.467 279.882 106.465C281.446 106.426 283.01 106.367 284.57 106.343C284.788 106.341 285.01 106.509 285.218 106.591C285.132 106.661 285.051 106.785 284.952 106.793C281.719 107.082 278.53 107.673 275.235 107.557C274.465 107.529 273.685 107.699 272.905 107.753C271.218 107.872 269.532 108.001 267.838 108.073C266.016 108.151 264.183 108.138 262.36 108.231C261.345 108.283 260.575 108.099 260.057 107.41C259.535 106.71 258.708 106.537 257.713 106.658C254.595 107.041 251.461 106.909 248.33 106.834C248.149 106.829 247.979 106.676 247.791 106.586C247.921 106.524 248.023 106.431 248.132 106.429C250.871 106.359 253.6 106.24 256.309 105.86C257.324 105.718 258.394 105.809 259.437 105.77C260.871 105.718 262.333 105.76 263.73 105.556C266.189 105.197 268.659 105.168 271.14 105.161C273.099 105.156 275.054 105.137 276.983 104.802C277.739 104.67 278.533 104.611 279.313 104.595C280.741 104.567 282.168 104.595 283.596 104.603L283.603 104.606ZM301.173 104.345C301.541 104.404 301.909 104.52 302.273 104.515C303.449 104.492 304.621 104.422 305.796 104.386C305.871 104.386 306.014 104.531 306.014 104.606C306.014 104.686 305.895 104.799 305.793 104.835C305.558 104.918 305.305 105.006 305.053 105.016C302.57 105.112 300.083 105.166 297.657 105.662C297.537 105.685 297.371 105.687 297.272 105.644C297.067 105.551 296.75 105.432 296.727 105.298C296.645 104.843 296.382 104.562 295.766 104.549C294.328 104.518 292.887 104.513 291.449 104.469C291.296 104.464 291.153 104.285 290.931 104.138C294.423 103.42 297.974 103.322 301.421 102.793C301.929 102.715 302.467 102.739 302.989 102.749C305.486 102.801 307.96 102.677 310.409 102.269C310.784 102.207 311.193 102.238 311.581 102.258C311.905 102.276 312.051 102.426 311.97 102.615C311.936 102.697 311.823 102.795 311.721 102.819C310.971 102.979 310.212 103.247 309.455 103.242C306.682 103.229 304.004 103.673 301.176 104.345L301.173 104.345ZM334.034 97.5899C333.928 97.719 333.884 97.843 333.802 97.8559C332.681 98.0573 331.56 98.2535 330.432 98.4317C330.187 98.4704 329.921 98.4575 329.669 98.4317C329.56 98.4214 329.397 98.3387 329.38 98.269C329.359 98.2019 329.468 98.0676 329.564 98.0341C330.627 97.6726 331.751 97.4866 332.913 97.4608C333.274 97.4531 333.638 97.5409 334.034 97.5873L334.034 97.5899ZM291.742 105.685C292.182 105.708 292.318 105.695 292.43 105.726C292.648 105.788 292.853 105.873 293.061 105.951C292.873 106.052 292.699 106.219 292.495 106.245C291.63 106.346 290.754 106.408 289.882 106.47C289.786 106.478 289.582 106.364 289.592 106.341C289.643 106.188 289.715 105.941 289.831 105.92C290.56 105.801 291.306 105.734 291.739 105.685L291.742 105.685ZM258.111 104.975C257.992 104.957 257.829 104.97 257.757 104.915C257.607 104.797 257.484 104.652 257.403 104.502C257.379 104.458 257.512 104.311 257.6 104.296C257.951 104.226 258.316 104.146 258.67 104.159C258.857 104.167 259.14 104.342 259.178 104.474C259.212 104.59 259.001 104.802 258.827 104.879C258.629 104.967 258.353 104.949 258.111 104.975ZM233.496 6.24451C235.202 6.24451 235.972 6.22644 236.736 6.25742C236.916 6.26517 237.083 6.43559 237.257 6.53113C237.155 6.58277 237.056 6.67315 236.947 6.68089C236.061 6.75577 235.168 6.85648 233.492 6.24193L233.496 6.24451ZM300.205 102.114C300.083 102.103 299.96 102.096 299.841 102.085C299.52 102.06 299.37 101.949 299.469 101.773C299.507 101.708 299.66 101.672 299.772 101.646C299.888 101.621 300.021 101.595 300.134 101.615C300.471 101.675 300.805 101.755 301.139 101.827C300.941 102.134 300.563 102.103 300.205 102.111L300.205 102.114ZM283.051 9.55739C282.731 9.72523 282.029 9.68133 282.015 9.50058C282.012 9.44119 282.168 9.32758 282.264 9.32241C282.512 9.30176 282.768 9.32241 283.017 9.34565C283.044 9.34565 283.092 9.53931 283.054 9.55739L283.051 9.55739ZM186.826 105.313C186.516 105.323 186.335 105.207 186.356 104.97C186.363 104.908 186.533 104.817 186.639 104.807C186.952 104.773 187.133 104.902 187.102 105.14C187.095 105.205 186.921 105.256 186.826 105.313ZM294.975 102.333C294.975 102.406 295.009 102.522 294.969 102.542C294.88 102.584 294.74 102.599 294.638 102.581C294.543 102.563 294.464 102.486 294.379 102.434C294.58 102.4 294.781 102.367 294.975 102.336L294.975 102.333ZM284.768 103.141C284.666 103.154 284.55 103.193 284.444 103.178C284.345 103.165 284.264 103.095 284.172 103.049C284.257 102.999 284.339 102.927 284.434 102.909C284.536 102.891 284.669 102.909 284.761 102.945C284.799 102.961 284.768 103.072 284.768 103.141ZM252.96 104.993C252.871 104.939 252.779 104.884 252.691 104.828C252.783 104.773 252.868 104.686 252.97 104.673C253.328 104.629 253.461 104.737 253.307 104.939C253.267 104.99 253.079 104.975 252.963 104.993L252.96 104.993ZM243.144 105.52C243.025 105.54 242.902 105.589 242.79 105.576C242.681 105.564 242.589 105.486 242.49 105.437C242.572 105.375 242.64 105.282 242.739 105.259C242.844 105.233 243.001 105.249 243.09 105.295C243.148 105.323 243.127 105.442 243.144 105.52ZM304.546 11.8452C304.45 11.902 304.365 11.9923 304.26 12.0052C303.892 12.0517 303.752 11.9355 303.912 11.7264C303.953 11.6747 304.154 11.6618 304.266 11.6825C304.372 11.7006 304.454 11.7883 304.546 11.8452ZM398.249 41.08C398.191 41.1472 398.147 41.2634 398.072 41.2763C397.806 41.3202 397.65 41.2143 397.67 41.0103C397.677 40.9406 397.769 40.8296 397.844 40.8167C398.11 40.7676 398.253 40.8735 398.249 41.08ZM316.6 100.141C316.498 100.123 316.348 100.133 316.303 100.084C316.143 99.9113 316.228 99.7718 316.525 99.7279C316.617 99.7124 316.777 99.7305 316.821 99.7796C316.981 99.9552 316.893 100.084 316.603 100.141L316.6 100.141ZM328.289 15.4963L327.986 15.4317L328.208 15.2975L328.289 15.4963ZM333.495 99.4646L333.737 99.3535L333.775 99.5317L333.499 99.4671L333.495 99.4646ZM319.431 101.342L319.486 101.156L319.71 101.269L319.431 101.342Z" fill="#DC8A4D"/>
<path id="Vector_2" d="M2.97256 59.8081C3.71528 60.247 4.30133 60.7738 4.44783 61.4968C4.66588 62.5709 4.84303 63.6477 5.54487 64.6263C5.65391 64.7787 5.68455 65.0653 5.56871 65.1944C4.73739 66.1188 5.47674 66.612 6.35234 67.1568C6.83615 67.4563 7.25522 67.8824 7.51074 68.3162C9.02346 70.8673 11.4527 72.9563 13.5173 75.226C14.0045 75.7579 14.8086 75.8508 15.5922 75.9335C15.7115 75.7708 15.7932 75.5797 15.9601 75.4558C16.1748 75.2983 16.4269 75.3525 16.5666 75.5616C16.6177 75.6339 16.6279 75.7553 16.5802 75.8224C16.5325 75.8922 16.386 75.9619 16.2838 75.9593C16.0385 75.9593 15.7966 75.9154 15.5513 75.8896C15.6092 76.9353 16.1952 77.8029 17.1288 78.544C17.8545 79.1172 18.6142 79.6646 19.3399 80.2379C20.4574 81.121 21.718 81.7794 23.3807 81.9266C24.4607 82.0221 25.3601 82.4456 26.1097 83.0214C27.5917 84.1627 29.3225 85.051 31.0567 85.9495C32.0209 86.4505 32.9851 87.0031 33.7449 87.6667C34.9748 88.7382 36.3444 89.5852 38.0854 90.1429C39.0326 90.445 39.8502 90.9847 40.7259 91.4159L40.7463 91.4004C39.9559 91.4082 39.1654 91.4159 38.375 91.4237L38.4056 91.3953C39.0121 92.299 39.9559 92.9807 41.0632 93.4997C42.9336 94.375 44.8177 95.253 47.0323 95.5731L46.9982 95.6041C47.281 95.271 47.5297 94.9199 47.8534 94.6126C48.2043 94.2769 48.7255 94.2046 49.2707 94.2433C49.4001 94.2537 49.533 94.2692 49.6557 94.3002C52.6266 95.0696 55.5873 95.8649 58.5719 96.606C60.6876 97.1302 62.8204 97.6104 64.9635 98.0649C67.8628 98.6794 70.7656 99.2992 73.6923 99.8285C77.0039 100.425 80.3632 100.867 83.6714 101.473C90.9352 102.806 98.3148 103.609 105.701 104.404C108.808 104.737 111.909 105.062 115.054 105.238C119.616 105.494 124.154 106.01 128.692 106.465C130 106.594 131.274 106.723 132.59 106.519C133.755 106.338 134.93 106.39 136.109 106.524C137.53 106.687 138.964 106.792 140.392 106.935C140.906 106.986 141.506 106.973 141.908 107.175C142.763 107.601 143.601 107.601 144.511 107.399C146.173 107.939 147.863 107.554 149.55 107.513C152.82 107.435 156.095 107.397 159.369 107.342C159.498 107.342 159.638 107.327 159.761 107.353C162.735 107.918 165.723 107.688 168.731 107.544C170.942 107.438 173.184 107.567 175.399 107.707C176.278 107.763 177.123 108.127 177.978 108.36C178.615 108.533 179.252 108.577 179.893 108.391C180.274 108.28 180.571 108.084 180.615 107.753C180.649 107.503 180.274 107.131 179.944 107.115C177.348 106.996 174.816 106.364 172.155 106.71C170.435 106.935 168.711 106.627 167.273 105.894C166.22 105.357 165.151 105.181 163.958 105.145C163.185 105.122 162.394 105.145 161.6 104.902C161.6 104.577 161.648 104.285 161.583 104.009C161.542 103.839 161.376 103.596 161.195 103.552C160.704 103.433 160.176 103.356 159.662 103.343C158.091 103.307 156.517 103.301 154.946 103.296C152.851 103.289 150.763 103.252 148.681 102.981C147.526 102.832 146.333 102.826 145.158 102.803C142.933 102.759 140.705 102.767 138.477 102.723C137.169 102.697 135.847 102.689 134.559 102.542C132.351 102.292 130.147 102.109 127.915 102.088C127.002 102.08 126.092 101.951 125.183 101.879C123.881 101.775 122.58 101.672 121.278 101.571C119.718 101.45 118.154 101.331 116.597 101.202C115.946 101.148 115.299 101.029 114.648 101.019C110.314 100.944 106.069 100.27 101.776 99.9344C95.1157 99.4154 88.5776 98.4006 82.0429 97.3729C78.0737 96.748 74.0977 96.1283 70.2034 95.2271C67.1985 94.5325 64.1457 93.9567 61.1033 93.3628C56.514 92.4668 52.2348 90.9511 47.8806 89.5903C47.0391 89.327 46.2384 88.9655 45.4718 88.5885C40.6475 86.2026 35.7891 83.8477 31.3702 81.0228C29.8711 80.0623 28.3106 79.1534 26.7332 78.2677C22.1473 75.6959 18.5188 72.4424 15.2821 68.9307C13.7115 67.2239 12.2567 65.4449 10.9007 63.6348C8.45106 60.3658 7.37787 56.7999 7.51074 53.0584C7.57548 51.2819 7.53801 49.4847 8.1615 47.734C9.55156 43.8247 12.008 40.3698 15.657 37.4081C18.2429 35.3062 20.8527 33.2199 23.425 31.1103C23.5135 31.038 23.35 30.7669 23.2512 30.6068C23.2205 30.5577 23.0127 30.5551 22.8901 30.5629C22.764 30.5706 22.6175 30.5939 22.5221 30.6481C20.7641 31.6809 18.9413 32.657 17.2821 33.775C15.4286 35.0196 13.4287 36.1635 11.9637 37.7179C11.7593 37.9348 11.3368 38.0433 10.9995 38.1776C10.9212 38.2086 10.7508 38.1569 10.6622 38.1027C10.5703 38.0485 10.4544 37.9297 10.4817 37.8703C10.6418 37.5036 10.7372 37.0853 11.0438 36.8013C11.7934 36.1144 12.6656 35.5076 13.4526 34.8415C13.7081 34.6271 13.9023 34.3509 14.025 34.0746C14.0965 33.9171 14.0113 33.695 13.9159 33.5272C13.7899 33.3103 13.1119 33.2018 12.8598 33.3516C12.3487 33.6511 11.7797 33.9248 11.3709 34.2966C10.1137 35.4379 8.91783 36.6205 7.70152 37.7877L7.73563 37.7541C7.6266 38.0097 7.55501 38.2783 7.39828 38.5158C7.10187 38.9651 6.72372 38.9161 6.11388 38.3635L6.15475 38.3893C5.23827 38.8283 4.62497 39.4609 4.2536 40.2123C3.84135 41.0411 3.48024 41.8855 3.13614 42.7324C2.75114 43.6723 2.4854 44.6458 2.02885 45.565C1.37811 46.8819 1.09871 48.204 1.19751 49.6164C1.25883 50.4892 1.00671 51.3774 0.853392 52.2553C0.659193 53.376 0.826139 54.4114 1.86868 55.2971C2.59779 55.9142 2.83627 56.6785 2.88397 57.4841C2.93167 58.2717 2.97256 59.0592 3.01684 59.8468L2.96914 59.8106L2.97256 59.8081ZM28.9375 83.0808C29.1999 83.2796 29.4622 83.4784 29.728 83.6773C30.699 83.8606 31.4758 84.2608 32.0754 84.865L32.1026 84.8444C31.1078 84.6895 30.3378 84.2815 29.7484 83.6618C29.4861 83.463 29.2237 83.2615 28.9614 83.0627L28.9375 83.0808ZM152.524 106.356C152.524 106.312 152.524 106.268 152.524 106.224C151.103 106.224 149.683 106.248 148.265 106.212C147.768 106.199 147.27 106.046 146.78 105.946C146.456 105.878 146.197 105.427 146.354 105.215C146.562 104.931 146.916 104.843 147.315 104.838C147.441 104.838 147.598 104.833 147.693 104.882C149.407 105.76 151.362 105.703 153.301 105.752C154.326 105.778 155.352 105.847 156.374 105.915C156.452 105.92 156.568 106.062 156.575 106.142C156.578 106.212 156.449 106.348 156.377 106.348C155.093 106.361 153.812 106.359 152.527 106.359L152.524 106.356ZM136.215 105.179C138.027 105.179 139.84 105.179 141.652 105.184C141.771 105.184 141.918 105.228 142.003 105.29C142.068 105.339 142.099 105.501 142.061 105.522C141.86 105.631 141.645 105.736 141.414 105.793C139.594 106.235 137.86 105.801 136.215 105.179ZM127.043 104.827C126.675 105.189 126.126 105.099 125.656 105.078C124.655 105.037 123.605 105.292 122.631 104.84C122.883 104.747 123.098 104.6 123.316 104.598C124.471 104.587 125.629 104.608 126.784 104.634C126.873 104.634 126.958 104.76 127.046 104.83L127.043 104.827ZM107.827 103.534C107.827 103.609 107.865 103.728 107.82 103.753C107.732 103.797 107.589 103.813 107.483 103.792C107.384 103.771 107.309 103.691 107.221 103.637C107.425 103.604 107.63 103.567 107.827 103.534Z" fill="#DC8A4D"/>
<path id="Vector_3" d="M149.059 2.0122C145.09 1.9399 141.826 1.98638 138.596 2.45375C137.833 2.56478 137.035 2.55445 136.252 2.56994C134.03 2.61642 131.806 2.64224 129.618 2.99599C129.237 3.05796 128.838 3.09928 128.45 3.09669C125.039 3.06571 121.683 3.52016 118.31 3.79903C113.639 4.18893 108.972 4.63048 104.311 5.08751C103.299 5.18822 102.236 5.25535 101.384 5.77952C101.337 5.81051 101.343 5.95769 101.398 6.00675C101.473 6.07647 101.612 6.14619 101.721 6.14619C102.764 6.15135 103.82 6.21849 104.849 6.12553C107.701 5.86732 110.539 5.52906 113.384 5.24502C115.714 5.01263 118.045 4.73635 120.385 4.61499C124.944 4.37743 129.451 3.69575 134.047 3.80936C136.269 3.86359 138.477 3.67509 140.684 3.42463C142.483 3.22064 144.333 3.26712 146.159 3.18449C147.331 3.13026 148.517 3.12252 149.662 2.95726C151.733 2.65515 153.808 2.58027 155.903 2.60351C157.995 2.62933 160.087 2.60093 162.149 2.26009C163.573 2.02511 165.007 2.1 166.445 2.16455C166.942 2.18521 167.457 2.05868 167.958 1.97605C168.026 1.96573 168.104 1.82629 168.094 1.75399C168.08 1.67911 167.981 1.57324 167.893 1.55258C167.648 1.4932 167.385 1.44155 167.133 1.44155C162.956 1.45705 158.786 1.29695 154.622 1.84436C152.585 2.11291 150.452 1.97863 149.059 2.00962L149.059 2.0122Z" fill="#DC8A4D"/>
<path id="Vector_4" d="M157.144 5.41048C157.59 4.70298 158.517 4.81659 159.123 4.50157C159.382 4.3673 159.542 4.24078 159.42 4.03162C159.379 3.96449 159.198 3.92059 159.076 3.91026C156.425 3.68304 153.89 4.26401 151.325 4.58936C150.96 4.63584 150.623 4.83725 150.296 4.99734C149.747 5.2633 149.229 5.56541 148.674 5.82362C148.459 5.92432 148.183 5.97855 147.931 5.99404C147.154 6.0431 146.378 6.06376 145.723 6.08958C145.342 5.89334 145.366 5.75648 145.683 5.63512C146.367 5.36916 147.056 5.11612 147.734 4.84241C147.761 4.83208 147.713 4.61777 147.659 4.60485C146.217 4.26918 144.824 4.43702 143.485 4.9018C143.011 5.06706 142.609 5.34851 142.129 5.49569C141.659 5.64029 141.124 5.7823 140.633 5.75648C139.424 5.68677 138.303 5.80554 137.237 6.26516C136.3 6.67056 135.24 6.7661 134.194 6.72736C130.249 6.58276 126.399 7.30834 122.481 7.42195C121.326 7.45552 120.178 7.75247 119.04 7.96162C118.879 7.99002 118.781 8.21467 118.655 8.34894C118.764 8.40058 118.873 8.4987 118.978 8.49612C120.28 8.45481 121.581 8.42124 122.879 8.34119C124.44 8.24824 125.993 8.09589 127.554 7.99777C131.717 7.73698 135.87 7.40646 140.044 7.21539C142.119 7.12243 144.183 6.83581 146.282 6.83581C149.55 6.83581 152.8 6.76352 156.05 6.3762C158.098 6.13089 160.22 6.23676 162.312 6.1877C163.225 6.16704 164.142 6.16446 165.052 6.11798C165.239 6.10766 165.413 5.92949 165.59 5.83137C165.368 5.74616 165.147 5.59123 164.919 5.58606C162.96 5.55508 160.997 5.55508 159.038 5.54475C158.411 5.54217 157.781 5.57315 157.14 5.4079L157.144 5.41048Z" fill="#DC8A4D"/>
<path id="Vector_5" d="M288.863 5.27873C289.783 5.07991 290.273 4.97662 290.754 4.87334C290.767 4.76747 290.832 4.65386 290.781 4.59963C290.719 4.52992 290.57 4.48344 290.45 4.46794C289.057 4.28978 287.66 4.11936 286.328 3.9541C285.531 4.30527 286.362 4.65644 286.209 4.96113C286.076 5.22451 285.827 5.45432 285.626 5.69704C285.265 6.12825 285.374 6.51299 285.834 6.69116C287.009 7.15078 288.246 7.36768 289.568 7.26955C289.82 7.25148 290.127 7.22824 290.3 7.11205C290.566 6.93646 290.805 6.69632 290.92 6.44844C290.978 6.32191 290.801 6.05079 290.627 5.96042C290.208 5.74868 289.728 5.60408 288.866 5.28132L288.863 5.27873Z" fill="#DC8A4D"/>
<path id="Vector_6" d="M216.117 109.31C215.483 109.38 214.802 109.346 214.311 109.746C214.24 109.806 214.209 109.922 214.226 110.005C214.243 110.092 214.314 110.209 214.41 110.242C214.642 110.325 214.894 110.41 215.146 110.42C215.929 110.454 216.713 110.462 217.5 110.464C219.987 110.469 222.468 110.477 224.921 110.895C225.53 110.999 226.212 110.895 226.852 110.826C227.033 110.805 227.292 110.578 227.299 110.438C227.305 110.296 227.067 110.046 226.897 110.023C226.26 109.937 225.602 109.904 224.955 109.896C222.992 109.875 221.03 109.875 219.064 109.868C218.001 109.863 216.982 109.715 216.062 109.284L216.12 109.31L216.117 109.31Z" fill="#DC8A4D"/>
<path id="Vector_7" d="M115.422 107.121C115.762 107.815 116.672 108.024 117.343 108.407C117.626 108.567 118.079 108.598 118.457 108.613C118.972 108.631 119.496 108.611 120.007 108.549C121.534 108.363 123.057 108.151 124.58 107.947C124.757 107.776 124.668 107.627 124.307 107.609C122.236 107.505 120.171 107.394 118.134 107.051C117.51 106.945 116.842 106.973 116.195 106.971C115.953 106.971 115.715 107.061 115.425 107.118L115.422 107.121Z" fill="#DC8A4D"/>
<path id="Vector_8" d="M327.706 11.7601C327.522 11.8711 327.338 11.9434 327.352 11.9847C327.396 12.1526 327.44 12.3901 327.597 12.4598C328.646 12.9324 329.767 13.046 330.929 12.7051C331.409 12.5657 331.88 12.403 332.357 12.2558C332.984 12.0648 332.823 11.7497 332.783 11.3289C332.687 10.4174 332.691 10.2934 331.869 10.1437C331.198 10.0223 330.786 10.1049 330.558 10.4871C330.346 10.8383 330.2 11.2127 330.033 11.5793C329.88 11.9098 329.546 12.0028 329.137 11.9589C328.636 11.9047 328.139 11.822 327.713 11.7627L327.706 11.7601Z" fill="#DC8A4D"/>
<path id="Vector_9" d="M19.5003 28.2519C18.5736 28.7967 17.6196 29.3209 16.7304 29.9019C16.3385 30.1575 16.0864 30.55 16.2193 30.9683C16.2636 31.1103 16.543 31.2239 16.7406 31.3143C16.8292 31.353 17.0199 31.3324 17.1085 31.2833C18.7814 30.3537 20.7132 29.6488 21.8443 28.2338L21.875 28.2467C21.3435 28.2467 20.812 28.2467 20.2805 28.2467L20.3316 28.2261L19.4628 28.2261L19.4969 28.2493L19.5003 28.2519Z" fill="#DC8A4D"/>
<path id="Vector_10" d="M183.483 5.02588C183.085 5.09818 182.591 5.18081 182.103 5.28667C182.008 5.30733 181.868 5.44935 181.889 5.49583C181.971 5.6585 182.073 5.89864 182.24 5.94253C183.112 6.15943 184.008 6.20075 184.87 5.88831C184.965 5.85216 185.098 5.72305 185.074 5.67399C184.993 5.51132 184.897 5.28409 184.723 5.22729C184.379 5.11625 183.977 5.10076 183.48 5.02588L183.483 5.02588Z" fill="#DC8A4D"/>
<path id="Vector_11" d="M249.999 1.77468C249.689 1.65332 249.481 1.50872 249.27 1.50098C248.258 1.46741 247.243 1.4545 246.231 1.4829C246.101 1.48548 245.958 1.76435 245.877 1.92961C245.846 1.989 245.951 2.12843 246.047 2.17233C246.255 2.27561 246.486 2.35308 246.721 2.42021C246.834 2.45378 246.977 2.46411 247.096 2.44862C247.72 2.35566 248.347 2.26787 248.956 2.13876C249.301 2.06646 249.614 1.91412 250.006 1.77468L249.999 1.77468Z" fill="#DC8A4D"/>
<path id="Vector_12" d="M176.778 0.561314C175.954 0.0707095 175.061 0.287608 174.237 0.259205C173.749 0.24113 173.249 0.349579 172.761 0.427043C172.68 0.439954 172.595 0.571642 172.577 0.656853C172.56 0.742063 172.598 0.850512 172.666 0.92023C172.99 1.25332 173.463 1.45473 173.971 1.34886C174.911 1.1552 175.858 0.946051 176.778 0.558732L176.778 0.561314Z" fill="#DC8A4D"/>
<path id="Vector_13" d="M227.479 2.6657C228.201 3.02978 228.297 3.11499 228.399 3.12274C229.785 3.21827 231.175 3.30607 232.562 3.38611C232.678 3.39386 232.818 3.36287 232.916 3.3164C233.012 3.26992 233.117 3.18471 233.128 3.10724C233.138 3.02462 233.083 2.88518 232.998 2.85161C232.78 2.76382 232.531 2.66828 232.293 2.6657C230.913 2.65021 229.53 2.66312 227.479 2.6657Z" fill="#DC8A4D"/>
<path id="Vector_14" d="M72.1661 101.564C71.6891 100.523 70.5546 100.172 69.2633 100.028C69.1066 100.009 68.8886 100.201 68.7386 100.322C68.6944 100.358 68.7591 100.526 68.8375 100.578C69.2054 100.825 69.5495 101.159 69.989 101.264C70.6909 101.435 71.4609 101.45 72.2002 101.533L72.1661 101.564Z" fill="#DC8A4D"/>
<path id="Vector_15" d="M200.162 110.63C200.162 110.524 200.213 110.402 200.155 110.346C199.688 109.886 198.663 109.889 198.264 110.351C198.21 110.415 198.21 110.557 198.271 110.617C198.727 111.069 199.787 111.061 200.165 110.63L200.162 110.63Z" fill="#DC8A4D"/>
<path id="Vector_16" d="M201.088 107.392C200.857 107.444 200.608 107.485 200.376 107.557C200.271 107.591 200.117 107.689 200.124 107.743C200.148 107.911 200.175 108.136 200.322 108.223C200.84 108.536 201.467 108.639 202.104 108.482C202.288 108.435 202.424 108.226 202.53 108.071C202.571 108.012 202.502 107.88 202.434 107.808C202.111 107.459 201.637 107.364 201.092 107.392L201.088 107.392Z" fill="#DC8A4D"/>
<path id="Vector_17" d="M227.795 0.537857C227.103 0.129881 226.292 0.313212 225.533 0.289972C225.035 0.27448 224.476 0.189269 224.071 0.537857C224.17 0.599828 224.265 0.716024 224.364 0.716024C225.407 0.728934 226.449 0.728934 227.492 0.716024C227.59 0.716024 227.689 0.599828 227.792 0.537857L227.795 0.537857Z" fill="#DC8A4D"/>
<path id="Vector_18" d="M211.555 108.685C211.882 108.546 212.09 108.461 212.294 108.373C212.137 108.241 212.011 108.032 211.82 107.991C211.36 107.89 210.87 107.844 210.389 107.836C210.277 107.836 210.134 108.076 210.056 108.221C210.032 108.265 210.161 108.404 210.253 108.425C210.716 108.531 211.187 108.611 211.555 108.683L211.555 108.685Z" fill="#DC8A4D"/>
<path id="Vector_19" d="M259.164 6.33984C258.53 6.36825 258.35 6.48186 258.367 6.69618C258.374 6.77881 258.466 6.88209 258.558 6.93373C259.219 7.29523 259.958 7.41143 260.755 7.29523C260.864 7.27974 260.997 7.20486 261.045 7.12998C261.086 7.06542 261.058 6.90017 261.004 6.88467C260.305 6.66519 259.593 6.46637 259.161 6.33984L259.164 6.33984Z" fill="#DC8A4D"/>
<path id="Vector_20" d="M188.53 4.02637C188.134 4.05219 187.865 4.4111 188.087 4.65124C188.226 4.80101 188.407 4.94561 188.611 5.04114C188.979 5.21156 189.429 5.12119 189.599 4.87589C189.77 4.63575 189.623 4.27683 189.248 4.14514C189.03 4.06768 188.772 4.0651 188.53 4.02895L188.53 4.02637Z" fill="#DC8A4D"/>
<path id="Vector_21" d="M241.124 1.14214C240.916 1.05693 240.708 0.896833 240.497 0.896833C239.502 0.896833 238.487 0.705755 237.499 1.02336C238.651 1.53462 238.708 1.5372 241.124 1.14214Z" fill="#DC8A4D"/>
<path id="Vector_22" d="M218.484 2.34796C218.235 2.23435 218.044 2.07426 217.847 2.07168C217.104 2.05877 216.358 2.09233 215.615 2.1259C215.523 2.13107 215.39 2.2421 215.373 2.3144C215.363 2.37637 215.489 2.50547 215.571 2.51322C216.542 2.60618 217.523 2.75852 218.487 2.34796L218.484 2.34796Z" fill="#DC8A4D"/>
<path id="Vector_23" d="M242.292 2.35082C242.19 2.29918 242.091 2.2088 241.982 2.19847C241.43 2.14683 240.929 2.26819 240.585 2.59354C240.462 2.70973 240.52 2.93954 240.496 3.11771C240.732 3.12546 241.008 3.19259 241.198 3.12546C241.546 2.99893 241.852 2.80011 242.152 2.6142C242.237 2.56255 242.248 2.44119 242.292 2.35082Z" fill="#DC8A4D"/>
<path id="Vector_24" d="M93.398 105.145C92.4747 104.193 92.3487 104.164 90.5464 104.57C90.451 104.59 90.3453 104.681 90.3147 104.756C90.2908 104.812 90.376 104.957 90.4237 104.96C91.4254 105.021 92.427 105.068 93.4287 105.117L93.398 105.145Z" fill="#DC8A4D"/>
<path id="Vector_25" d="M254.016 4.41374C254.343 4.38275 254.728 4.35951 255.106 4.30529C255.181 4.29496 255.286 4.15552 255.266 4.09613C255.239 4.02125 255.106 3.91539 255.01 3.9128C254.24 3.88698 253.467 3.87924 252.697 3.88182C252.591 3.88182 252.421 3.95412 252.39 4.02125C252.302 4.202 252.462 4.32853 252.789 4.35177C253.174 4.38017 253.562 4.39308 254.012 4.41374L254.016 4.41374Z" fill="#DC8A4D"/>
<path id="Vector_26" d="M152.05 109.23C150.656 108.569 149.77 108.732 148.905 108.783C148.796 108.788 148.626 108.866 148.609 108.928C148.561 109.114 148.742 109.227 149.065 109.227C149.822 109.233 150.581 109.227 152.05 109.227L152.05 109.23Z" fill="#DC8A4D"/>
<path id="Vector_27" d="M47.877 74.3247C47.7952 74.1491 47.7781 73.9116 47.6146 73.8083C47.2909 73.6043 46.8549 73.6095 46.5312 73.8083C46.3677 73.909 46.2314 74.1801 46.2927 74.3144C46.4426 74.6294 46.8582 74.7198 47.2603 74.6449C47.4851 74.6036 47.6725 74.4357 47.877 74.3247Z" fill="#DC8A4D"/>
<path id="Vector_28" d="M166.367 109.664C166.132 109.315 165.512 109.14 165.045 109.346C164.926 109.398 164.882 109.713 164.974 109.837C165.182 110.116 165.594 110.209 165.979 110.092C166.156 110.038 166.241 109.814 166.367 109.664Z" fill="#DC8A4D"/>
<path id="Vector_29" d="M193.777 107.59C193.538 107.614 193.296 107.621 193.068 107.665C192.765 107.725 192.676 107.882 192.826 108.073C192.881 108.14 193.013 108.202 193.116 108.207C193.351 108.215 193.61 108.226 193.821 108.161C194.015 108.104 194.158 107.949 194.325 107.841C194.145 107.758 193.961 107.676 193.78 107.59L193.777 107.59Z" fill="#DC8A4D"/>
<path id="Vector_30" d="M370.223 22.868C371.013 22.868 371.804 22.868 372.598 22.868L372.567 22.8964C372.11 22.5711 371.668 22.2354 371.197 21.9256C370.676 21.5821 370.066 21.5692 369.429 21.7009L369.467 21.6544C369.467 21.8739 369.467 22.0908 369.467 22.3103L369.422 22.2561C369.705 22.4704 369.988 22.6847 370.271 22.899L370.226 22.8654L370.223 22.868Z" fill="#DC8A4D"/>
<path id="Vector_31" d="M131.976 108.172C131.285 108.164 130.842 108.358 131.193 108.487C131.411 108.567 131.67 108.611 131.915 108.616C132.61 108.636 133.043 108.438 132.699 108.308C132.481 108.228 132.218 108.213 131.976 108.172Z" fill="#DC8A4D"/>
<path id="Vector_32" d="M135.622 4.72344C135.329 4.6718 135.107 4.74926 135.077 4.96358C135.046 5.18048 135.244 5.30184 135.537 5.28376C135.642 5.27601 135.778 5.21663 135.836 5.14949C136.013 4.95067 135.925 4.8009 135.618 4.72344L135.622 4.72344Z" fill="#DC8A4D"/>
<path id="Vector_33" d="M31.1455 27.0927C31.0706 27.0281 30.9956 26.9042 30.9206 26.9068C30.3755 26.9119 29.9837 27.1831 29.8815 27.5962C29.7929 27.9525 30.5834 27.7976 31.0297 27.3612C31.1012 27.2915 31.108 27.1831 31.1455 27.0953L31.1455 27.0927Z" fill="#DC8A4D"/>
<path id="Vector_34" d="M102.097 105.94C102.035 105.77 102.042 105.659 101.974 105.62C101.637 105.429 101.323 105.532 101.051 105.716C100.976 105.765 100.921 105.881 100.945 105.948C100.969 106.015 101.115 106.113 101.19 106.106C101.497 106.069 101.793 106 102.097 105.94Z" fill="#DC8A4D"/>
<path id="Vector_35" d="M207.582 106.284C207.746 106.219 208.042 106.103 208.342 105.987C208.008 105.915 207.674 105.835 207.337 105.778C207.224 105.76 207.091 105.783 206.976 105.809C206.867 105.835 206.713 105.873 206.676 105.938C206.574 106.114 206.72 106.227 207.037 106.253C207.16 106.263 207.279 106.266 207.582 106.284Z" fill="#DC8A4D"/>
<path id="Vector_36" d="M93.4292 105.114C94.2265 105.489 95.0816 105.711 96.0356 105.662C96.3763 105.644 96.55 105.535 96.4683 105.326C96.4444 105.259 96.2604 105.192 96.1446 105.189C95.2315 105.166 94.315 105.158 93.3985 105.145L93.4292 105.117L93.4292 105.114Z" fill="#DC8A4D"/>
<path id="Vector_37" d="M199.942 1.51904C199.748 1.52421 199.564 1.66106 199.377 1.74111C199.585 1.80566 199.799 1.92444 200.004 1.91927C200.198 1.91411 200.385 1.77467 200.576 1.69463C200.365 1.63266 200.154 1.51388 199.946 1.52162L199.942 1.51904Z" fill="#DC8A4D"/>
<path id="Vector_38" d="M262.261 2.32466C262.466 2.39696 262.667 2.52607 262.868 2.52607C263.069 2.52607 263.273 2.39954 263.478 2.32982C263.277 2.25752 263.076 2.12842 262.874 2.12842C262.67 2.12842 262.469 2.25236 262.261 2.32466Z" fill="#DC8A4D"/>
<path id="Vector_39" d="M302.192 6.83819C301.984 6.84335 301.783 7.00861 301.582 7.10157C301.803 7.17903 302.031 7.32363 302.25 7.31588C302.457 7.30814 302.655 7.14546 302.859 7.05251C302.638 6.97504 302.413 6.83044 302.195 6.83819L302.192 6.83819Z" fill="#DC8A4D"/>
<path id="Vector_40" d="M86.2227 105.249C86.1341 105.311 86.0456 105.375 85.957 105.437C86.0592 105.491 86.1546 105.582 86.2636 105.592C86.6452 105.628 86.7781 105.507 86.5907 105.295C86.543 105.241 86.3488 105.261 86.2227 105.249Z" fill="#DC8A4D"/>
<path id="Vector_41" d="M198.413 0.45007C198.512 0.393263 198.682 0.34162 198.693 0.274485C198.744 0.00852568 198.56 -0.0741025 198.246 0.0704967C198.161 0.109229 198.093 0.246081 198.117 0.318381C198.137 0.37777 198.308 0.406173 198.41 0.45007L198.413 0.45007Z" fill="#DC8A4D"/>
<path id="Vector_42" d="M267.477 3.0118C267.477 2.93692 267.515 2.81814 267.471 2.7949C267.382 2.75101 267.232 2.72519 267.133 2.75101C266.776 2.84655 266.782 2.97049 267.143 3.05312C267.242 3.07636 267.372 3.02471 267.477 3.00922L267.477 3.0118Z" fill="#DC8A4D"/>
<path id="Vector_43" d="M250.96 2.78683C250.687 2.66805 250.459 2.7042 250.322 2.90819C250.309 2.93142 250.479 3.05795 250.585 3.08119C250.697 3.10443 250.861 3.08635 250.949 3.03471C251.004 3.00372 250.96 2.87462 250.96 2.78683Z" fill="#DC8A4D"/>
<path id="Vector_44" d="M295.438 6.28068C295.391 6.19806 295.374 6.07411 295.292 6.03796C294.979 5.89595 294.801 5.98116 294.856 6.24195C294.87 6.30909 295.033 6.39172 295.135 6.40204C295.231 6.40979 295.336 6.32458 295.438 6.28327L295.438 6.28068Z" fill="#DC8A4D"/>
<path id="Vector_45" d="M64.4451 99.8672C64.268 99.9317 64.0908 99.9989 63.9137 100.063C63.9988 100.115 64.0704 100.187 64.1658 100.213C64.2646 100.236 64.3975 100.234 64.4894 100.2C64.5746 100.169 64.6291 100.084 64.6973 100.022C64.6121 99.9705 64.5303 99.9188 64.4451 99.8672Z" fill="#DC8A4D"/>
<path id="Vector_46" d="M107.895 107.9C107.881 107.82 107.902 107.702 107.841 107.671C107.749 107.624 107.592 107.609 107.486 107.635C107.387 107.658 107.319 107.753 107.237 107.815C107.336 107.864 107.432 107.944 107.541 107.957C107.653 107.97 107.779 107.921 107.898 107.898L107.895 107.9Z" fill="#DC8A4D"/>
<path id="Vector_47" d="M27.0331 28.603C26.9036 28.7244 26.7708 28.8457 26.6413 28.9671C26.7367 29.011 26.8934 29.1065 26.9139 29.0911C27.0638 28.9852 27.1865 28.8561 27.3193 28.7347C27.2239 28.6908 27.1285 28.6469 27.0331 28.603Z" fill="#DC8A4D"/>
<path id="Vector_48" d="M7.70466 37.7852C7.13228 37.2275 6.74727 37.1733 6.46108 37.6277C6.31118 37.8653 6.25329 38.1338 6.15448 38.3895L6.1136 38.3636C6.65532 38.1596 7.19363 37.9582 7.73535 37.7542L7.70125 37.7878L7.70466 37.7852Z" fill="#DC8A4D"/>
<path id="Vector_49" d="M180.186 109.708C180.186 109.631 180.224 109.509 180.18 109.486C180.088 109.439 179.934 109.414 179.835 109.439C179.471 109.538 179.474 109.664 179.849 109.752C179.951 109.775 180.084 109.723 180.19 109.708L180.186 109.708Z" fill="#DC8A4D"/>
<path id="Vector_50" d="M136.698 108.69C136.797 108.845 136.879 109.011 136.998 109.155C137.049 109.22 137.195 109.3 137.267 109.284C137.533 109.228 137.546 109.078 137.284 108.938C137.1 108.84 136.875 108.789 136.667 108.714L136.698 108.69Z" fill="#DC8A4D"/>
<path id="Vector_51" d="M208.611 110.186C208.519 110.126 208.437 110.036 208.331 110.015C208.219 109.995 208.011 110.01 207.974 110.062C207.814 110.279 207.957 110.397 208.328 110.351C208.434 110.338 208.519 110.242 208.614 110.183L208.611 110.186Z" fill="#DC8A4D"/>
<path id="Vector_52" d="M107.094 106.521L107.173 106.718L107.384 106.583L107.094 106.521Z" fill="#DC8A4D"/>
<path id="Vector_53" d="M21.8545 27.6479C21.4139 27.2003 20.9006 27.202 20.3146 27.653L20.2805 27.6375C20.812 27.6375 21.3435 27.6375 21.875 27.6375L21.8511 27.6505L21.8545 27.6479Z" fill="#DC8A4D"/>
<path id="Vector_54" d="M183.565 107.707L183.266 107.787L183.507 107.918L183.565 107.707Z" fill="#DC8A4D"/>
<path id="Vector_55" d="M282.883 6.40719L282.9 6.19287L282.655 6.27292L282.883 6.40719Z" fill="#DC8A4D"/>
<path id="Vector_56" d="M325.9 9.56279L325.825 9.38721L325.631 9.50599L325.9 9.56279Z" fill="#DC8A4D"/>
<path id="Vector_57" d="M305.959 8.89898L306.266 8.97903L306.228 8.77246L305.959 8.89898Z" fill="#DC8A4D"/>
<path id="Vector_58" d="M263 4.62305L262.765 4.67985L262.928 4.82445L263 4.62305Z" fill="#DC8A4D"/>
<path id="Vector_59" d="M280.832 4.61284C280.843 4.67997 280.825 4.791 280.866 4.80391C280.945 4.82973 281.129 4.82199 281.139 4.79358C281.231 4.59218 281.115 4.52763 280.832 4.61284Z" fill="#DC8A4D"/>
<path id="Vector_60" d="M204.799 110.255L204.727 110.082L204.533 110.201L204.799 110.255Z" fill="#DC8A4D"/>
<path id="Vector_61" d="M225.846 1.80603L226.115 1.73631L225.901 1.62012L225.846 1.80603Z" fill="#DC8A4D"/>
<path id="Vector_62" d="M3.02051 59.8468C2.74454 59.8468 2.46859 59.8468 2.19262 59.8468L2.2301 59.8184C2.25394 59.9914 2.26416 60.167 2.30504 60.3349C2.32548 60.4123 2.3868 60.513 2.46857 60.5466C2.68321 60.6344 2.85016 60.5466 2.90127 60.3271C2.94215 60.1567 2.94895 59.9811 2.96939 59.8081L3.0171 59.8443L3.02051 59.8468Z" fill="#DC8A4D"/>
<path id="Vector_63" d="M83.603 103.735L83.7393 103.573L83.4599 103.575L83.603 103.735Z" fill="#DC8A4D"/>
<path id="Vector_64" d="M72.1997 101.535C72.2951 101.595 72.387 101.657 72.4824 101.716C72.3768 101.664 72.2712 101.615 72.1656 101.564L72.1997 101.533L72.1997 101.535Z" fill="#DC8A4D"/>
<path id="Vector_65" d="M47.0351 95.5757C47.1851 95.6402 47.3315 95.7022 47.4814 95.7668C47.4201 95.728 47.369 95.6712 47.2975 95.6506C47.2055 95.6222 47.0999 95.6196 47.0011 95.6067L47.0351 95.5757Z" fill="#DC8A4D"/>
<path id="Vector_66" d="M38.378 91.4262C38.2861 91.3668 38.194 91.3074 38.1021 91.248C38.2043 91.2971 38.3065 91.3487 38.4121 91.3978L38.3815 91.4262L38.378 91.4262Z" fill="#DC8A4D"/>
<path id="Vector_67" d="M364.728 19.9093C364.632 19.8448 364.537 19.7828 364.441 19.7183C364.547 19.7725 364.656 19.8267 364.762 19.8809L364.728 19.9093Z" fill="#DC8A4D"/>
<path id="Vector_68" d="M352.169 15.7336C351.762 15.9247 351.762 16.1175 352.169 16.312L352.128 16.3404C352.128 16.1287 352.128 15.917 352.128 15.7026L352.169 15.7336Z" fill="#DC8A4D"/>
<path id="Vector_69" d="M352.142 15.1424C351.992 15.0778 351.845 15.0133 351.695 14.9487C351.753 14.99 351.804 15.0494 351.876 15.0701C351.968 15.0985 352.077 15.0959 352.176 15.1088L352.142 15.1398L352.142 15.1424Z" fill="#DC8A4D"/>
<path id="Vector_70" d="M266.404 7.95913C266.564 7.90748 266.721 7.85584 266.881 7.8042C266.806 7.81453 266.717 7.80678 266.656 7.83518C266.574 7.87392 266.509 7.93847 266.438 7.99011L266.404 7.95913Z" fill="#DC8A4D"/>
<path id="Vector_71" d="M20.3174 27.6527C20.0449 27.8541 19.7757 28.0529 19.5031 28.2543C19.5031 28.2543 19.4691 28.2311 19.4691 28.2285C19.7587 28.2285 20.0483 28.2285 20.3379 28.2285L20.2868 28.2492C20.2868 28.0452 20.2868 27.8412 20.2868 27.6372L20.3208 27.6527L20.3174 27.6527Z" fill="#DC8A4D"/>
<path id="Vector_72" d="M21.8502 28.2342C21.8502 28.0379 21.8536 27.8417 21.857 27.6454C21.857 27.6454 21.8809 27.6325 21.8809 27.6351C21.8809 27.8391 21.8809 28.0431 21.8809 28.2497L21.8502 28.2367L21.8502 28.2342Z" fill="#DC8A4D"/>
<path id="Vector_73" d="M273.368 106.72C273.678 106.648 274.049 106.599 274.363 106.467C274.506 106.408 274.54 106.186 274.588 106.031C274.595 106.01 274.39 105.912 274.291 105.92C273.923 105.948 273.545 105.972 273.204 106.062C273.017 106.111 272.891 106.297 272.738 106.421C272.929 106.511 273.123 106.604 273.368 106.72Z" fill="#DC8A4D"/>
<path id="Vector_74" d="M269.365 106.276C269.236 106.276 269.052 106.235 268.997 106.284C268.755 106.485 268.837 106.643 269.198 106.674C269.29 106.681 269.457 106.591 269.488 106.519C269.515 106.449 269.409 106.351 269.369 106.276L269.365 106.276Z" fill="#DC8A4D"/>
</g>
</svg>
