<svg width="102" height="42" viewBox="0 0 102 42" fill="none" xmlns="http://www.w3.org/2000/svg">
<g id="Group 31">
<g id="Group">
<path id="Vector" d="M13.4963 24.8259C13.7158 25.155 14.0815 25.667 14.0815 26.4352C14.0815 27.6056 13.2767 28.2274 12.2161 28.2274C11.5211 28.2274 10.8263 27.9713 10.2046 27.2033C9.47287 26.362 8.63178 25.9596 7.57114 25.9596C6.14466 25.9596 5.30338 26.6546 5.30338 27.6787C5.30338 28.2639 5.52292 29.0321 7.20529 29.5076L9.43634 30.1658C12.3624 30.9706 14.813 32.3604 14.813 35.6155C14.813 39.6389 11.0824 41.5774 7.27854 41.5774C3.98666 41.5774 2.01169 40.1876 0.987391 38.9439C0.804562 38.688 0 37.7735 0 36.6398C0 35.8351 0.511959 34.811 1.82867 34.811C2.81625 34.811 3.36493 35.4327 3.80384 35.9814C4.86447 37.2981 6.03488 37.6637 7.27854 37.6637C9.07068 37.6637 10.0581 36.8957 10.0581 35.8716C10.0581 35.2499 9.65589 34.4451 7.90027 33.9331L5.81553 33.3114C2.12127 32.2873 0.585205 30.3121 0.585205 27.7152C0.585205 24.0579 3.95014 22.1558 7.42465 22.1558C9.91196 22.1558 12.2893 23.1433 13.4963 24.8259Z" fill="#426A8D"/>
<path id="Vector_2" d="M33.8178 37.3346C33.8178 38.505 32.94 39.0902 32.4646 39.5291C30.9283 40.8824 29.1362 41.5774 26.7588 41.5774C22.3333 41.5774 16.9932 38.3954 16.9932 31.8849C16.9932 25.3379 22.3333 22.1558 26.7588 22.1558C29.1362 22.1558 30.9283 22.8142 32.4646 24.1675C32.94 24.6431 33.8178 25.2283 33.8178 26.3987C33.8178 27.5324 32.867 28.2274 31.8794 28.2274C31.0016 28.2274 30.3066 27.7152 30.014 27.4593C29.1727 26.6546 27.9292 26.3255 26.9417 26.3255C24.0522 26.3255 21.7481 28.3372 21.7481 31.8849C21.7481 35.3962 24.0522 37.4079 26.9417 37.4079C27.9292 37.4079 29.1727 37.0785 30.014 36.274C30.3066 36.0179 31.0016 35.5059 31.8794 35.5059C32.867 35.5059 33.8178 36.2007 33.8178 37.3346Z" fill="#426A8D"/>
<path id="Vector_3" d="M49.8829 24.3869C49.8829 25.7402 48.8588 26.6545 46.8106 26.6545C43.9211 26.6545 42.0924 28.8855 41.9096 30.3853V39.1999C41.9096 40.4801 40.8122 41.5773 39.532 41.5773C38.2155 41.5773 37.1182 40.4801 37.1182 39.1999V24.6795C37.1182 23.3628 38.2155 22.2654 39.532 22.2654C40.8122 22.2654 41.9096 23.3628 41.9096 24.6795V26.5082C42.0559 25.1915 44.3235 22.1924 47.6153 22.1924C49.1149 22.1924 49.8829 23.2165 49.8829 24.3869Z" fill="#426A8D"/>
<path id="Vector_4" d="M57.1 24.6797V39.1636C57.1 40.5168 56.0027 41.6142 54.7227 41.6142C53.406 41.6142 52.3086 40.5168 52.3086 39.1636V24.6797C52.3086 23.363 53.406 22.2656 54.7227 22.2656C56.0027 22.2656 57.1 23.363 57.1 24.6797Z" fill="#426A8D"/>
<path id="Vector_5" d="M80.4541 31.8849C80.4541 38.5416 75.6262 41.6506 71.6028 41.6506C68.4209 41.6506 66.4823 39.6754 66.1897 38.5416V39.2365C66.1897 40.5533 65.0925 41.6141 63.7758 41.6141C62.4956 41.6141 61.3252 40.5533 61.3252 39.2365V17.6571C61.3252 16.377 62.4591 15.2798 63.7758 15.2798C65.0558 15.2798 66.1531 16.377 66.1531 17.6571V24.2407C66.1897 24.387 66.1897 24.4966 66.1897 24.6431V25.2648C66.9212 23.5457 69.0061 22.1558 71.6028 22.1558C75.5895 22.1558 80.4541 25.3744 80.4541 31.8849ZM75.6627 31.8849C75.6627 28.1543 73.1391 26.2522 70.725 26.2522C68.6768 26.2522 65.9703 27.752 65.9703 31.8849C65.9703 36.0179 68.6768 37.5176 70.725 37.5176C73.1391 37.5176 75.6627 35.6522 75.6627 31.8849Z" fill="#426A8D"/>
<path id="Vector_6" d="M101.676 31.1169C101.676 33.0188 100.615 33.6771 98.6769 33.6771L87.8141 33.604C88.253 36.274 90.3743 37.7005 93.0444 37.7005C94.3611 37.7005 94.9829 37.4079 96.0802 36.9324C96.7385 36.6398 97.2506 36.3472 97.8724 36.3472C98.8965 36.3472 99.5182 37.0785 99.5182 37.9931C99.5182 38.5783 99.2621 39.2365 98.3478 40.0046C96.9946 40.9556 95.1657 41.5774 92.8616 41.5774C87.9969 41.5774 82.8398 38.5783 82.8398 31.9214C82.8398 25.3379 88.2895 22.1558 92.4592 22.1558C96.6287 22.1558 101.676 25.4476 101.676 31.1169ZM87.8141 30.3121H96.958C96.5922 27.4959 94.544 26.3255 92.4592 26.3255C90.3743 26.3255 88.1432 27.4959 87.8141 30.3121Z" fill="#426A8D"/>
</g>
<g id="Group_2">
<path id="Vector_7" d="M55.9762 13.2546C52.7573 13.2086 49.5385 13.1543 46.3199 13.0926C44.0506 13.049 41.7812 13.0027 39.5123 12.9392C38.6919 12.9163 37.8716 12.8921 37.0517 12.8568C37.0164 12.8553 36.9812 12.8529 36.9459 12.8514C36.8769 12.7259 36.8087 12.6 36.7396 12.4749C36.2133 11.5233 35.5043 10.4732 34.363 10.2289C33.5382 10.0524 32.6527 10.1989 31.8379 10.356C31.3511 10.4499 30.8827 10.6024 30.4231 10.7812C30.3831 10.0719 30.3488 9.36312 30.24 8.66028C30.0659 7.53739 29.2373 6.48 28.1185 6.17004C25.7842 5.52338 24.1065 7.64168 22.5063 8.98746C22.2288 9.22086 21.9486 9.45111 21.665 9.67707C21.6197 9.71316 21.5741 9.74888 21.5287 9.78472C21.354 9.91607 21.1793 10.0474 21.0019 10.1751C20.5379 10.509 20.0551 10.8183 19.5596 11.105C19.6248 10.9472 19.7069 10.7558 19.6953 10.7806C19.8283 10.4777 19.961 10.1748 20.0945 9.87223C20.9036 8.038 21.8185 6.02307 21.6686 3.96294C21.6011 3.0361 21.3673 2.33725 20.7507 1.63705C20.3707 1.20554 19.8736 0.842389 19.3726 0.562237C18.8222 0.254593 18.2048 0.0022524 17.5637 1.45892e-05C16.9702 -0.00206325 16.4082 0.218151 15.8699 0.441321C13.9073 1.25497 12.24 2.51247 10.7267 3.99611C9.24049 5.45321 7.92049 7.06712 6.4906 8.57748C5.79371 9.31361 5.07061 10.0282 4.28838 10.6741C4.2286 10.7234 4.16802 10.7717 4.1076 10.8203C4.09506 10.8295 4.0917 10.8316 4.07651 10.8428C3.87416 10.991 3.66773 11.1338 3.45691 11.2698C3.04126 11.538 2.60866 11.7767 2.16 11.9849C1.65444 12.2196 1.22137 12.8738 1.07903 13.3907C0.923993 13.9538 0.994001 14.7035 1.31615 15.2032C2.05979 16.3567 3.33695 16.6029 4.53436 16.0471C7.93439 14.4689 10.3008 11.3225 12.7824 8.63918C13.3744 7.99904 13.9807 7.37104 14.623 6.78109C14.9069 6.52044 15.1989 6.26862 15.4986 6.02622C15.4685 6.04732 15.4456 6.06355 15.409 6.08908C15.4484 6.06159 15.4867 6.03218 15.5253 6.00321C15.5311 5.99849 15.5365 5.99322 15.5423 5.98854C15.6129 5.93184 15.7363 5.84817 15.759 5.83626C15.9331 5.71307 16.1087 5.59183 16.2892 5.47799C16.4727 5.36219 16.6673 5.26577 16.8575 5.16127C16.8232 5.30241 16.7901 5.44386 16.7495 5.58328C16.6261 6.0064 16.4765 6.42154 16.3147 6.83136C16.2406 7.01896 15.9623 7.6492 16.2974 6.88786C16.1933 7.1243 16.0924 7.36213 15.9879 7.59841C15.2948 9.16504 14.3235 10.9252 14.4499 12.7026C14.5407 13.9807 15.1151 15.0549 16.1747 15.7902C17.0716 16.4124 18.16 16.4464 19.1936 16.2812C20.7133 16.0382 22.1467 15.1222 23.3764 14.2372C24.2103 13.6371 25.0113 12.996 25.7966 12.3357C25.8381 13.2364 25.8737 14.1373 25.898 15.0386C25.9236 15.9857 26.4685 16.8188 27.3441 17.1883C28.1659 17.5352 29.2912 17.4051 29.9136 16.7019C30.0689 16.5264 30.2291 16.3561 30.3993 16.195C30.4731 16.1253 30.55 16.0595 30.626 15.9928C30.6042 16.0022 30.5936 16.0111 30.5676 16.0205C30.5888 16.0129 30.6104 15.9983 30.6317 15.9877C30.6592 15.9635 30.6866 15.9392 30.7137 15.9145C30.7983 15.8376 30.8435 15.8334 30.8317 15.8615C30.9405 15.7794 31.0483 15.6884 31.1489 15.6267C31.3842 15.4826 31.6281 15.3614 31.8736 15.2374C31.9798 15.2003 32.0845 15.1591 32.1916 15.1244C32.3728 15.0655 32.5582 15.0207 32.7433 14.9756C32.7964 15.0727 32.8521 15.1682 32.906 15.2649C33.4162 16.1796 34.0719 17.0686 35.1268 17.3778C35.636 17.5271 36.2564 17.5243 36.7908 17.5495C37.5385 17.5849 38.2867 17.6079 39.0348 17.6299C43.484 17.7612 47.9352 17.8315 52.3857 17.9036C53.5825 17.923 54.7794 17.9419 55.9762 17.959C57.2071 17.9767 58.3848 16.8645 58.3285 15.6068C58.2707 14.3173 57.2952 13.2735 55.9762 13.2546ZM19.1565 12.4976C19.1553 12.4873 19.1574 12.4857 19.1529 12.4662C19.1528 12.4658 19.1526 12.4655 19.1525 12.4651C19.154 12.4272 19.1542 12.3903 19.1552 12.3525C19.1566 12.346 19.158 12.3395 19.1593 12.3329C19.1593 12.3966 19.1586 12.4518 19.1565 12.4976ZM19.1552 12.5245C19.1534 12.5555 19.1517 12.5844 19.1493 12.6071C19.1501 12.5785 19.1502 12.5494 19.1513 12.5203C19.1525 12.5212 19.1544 12.5242 19.1552 12.5245ZM18.8085 11.5057C18.9602 11.4368 19.0539 11.3846 18.8085 11.5057V11.5057ZM17.4117 4.89067C17.4042 4.88612 17.4002 4.88344 17.3929 4.879C17.3821 4.88432 17.373 4.88871 17.3633 4.89351C17.3614 4.89163 17.36 4.88959 17.3582 4.88771C17.3675 4.88348 17.3769 4.87904 17.3861 4.87481C17.3845 4.87385 17.3835 4.87317 17.3819 4.87217C17.3824 4.87193 17.383 4.87165 17.3836 4.87141C17.3849 4.87229 17.3863 4.87325 17.3876 4.87413C17.4055 4.8661 17.423 4.8575 17.441 4.84947C17.4525 4.84516 17.4643 4.84176 17.4759 4.83753C17.4489 4.85095 17.4165 4.86737 17.394 4.87848C17.4 4.88232 17.4056 4.88699 17.4117 4.89067ZM17.3014 4.91397C17.3185 4.9057 17.3359 4.89794 17.3534 4.88999C17.3551 4.89191 17.357 4.89371 17.3588 4.89563C17.2808 4.93363 17.2343 4.955 17.2084 4.96575C17.2402 4.94997 17.2694 4.92939 17.3014 4.91397ZM18.3012 11.6711C18.2895 11.6739 18.2781 11.6774 18.2665 11.6801C18.2583 11.6803 18.2502 11.6814 18.2419 11.6813C18.0587 11.6792 18.0656 11.6947 18.1405 11.7123C17.9354 11.7581 17.79 11.6846 18.3012 11.6711ZM19.1068 12.6038C19.1167 12.6543 19.1259 12.6852 19.1336 12.6943C19.1165 12.7445 19.0992 12.6961 19.1068 12.6038ZM25.645 9.61218C25.6455 9.62581 25.6466 9.63951 25.6472 9.65318C25.6438 9.62585 25.6335 9.59832 25.6356 9.57118C25.6397 9.58465 25.6413 9.59863 25.645 9.61218Z" fill="#DC8A4D"/>
</g>
</g>
</svg>
