<svg version="1.2" xmlns="http://www.w3.org/2000/svg" viewBox="0 0 59 21" width="59" height="21">
	<title>logo-svg</title>
	<style>
		.s0 { fill: #dc8a4d } 
	</style>
	<g id="Group 31">
		<g id="Group">
		</g>
		<g id="Group_2">
			<path id="Vector_7" fill-rule="evenodd" class="s0" d="m58.3 15.6c0.1 1.3-1.1 2.4-2.3 2.4q-1.8-0.1-3.6-0.1-6.7-0.1-13.4-0.3-1.1 0-2.2-0.1c-0.5 0-1.2 0-1.7-0.1-1-0.3-1.7-1.2-2.2-2.1q-0.1-0.2-0.2-0.3-0.2 0-0.5 0.1-0.2 0.1-0.3 0.1-0.4 0.2-0.8 0.4-0.1 0.1-0.3 0.3 0-0.1-0.1 0 0 0.1-0.1 0.1 0 0 0 0 0 0 0 0-0.1 0.1-0.2 0.2-0.3 0.2-0.5 0.5c-0.6 0.7-1.7 0.8-2.6 0.5-0.8-0.4-1.4-1.2-1.4-2.2q0-1.3-0.1-2.7-1.2 1-2.4 1.9c-1.3 0.9-2.7 1.8-4.2 2.1-1 0.1-2.1 0.1-3-0.5-1.1-0.7-1.7-1.8-1.8-3.1-0.1-1.8 0.9-3.5 1.6-5.1q0.1-0.4 0.3-0.7c-0.3 0.7-0.1 0.1 0-0.1q0.3-0.6 0.4-1.2 0.1-0.2 0.2-0.4-0.3 0.1-0.6 0.3-0.3 0.2-0.5 0.3c-0.1 0-0.2 0.1-0.3 0.2q0 0 0 0 0 0-0.1 0.1 0.1 0 0.1-0.1-0.5 0.4-0.9 0.8-0.9 0.9-1.8 1.8c-2.5 2.7-4.9 5.9-8.3 7.4-1.2 0.6-2.4 0.4-3.2-0.8-0.3-0.5-0.4-1.2-0.2-1.8 0.1-0.5 0.6-1.2 1.1-1.4q0.6-0.3 1.3-0.7 0.3-0.2 0.6-0.5 0 0 0 0 0.1-0.1 0.2-0.1 1.2-1 2.2-2.1c1.4-1.5 2.7-3.1 4.2-4.6 1.5-1.5 3.2-2.7 5.2-3.6 0.5-0.2 1.1-0.4 1.7-0.4 0.6 0 1.2 0.3 1.8 0.6 0.5 0.2 1 0.6 1.4 1 0.6 0.7 0.8 1.4 0.9 2.4 0.1 2-0.8 4-1.6 5.9q-0.2 0.4-0.4 0.9c0 0-0.1 0.1-0.1 0.3q0.7-0.4 1.4-0.9 0.3-0.2 0.5-0.4 0.1-0.1 0.2-0.1 0.4-0.4 0.8-0.7c1.6-1.4 3.3-3.5 5.6-2.8 1.1 0.3 2 1.3 2.1 2.5 0.1 0.7 0.2 1.4 0.2 2.1q0.7-0.3 1.4-0.4c0.9-0.2 1.7-0.3 2.6-0.2 1.1 0.3 1.8 1.3 2.3 2.3q0.1 0.2 0.2 0.4 0.1 0 0.2 0 1.2 0 2.4 0 3.4 0.1 6.8 0.2 4.8 0.1 9.7 0.2c1.3 0 2.3 1 2.3 2.3zm-42-8.7q0 0 0 0 0 0 0 0zm14.3 9.1q0 0 0 0 0 0 0 0zm-11.4-3.7q0 0 0 0.1 0 0 0 0.1 0 0 0 0 0 0 0 0 0-0.1 0-0.2zm0 0.2q0 0.1-0.1 0.1 0.1 0 0.1-0.1 0 0 0 0zm-1.8-7.6q0 0 0 0 0 0 0 0zm0 0q0 0 0 0 0 0 0.1-0.1 0 0-0.1 0 0 0.1 0 0.1 0 0 0 0 0 0 0 0 0 0 0 0 0 0 0 0 0 0 0 0 0 0 0 0 0 0 0 0zm-0.2 0.1q0 0 0.2-0.1 0 0 0 0-0.1 0-0.1 0 0 0-0.1 0.1zm0.9 6.7c0 0 0 0 0.1 0q0.1 0 0.1 0 0 0 0 0c-0.5 0-0.4 0.1-0.2 0zm1 1q0 0 0-0.1 0 0.2 0 0.1zm6.5-3.1q0 0 0 0.1 0-0.1 0-0.1 0 0 0 0z"/>
		</g>
	</g>
</svg>