<svg width="25" height="24" viewBox="0 0 25 24" fill="none" xmlns="http://www.w3.org/2000/svg">
<path id="Vector" d="M3.15655 23.5293V15.2513L3.01168 15.1828C1.55003 14.4919 0.502521 13.2009 0.1378 11.641C-0.227197 10.0808 0.140841 8.46639 1.14744 7.21163C2.15368 5.95701 3.66012 5.23478 5.28046 5.23006H10.9134L16.6884 0.949007C17.0537 0.678354 17.5062 0.529297 17.9627 0.529297C18.0293 0.529297 18.0967 0.532439 18.163 0.538656C18.6903 0.588284 19.1769 0.828846 19.5329 1.2159C19.8894 1.60293 20.0857 2.10437 20.0857 2.62805V6.40531H20.7817C22.2267 6.42095 23.5685 7.19513 24.2918 8.4337C25.0227 9.68498 25.0227 11.2395 24.2918 12.4908C23.5612 13.7421 22.1992 14.5195 20.7371 14.5195H20.0859V18.297C20.0859 18.8205 19.8896 19.3218 19.5333 19.7087C19.1769 20.0962 18.6904 20.3367 18.1633 20.3861C18.0969 20.3923 18.0295 20.3955 17.9629 20.3955C17.5065 20.3955 17.054 20.2464 16.6885 19.9757L10.9133 15.6947H9.7811V23.5293H3.15655ZM5.02508 21.6825L7.91278 21.6829V15.6948H5.02508V21.6825ZM12.5555 6.32125V14.6035L18.2172 18.8005V2.12425L12.5555 6.32125ZM5.27983 7.07688C4.06009 7.07695 2.92342 7.72558 2.31341 8.76966C1.70333 9.81402 1.70333 11.1114 2.31341 12.1554C2.92349 13.1995 4.06016 13.8481 5.27983 13.8481H10.6871V7.07688H5.27983ZM20.0858 12.673H20.737C21.5333 12.673 22.2754 12.2495 22.6736 11.5677C23.072 10.8859 23.072 10.0388 22.6736 9.35718C22.2755 8.67556 21.5335 8.25203 20.737 8.25203H20.0858V12.673Z" fill="#545556"/>
</svg>
