<svg width="1016" height="521" viewBox="0 0 1016 521" fill="none" xmlns="http://www.w3.org/2000/svg">
<g id="Group 84">
<g id="Group 79">
<g id="Group 74">
<g id="Clip path group">
<mask id="mask0_82_412" style="mask-type:luminance" maskUnits="userSpaceOnUse" x="549" y="101" width="391" height="360">
<g id="uuid-bdadd3c3-e0f6-450c-b087-0da01edacb16">
<path id="Vector" d="M939.193 101.743H549.365V460.204H939.193V101.743Z" fill="white"/>
</g>
</mask>
<g mask="url(#mask0_82_412)">
<g id="Group">
<g id="Group_2">
<path id="Vector_2" d="M740.763 284.492C740.763 284.492 723.285 267.128 731.045 259.51C738.805 251.891 773.161 263.615 752.677 231.341C732.194 199.067 747.122 184.593 756.955 175.685C765.206 168.211 803.926 154.451 833.775 197.506C863.623 240.56 845.254 249.219 913.466 282.74C981.677 316.261 847.213 383.545 740.763 284.492Z" fill="black"/>
<g id="Group_3">
<g id="Group_4">
<g id="Group_5">
<path id="Vector_3" d="M786.079 386.496C786.079 386.496 651.732 597.971 647.657 674.869C643.582 751.767 690.455 824.849 859.292 928.704L891.215 992.902C895.68 1001.88 908.494 1001.8 912.839 992.765C926.713 963.904 950.909 912.49 966.149 874.017C969.663 865.145 966.451 855.032 958.419 849.897C926.958 829.785 802.85 737.006 775.318 705.04L858.378 473.696L831.313 392.35L786.079 386.496Z" fill="white"/>
<path id="Vector_4" d="M901.994 1000.4C897.086 1000.4 892.685 997.67 890.493 993.262L858.673 929.271C777.065 879.055 721.238 834.212 688 792.178C657.714 753.877 644.639 716.588 646.852 674.826C648.965 634.952 686.539 558.54 717.689 501.459C751.407 439.67 785.063 386.592 785.399 386.063C785.567 385.8 785.868 385.655 786.182 385.696L831.416 391.55C831.723 391.59 831.98 391.802 832.078 392.095L859.142 473.441C859.199 473.613 859.197 473.799 859.136 473.969L776.235 704.869C804.889 737.765 929.036 830.158 958.852 849.218C967.168 854.534 970.551 865.088 966.897 874.314C951.51 913.16 926.878 965.421 913.565 993.115C911.421 997.574 907.021 1000.36 902.082 1000.4C902.052 1000.4 902.023 1000.4 901.994 1000.4ZM786.485 387.361C779.669 398.157 652.391 600.76 648.462 674.912C643.972 759.629 705.176 832.959 859.714 928.018C859.843 928.097 859.946 928.211 860.013 928.346L891.936 992.544C893.853 996.399 897.702 998.785 901.994 998.785C902.02 998.785 902.045 998.785 902.071 998.785C906.456 998.756 910.21 996.375 912.112 992.416C925.417 964.741 950.03 912.519 965.399 873.72C968.769 865.211 965.651 855.478 957.985 850.577C928.014 831.419 802.851 738.243 774.707 705.567C774.517 705.347 774.461 705.041 774.559 704.768L857.524 473.686L830.708 393.085L786.485 387.361Z" fill="black"/>
</g>
</g>
<path id="Vector_5" d="M895.58 388.984L892.63 980.01C892.576 990.84 883.797 999.591 872.986 999.591H740.91C734.196 999.591 731.254 991.103 736.523 986.935L778.406 953.804L799.212 505.595L786.079 478.061L806.39 388.984L895.58 388.984Z" fill="white"/>
<path id="Vector_6" d="M872.985 1000.4H740.909C737.505 1000.4 734.582 998.316 733.464 995.095C732.343 991.87 733.348 988.418 736.023 986.302L777.618 953.4L797.948 515.44C798.242 509.106 796.955 502.735 794.227 497.015L785.352 478.408C785.16 478.006 785.331 477.525 785.732 477.333C786.133 477.141 786.614 477.312 786.806 477.714L795.681 496.321C798.524 502.279 799.864 508.916 799.558 515.515L779.21 953.841C779.199 954.075 779.088 954.292 778.905 954.437L737.023 987.567C734.439 989.611 734.276 992.523 734.985 994.566C735.694 996.606 737.622 998.785 740.909 998.785H872.985C883.321 998.785 891.772 990.361 891.824 980.005L894.77 389.79H806.39C805.945 389.79 805.585 389.429 805.585 388.984C805.585 388.539 805.945 388.178 806.39 388.178H895.58C895.794 388.178 896 388.263 896.151 388.415C896.302 388.568 896.387 388.774 896.386 388.988L893.436 980.013C893.379 991.253 884.205 1000.4 872.985 1000.4Z" fill="black"/>
</g>
<g id="Group_6">
<g id="Group_7">
<path id="Vector_7" d="M778.517 276.887C787.543 277.607 859.151 289.553 883.432 315.7C918.967 353.967 856.728 442.765 856.728 442.765H751.997L740.226 375.721C740.226 375.721 739.726 375.105 739.451 374.855C729.908 366.189 729.908 355.124 729.908 355.124C729.908 355.124 655.757 368.253 623.343 344.538C598.687 326.499 595.133 261.119 595.133 261.119L644.43 243.958C644.43 243.958 661.828 288.51 666.003 291.005C681.762 300.422 706.816 286.09 741.412 279.865C746.055 279.185 750.285 278.732 754.539 278.306C762.22 277.536 770.057 276.213 778.517 276.887Z" fill="#4C7B99" stroke="black" stroke-width="1.5"/>
<path id="Vector_8" d="M730.17 354.792C729.737 354.792 729.38 354.448 729.365 354.012C729.19 348.706 729.935 343.348 730.655 338.167C730.978 335.849 731.311 333.453 731.555 331.103C731.914 327.655 731.99 323.386 729.361 320.959C729.035 320.657 729.014 320.147 729.317 319.82C729.617 319.492 730.128 319.472 730.455 319.774C733.609 322.687 733.556 327.448 733.157 331.27C732.91 333.647 732.575 336.058 732.252 338.389C731.54 343.503 730.805 348.791 730.975 353.959C730.99 354.404 730.642 354.777 730.197 354.792C730.188 354.792 730.179 354.792 730.17 354.792Z" fill="black"/>
</g>
<g id="Group_8">
<path id="Vector_9" d="M804.508 357.537H750.205L759.39 431.634H795.323L804.508 357.537Z" fill="black"/>
<path id="Vector_10" d="M801.061 348.232L795.323 340.481H759.39L753.651 348.232H745.021V357.537H809.693V348.232H801.061Z" fill="white"/>
</g>
<path id="Vector_11" d="M895.029 384.864C894.905 384.864 894.779 384.835 894.661 384.774C889.202 381.965 883.356 380.078 877.286 379.168C876.846 379.101 876.543 378.691 876.609 378.251C876.674 377.811 877.079 377.506 877.525 377.573C883.769 378.509 889.782 380.45 895.398 383.341C895.794 383.544 895.949 384.03 895.746 384.426C895.603 384.704 895.322 384.864 895.029 384.864Z" fill="black"/>
<g id="Group_9">
<g id="Group_10">
<path id="Vector_12" d="M816.086 378.956C784.481 380.001 746.186 382.246 745.021 387.01C743.67 392.533 747.788 394.039 747.788 394.039C747.788 394.039 743.413 398.467 749.176 404.264C749.176 404.264 746.483 410.522 751.089 413.982C751.089 413.982 750.646 422.697 758.743 422.719C764.999 422.734 788.562 430 813.415 435.664C819.21 417.426 820.187 397.65 816.086 378.956Z" fill="white"/>
<path id="Vector_13" d="M808.639 435.36C808.578 435.36 808.515 435.353 808.453 435.338C799.852 433.3 791.529 431.135 784.186 429.225C771.963 426.045 762.308 423.534 758.741 423.525C756.227 423.519 754.21 422.732 752.746 421.187C750.547 418.866 750.296 415.545 750.279 414.369C746.857 411.507 747.352 406.924 748.237 404.451C743.918 399.814 745.536 395.921 746.59 394.292C745.282 393.405 743.16 391.227 744.238 386.818C744.651 385.131 745.747 380.649 812.256 378.281C812.676 378.268 813.074 378.613 813.089 379.058C813.105 379.503 812.758 379.877 812.313 379.893C751.731 382.05 746.089 386.032 745.804 387.202C744.638 391.969 747.924 393.231 748.065 393.282C748.322 393.376 748.514 393.595 748.574 393.863C748.634 394.131 748.553 394.411 748.36 394.606C748.209 394.763 744.645 398.562 749.747 403.696C749.978 403.929 750.045 404.28 749.916 404.582C749.817 404.814 747.537 410.307 751.573 413.337C751.786 413.498 751.906 413.755 751.894 414.022C751.892 414.059 751.741 417.791 753.922 420.084C755.07 421.292 756.692 421.907 758.745 421.913C762.516 421.922 772.258 424.456 784.591 427.664C791.926 429.572 800.24 431.735 808.824 433.769C809.257 433.872 809.525 434.306 809.422 434.739C809.335 435.11 809.004 435.36 808.639 435.36Z" fill="black"/>
<path id="Vector_14" d="M930.525 393.067C920.435 365.824 906.377 332.139 889.712 303.666C882.209 290.848 868.286 284.248 853.697 281.569C840.278 279.105 822.367 276.881 805.8 276.887C777.421 276.899 857.599 378.079 857.599 378.079C857.599 378.079 838.528 378.214 816.087 378.956C820.187 397.65 819.211 417.426 813.415 435.664C820.73 437.332 828.156 438.862 835.286 440.027C848.699 442.216 871.338 444.496 892.729 445.346C920.332 446.442 940.135 419.015 930.525 393.067Z" fill="#4C7B99"/>
<path id="Vector_15" d="M750.365 393.995C749.944 393.995 749.59 393.669 749.561 393.243C749.532 392.798 749.868 392.414 750.312 392.385L753.209 392.191C753.649 392.164 754.038 392.498 754.067 392.942C754.096 393.386 753.761 393.77 753.316 393.8L750.419 393.994C750.401 393.995 750.383 393.995 750.365 393.995Z" fill="black"/>
<path id="Vector_16" d="M751.527 404.179C751.095 404.179 750.737 403.835 750.723 403.4C750.708 402.955 751.057 402.582 751.501 402.567L754.781 402.457C755.192 402.444 755.599 402.791 755.613 403.236C755.628 403.681 755.279 404.054 754.835 404.069L751.555 404.178C751.546 404.179 751.537 404.179 751.527 404.179Z" fill="black"/>
<path id="Vector_17" d="M754.614 414.702C754.211 414.702 753.862 414.4 753.814 413.99C753.762 413.548 754.078 413.147 754.52 413.095L757.804 412.708C758.252 412.657 758.647 412.973 758.699 413.415C758.75 413.857 758.434 414.258 757.993 414.31L754.709 414.697C754.677 414.7 754.645 414.702 754.614 414.702Z" fill="black"/>
</g>
<g id="Group_11">
<path id="Vector_18" d="M869.368 379.893C869.325 379.893 869.283 379.889 869.239 379.883C858.151 378.1 821.739 378.877 821.371 378.885C820.918 378.911 820.558 378.541 820.548 378.097C820.539 377.651 820.891 377.283 821.336 377.273C822.839 377.24 858.263 376.485 869.494 378.291C869.934 378.361 870.233 378.775 870.163 379.214C870.099 379.611 869.757 379.893 869.368 379.893Z" fill="black"/>
<path id="Vector_19" d="M857.597 378.885C857.257 378.885 856.942 378.668 856.831 378.328L844.593 340.73C844.456 340.306 844.687 339.851 845.11 339.713C845.531 339.575 845.989 339.807 846.126 340.231L858.364 377.829C858.501 378.252 858.27 378.707 857.847 378.845C857.764 378.872 857.68 378.885 857.597 378.885Z" fill="black"/>
</g>
<path id="Vector_20" d="M852.647 443.137C852.621 443.137 852.594 443.136 852.567 443.133C840.247 441.915 814.795 436.796 814.539 436.745C814.102 436.657 813.82 436.231 813.908 435.795C813.995 435.359 814.421 435.076 814.857 435.164C815.112 435.215 840.486 440.318 852.726 441.528C853.169 441.572 853.492 441.967 853.448 442.41C853.407 442.826 853.056 443.137 852.647 443.137Z" fill="black"/>
</g>
<g id="Group_12">
<path id="Vector_21" d="M645.373 245.924L633.521 216.061C633.521 216.061 653.94 212.257 649.811 202.302C645.682 192.348 621.726 201.835 615.884 196.77C615.884 196.77 600.794 182.888 596.245 176.511C591.696 170.134 585.682 160.689 579.23 165.055C579.23 165.055 570.504 158.03 568.168 169.86C568.168 169.86 561.019 176.799 586.417 204.264C587.418 205.346 588.991 231.798 594.872 262.48C612.456 259.76 629.591 254.152 645.373 245.924Z" fill="white"/>
<path id="Vector_22" d="M595.132 259.639C594.746 259.639 594.405 259.36 594.338 258.966C591.903 244.465 590.025 231.577 588.655 222.167C587.318 212.997 586.261 205.735 585.785 204.768C562.091 179.132 566.203 170.986 567.421 169.485C568.212 165.679 569.766 163.33 572.042 162.501C574.965 161.437 578.093 163.274 579.263 164.081C585.763 160.279 591.666 168.634 596.004 174.778L596.9 176.042C601.349 182.279 616.279 196.038 616.429 196.177C618.627 198.082 624.196 197.632 630.091 197.155C638.463 196.477 647.948 195.709 650.555 201.993C651.441 204.129 651.369 206.175 650.34 208.074C647.444 213.421 637.665 215.977 634.586 216.662L644.199 244.036C644.347 244.457 644.126 244.917 643.706 245.064C643.289 245.212 642.827 244.991 642.679 244.571L632.761 216.328C632.683 216.106 632.706 215.861 632.824 215.657C632.941 215.453 633.142 215.311 633.373 215.268C633.498 215.245 645.911 212.869 648.924 207.305C649.72 205.834 649.767 204.299 649.066 202.611C646.91 197.412 638.427 198.098 630.222 198.762C623.979 199.267 618.084 199.745 615.356 197.38C614.72 196.795 600.134 183.351 595.589 176.979L594.689 175.709C590.4 169.636 585.062 162.082 579.681 165.723C579.388 165.921 579.001 165.904 578.725 165.684C578.691 165.657 575.335 163.013 572.589 164.018C570.839 164.658 569.617 166.676 568.958 170.016C568.926 170.177 568.845 170.324 568.728 170.438C568.68 170.491 562.753 177.488 587.008 203.716C587.645 204.405 588.155 207.555 590.25 221.934C591.62 231.337 593.496 244.215 595.928 258.698C596.002 259.138 595.705 259.553 595.267 259.627C595.221 259.635 595.177 259.639 595.132 259.639Z" fill="black"/>
<path id="Vector_23" d="M606.164 197.364C606.133 197.364 606.103 197.362 606.072 197.359C603.323 197.044 600.892 195.573 598.673 194.03C592.533 189.76 587.077 184.612 582.455 178.729C582.18 178.38 581.909 178.028 581.637 177.676C580.339 175.994 578.997 174.255 577.383 172.902C575.27 171.133 572.853 170.286 570.757 170.577C570.318 170.64 569.91 170.331 569.849 169.89C569.787 169.449 570.095 169.042 570.536 168.98C574.023 168.495 576.971 170.455 578.417 171.666C580.166 173.131 581.562 174.941 582.912 176.69C583.181 177.039 583.451 177.387 583.722 177.733C588.244 183.489 593.584 188.527 599.593 192.706C601.639 194.129 603.86 195.483 606.255 195.757C606.697 195.807 607.015 196.207 606.964 196.649C606.917 197.061 606.569 197.364 606.164 197.364Z" fill="black"/>
<path id="Vector_24" d="M597.76 188.691C597.605 188.691 597.449 188.646 597.31 188.553C592.546 185.345 589.115 180.434 586.09 176.101L580.42 167.984C580.165 167.619 580.254 167.116 580.618 166.861C580.985 166.606 581.486 166.696 581.74 167.06L587.41 175.177C590.5 179.601 593.694 184.175 598.211 187.216C598.58 187.464 598.677 187.965 598.429 188.335C598.274 188.566 598.019 188.691 597.76 188.691Z" fill="black"/>
</g>
</g>
<g id="Group_13">
<path id="Vector_25" d="M763.419 236.938L775.516 276.164C775.516 276.164 760.021 277.381 754.874 277.968C751.498 278.354 741.412 279.865 741.412 279.865C741.412 279.865 756.73 298.531 791.147 298.185C841.984 297.673 846.063 280.276 846.063 280.276C846.063 280.276 837.642 279.075 834.827 278.737C828.897 278.024 811.063 276.279 811.063 276.279L794.088 232.182L763.419 236.938Z" fill="white"/>
<g id="Group_14">
<path id="Vector_26" d="M747.373 214.243C745.071 222.602 746.029 232.354 751.883 238.742C756.111 243.356 762.518 245.713 768.766 245.489C775.014 245.266 781.051 242.6 785.825 238.556C788.793 241.836 793.636 243.454 797.86 242.153C802.084 240.852 805.273 236.451 804.761 232.053C804.248 227.656 799.729 224.012 795.389 224.85C794.24 225.071 793.129 225.565 791.959 225.539C789.697 225.489 787.927 223.527 786.943 221.486C784.972 217.399 785.068 212.374 787.194 208.365C781.677 207.433 775.962 206.7 771.029 204.055C761.544 198.969 759.513 192.551 759.513 192.551C759.513 192.551 749.344 207.082 747.373 214.243Z" fill="white"/>
<path id="Vector_27" d="M767.944 246.311C761.525 246.311 755.35 243.72 751.288 239.287C745.764 233.259 743.966 223.58 746.596 214.029C748.581 206.817 758.433 192.687 758.852 192.089C759.028 191.838 759.329 191.707 759.634 191.754C759.937 191.8 760.188 192.015 760.28 192.307C760.299 192.367 762.37 198.497 771.409 203.345C775.721 205.657 780.759 206.486 785.631 207.289L787.328 207.57C787.583 207.613 787.802 207.777 787.917 208.009C788.031 208.241 788.027 208.514 787.906 208.743C785.899 212.529 785.807 217.277 787.668 221.136C788.069 221.967 789.562 224.68 791.977 224.733C792.635 224.751 793.289 224.562 793.994 224.367C794.406 224.252 794.819 224.139 795.236 224.058C797.408 223.638 799.792 224.226 801.766 225.672C803.893 227.23 805.276 229.522 805.561 231.96C806.107 236.651 802.828 241.467 798.097 242.924C793.93 244.208 789.065 242.895 785.762 239.654C780.717 243.731 774.72 246.083 768.795 246.295C768.511 246.306 768.227 246.311 767.944 246.311ZM759.358 194.202C756.917 197.802 749.738 208.687 748.149 214.457C746.202 221.527 746.317 231.477 752.476 238.198C756.403 242.483 762.503 244.907 768.737 244.684C774.532 244.477 780.416 242.082 785.304 237.941C785.635 237.66 786.13 237.692 786.422 238.015C789.307 241.204 793.805 242.558 797.623 241.383C801.568 240.167 804.412 236.024 803.96 232.147C803.731 230.182 802.554 228.248 800.814 226.973C799.201 225.791 797.277 225.306 795.541 225.641C795.166 225.714 794.795 225.818 794.425 225.921C793.639 226.139 792.84 226.365 791.941 226.345C789.694 226.296 787.553 224.61 786.217 221.837C784.298 217.857 784.237 213.031 786.001 208.985L785.37 208.88C780.367 208.056 775.196 207.204 770.647 204.766C763.562 200.966 760.514 196.449 759.358 194.202Z" fill="black"/>
</g>
<path id="Vector_28" d="M789.365 234.973C789.136 234.973 788.91 234.876 788.75 234.688C788.462 234.349 788.504 233.84 788.844 233.552C791.222 231.533 794.765 230.954 797.663 232.111C798.076 232.276 798.277 232.745 798.112 233.159C797.946 233.573 797.477 233.773 797.065 233.608C794.71 232.667 791.824 233.138 789.886 234.782C789.734 234.91 789.55 234.973 789.365 234.973Z" fill="black"/>
</g>
</g>
</g>
</g>
</g>
<g id="Clip path group_2">
<mask id="mask1_82_412" style="mask-type:luminance" maskUnits="userSpaceOnUse" x="0" y="80" width="567" height="441">
<g id="uuid-85945337-e468-49a1-94f4-39fd4da3aa7b">
<path id="Vector_29" d="M566.743 80.093H0V520.389H566.743V80.093Z" fill="white"/>
</g>
</mask>
<g mask="url(#mask1_82_412)">
<g id="Group_15">
<g id="Group_16">
<g id="Group_17">
<g id="Group_18">
<path id="Vector_30" d="M461.74 998.468L300.446 998.468C290.561 998.468 282.163 991.234 280.694 981.454L202.926 505.28L295.551 432.631C295.551 432.631 374.597 661.664 413.674 942.477C413.674 942.477 453.996 969.585 466.765 989.174C469.372 993.173 466.512 998.468 461.74 998.468Z" fill="white"/>
<path id="Vector_31" d="M461.74 999.274H300.445C290.08 999.274 281.438 991.83 279.896 981.574L230.926 680.749C230.854 680.31 231.152 679.896 231.591 679.824C232.04 679.752 232.445 680.051 232.517 680.49L281.489 981.325C282.913 990.795 290.884 997.662 300.445 997.662H461.74C463.678 997.662 465.386 996.644 466.309 994.94C467.233 993.233 467.152 991.242 466.09 989.614C453.557 970.388 413.626 943.417 413.224 943.146C413.034 943.018 412.907 942.816 412.876 942.588C383.125 728.798 328.403 535.559 306.257 462.4C306.128 461.974 306.368 461.524 306.794 461.395C307.222 461.265 307.67 461.507 307.799 461.933C329.945 535.087 384.646 728.247 414.422 942.01C418.416 944.716 455.164 969.901 467.441 988.733C468.83 990.865 468.937 993.473 467.726 995.708C466.517 997.941 464.279 999.274 461.74 999.274Z" fill="black"/>
</g>
<path id="Vector_32" d="M295.551 432.631L109.916 508.685C109.916 508.685 101.33 816.238 103.836 978.278C104.015 989.808 113.401 999.06 124.925 999.06H284.011C289.865 999.06 292.624 991.828 288.26 987.925L247.68 951.626L228.464 630.314L286.431 479.709L295.551 432.631Z" fill="white"/>
</g>
<g id="Group_19">
<g id="Group_20">
<path id="Vector_33" d="M412.738 325.682L441.727 301.058C441.727 301.058 423.838 283.094 434.869 275.96C445.901 268.826 463.415 294.948 472.787 293.91C472.787 293.91 497.549 290.426 506.529 287.175C515.51 283.924 528.083 278.608 531.548 287.461C531.548 287.461 545.174 286.454 539.343 299.949C539.343 299.949 541.729 311.869 497.219 321.847C495.464 322.241 477.11 348.857 446.461 370.626C430.672 355.714 422.909 344.876 412.738 325.682Z" fill="white"/>
<path id="Vector_34" d="M446.815 374.434C446.615 374.434 446.417 374.361 446.261 374.214C430.062 358.914 421.853 344.605 412.026 326.06C411.849 325.725 411.929 325.312 412.217 325.067L440.553 300.999C438.163 298.456 429.723 288.887 430.525 281.404C430.798 278.842 432.113 276.782 434.432 275.283C441.286 270.849 450.237 278.149 458.132 284.59C463.758 289.178 469.085 293.507 472.699 293.108C472.922 293.077 497.457 289.602 506.256 286.417C506.834 286.208 507.426 285.99 508.031 285.768C516.606 282.618 528.287 278.326 532.074 286.637C533.691 286.63 538.188 286.878 540.393 289.981C542.075 292.346 541.998 295.742 540.165 300.075C540.274 302.047 538.969 313.304 497.45 322.622C496.56 323.111 492.048 327.951 486.35 334.063C477.21 343.866 463.397 358.68 447.375 374.207C447.219 374.358 447.017 374.434 446.815 374.434ZM413.754 325.877C423.261 343.793 431.321 357.735 446.808 372.511C462.565 357.208 476.149 342.64 485.171 332.963C494.14 323.344 496.148 321.261 497.043 321.06C539.82 311.47 538.568 300.203 538.55 300.091C538.526 299.94 538.543 299.769 538.603 299.629C540.277 295.756 540.438 292.825 539.08 290.916C536.941 287.906 531.663 288.261 531.607 288.265C531.264 288.288 530.926 288.084 530.798 287.755C527.844 280.208 517.167 284.13 508.586 287.282C507.979 287.505 507.385 287.723 506.804 287.933C497.848 291.175 473.914 294.565 472.9 294.708C468.576 295.186 463.008 290.647 457.114 285.839C449.278 279.448 441.177 272.841 435.307 276.637C433.39 277.877 432.35 279.492 432.127 281.575C431.296 289.341 442.188 300.379 442.298 300.489C442.457 300.649 442.542 300.867 442.533 301.092C442.523 301.317 442.421 301.527 442.25 301.673L413.754 325.877Z" fill="black"/>
<path id="Vector_35" d="M491.718 302.905C488.523 302.905 485.192 302.67 482.324 301.142C481.931 300.932 481.782 300.444 481.991 300.051C482.201 299.658 482.689 299.509 483.081 299.719C485.712 301.121 488.934 301.31 491.969 301.292C500.914 301.259 509.78 299.898 518.323 297.247C518.836 297.088 519.347 296.924 519.86 296.76C522.416 295.942 525.061 295.096 527.812 294.838C530.07 294.627 534.332 294.697 537.452 297.555C537.78 297.856 537.802 298.366 537.501 298.695C537.201 299.023 536.692 299.045 536.363 298.745C534.421 296.964 531.356 296.126 527.962 296.444C525.385 296.685 522.825 297.504 520.35 298.296C519.834 298.461 519.317 298.626 518.8 298.787C510.105 301.486 501.08 302.871 491.976 302.904C491.89 302.905 491.803 302.905 491.718 302.905Z" fill="black"/>
<path id="Vector_36" d="M497.452 298.352C497.345 298.352 497.24 298.352 497.133 298.35C496.689 298.345 496.332 297.98 496.337 297.535C496.342 297.09 496.702 296.745 497.152 296.738C503.841 296.815 510.213 294.429 516.392 292.122L527.7 287.901C528.116 287.745 528.582 287.957 528.737 288.374C528.893 288.791 528.681 289.256 528.264 289.411L516.955 293.633C511.023 295.847 504.311 298.352 497.452 298.352Z" fill="black"/>
</g>
<g id="Group_21">
<path id="Vector_37" d="M309.506 432.631C306.234 416.183 295.552 375.263 295.552 375.263C295.552 375.263 336.422 453.822 398.816 418.022C441.318 393.635 461.855 362.902 461.855 362.902L420.965 315.879C420.965 315.879 371.675 348.255 369.142 344.789C366.421 341.067 314.763 277.665 295.552 266.726C277.167 256.257 264.3 252.679 219.762 252.757C218.733 256.056 223.659 259.129 221.471 261.823C217.25 267.018 210.507 269.88 204.037 270.909C197.823 271.897 191.288 271.561 185.222 269.869C179.767 268.347 174.45 265.584 170.418 261.562C168.564 259.712 167.05 257.606 165.906 255.322C128.207 258.323 104.47 262.895 84.5537 287.222C58.8887 318.572 37.4224 387.087 42.5325 418.695C48.5582 455.965 68.5477 470.866 90.3817 478.037L87.9483 490.855C86.8899 513.162 106.306 532.587 127.236 524.828L213.397 491.77L275.275 500.038C283.755 496.894 309.506 432.631 309.506 432.631Z" fill="#4C7B99" stroke="black" stroke-width="1.5" stroke-linejoin="round"/>
<path id="Vector_38" d="M294.157 370.336C293.791 370.336 293.46 370.084 293.373 369.712L276.813 298.489C276.712 298.055 276.982 297.622 277.415 297.521C277.847 297.42 278.282 297.69 278.382 298.124L294.942 369.347C295.044 369.78 294.774 370.214 294.34 370.315C294.279 370.329 294.218 370.336 294.157 370.336Z" fill="black"/>
<path id="Vector_39" d="M205.902 491.548C205.873 491.548 205.845 491.546 205.816 491.543C205.054 491.463 129.193 483.421 93.0479 477.904C92.608 477.837 92.305 477.426 92.3727 476.985C92.4396 476.545 92.8496 476.242 93.2903 476.31C129.399 481.821 205.224 489.859 205.986 489.94C206.428 489.987 206.749 490.384 206.702 490.826C206.659 491.24 206.309 491.548 205.902 491.548Z" fill="black"/>
<path id="Vector_40" d="M293.715 428.29C293.666 428.29 293.616 428.286 293.566 428.276C292.15 428.01 151.852 401.636 136.653 398.066C135.607 397.82 134.767 397.146 134.156 396.063C128.965 386.85 142.017 346.263 142.575 344.54C142.712 344.117 143.164 343.884 143.59 344.022C144.013 344.159 144.245 344.614 144.108 345.037C143.973 345.453 130.713 386.669 135.56 395.271C135.946 395.955 136.423 396.355 137.021 396.496C152.185 400.058 292.448 426.426 293.863 426.691C294.301 426.774 294.589 427.195 294.506 427.633C294.434 428.02 294.095 428.29 293.715 428.29Z" fill="black"/>
</g>
<g id="Group_22">
<path id="Vector_41" d="M373.006 410.34H318.703L327.888 484.437H363.821L373.006 410.34Z" fill="black"/>
<path id="Vector_42" d="M369.559 401.034L363.821 393.283H327.888L322.149 401.034H313.519V410.34H378.191V401.034H369.559Z" fill="white"/>
</g>
<g id="Group_23">
<path id="Vector_43" d="M367.633 495.51C372.875 495.409 377.254 494.075 378.12 489.593C378.986 485.11 375.154 480.323 370.593 480.191C373.822 480.451 377.157 480.701 380.227 479.665C383.297 478.63 386.059 475.959 386.15 472.718C386.23 469.871 384.235 467.29 381.777 465.852C380.563 465.143 379.249 464.66 377.892 464.292C380.009 463.785 381.991 462.131 382.589 459.981C383.608 456.313 381.464 452.355 378.402 450.096C375.339 447.836 371.525 446.906 367.823 446.027C343.078 440.106 293.714 428.911 293.714 428.911C288.581 432.755 270.989 485.721 271.626 497.888C276.925 500.486 331.055 504.394 352.184 505.21C355.727 505.347 359.419 505.436 362.646 503.965C365.872 502.493 368.454 498.962 367.633 495.51Z" fill="white"/>
<path id="Vector_44" d="M355.087 506.09C354.066 506.09 353.078 506.051 352.153 506.015C330.856 505.193 276.748 501.297 271.271 498.612C270.872 498.416 270.707 497.933 270.902 497.533C271.098 497.133 271.581 496.968 271.981 497.164C276.907 499.579 328.816 503.501 352.216 504.404C355.307 504.524 359.152 504.672 362.312 503.231C365.119 501.951 367.582 498.783 366.849 495.697C366.792 495.46 366.847 495.21 366.995 495.017C367.145 494.824 367.373 494.709 367.617 494.704C373.571 494.589 376.657 492.916 377.329 489.439C377.697 487.535 377.125 485.467 375.763 483.764C374.546 482.245 372.908 481.278 371.193 481.047C370.969 481.03 370.748 481.012 370.529 480.994C370.093 480.959 369.765 480.583 369.789 480.146C369.812 479.718 370.167 479.384 370.592 479.384C370.601 479.384 370.609 479.384 370.617 479.385C370.866 479.392 371.113 479.411 371.36 479.443C374.159 479.662 377.238 479.822 379.97 478.901C382.499 478.048 385.258 475.743 385.344 472.696C385.409 470.411 383.849 467.998 381.37 466.548C380.344 465.948 379.138 465.465 377.682 465.071C377.326 464.974 377.081 464.649 377.086 464.281C377.092 463.912 377.346 463.594 377.704 463.508C379.67 463.037 381.321 461.533 381.812 459.766C382.787 456.258 380.48 452.631 377.923 450.745C374.946 448.548 371.063 447.625 367.637 446.811C343.179 440.959 294.03 429.809 293.536 429.697C293.102 429.599 292.83 429.167 292.928 428.733C293.027 428.298 293.46 428.026 293.892 428.124C294.386 428.236 343.544 439.389 368.011 445.243C371.585 446.092 375.637 447.055 378.88 449.447C381.967 451.724 384.551 455.932 383.365 460.198C382.913 461.822 381.733 463.271 380.199 464.201C380.919 464.484 381.577 464.801 382.184 465.156C384.555 466.543 387.053 469.264 386.956 472.741C386.848 476.56 383.526 479.404 380.485 480.429C378.856 480.979 377.159 481.184 375.481 481.22C376.038 481.661 376.556 482.175 377.02 482.756C378.68 484.828 379.369 487.376 378.911 489.746C378.121 493.836 374.735 495.981 368.572 496.285C368.89 499.957 366.065 503.292 362.981 504.698C360.466 505.845 357.67 506.09 355.087 506.09Z" fill="black"/>
<path id="Vector_45" d="M375.614 464.804C375.572 464.804 375.53 464.801 375.487 464.794C366.072 463.305 356.559 461.609 347.212 459.753C346.775 459.667 346.491 459.242 346.578 458.806C346.664 458.369 347.09 458.085 347.525 458.171C356.852 460.023 366.345 461.715 375.739 463.201C376.178 463.271 376.479 463.684 376.409 464.124C376.346 464.521 376.003 464.804 375.614 464.804Z" fill="black"/>
<path id="Vector_46" d="M370.08 481.163C370.046 481.163 370.012 481.161 369.978 481.156L344.46 477.903C344.019 477.847 343.706 477.443 343.762 477.002C343.819 476.56 344.222 476.247 344.663 476.304L370.181 479.557C370.622 479.613 370.935 480.017 370.879 480.459C370.827 480.866 370.48 481.163 370.08 481.163Z" fill="black"/>
<path id="Vector_47" d="M366.295 496.19C366.278 496.19 366.263 496.19 366.246 496.189C358.547 495.729 350.778 494.901 343.155 493.728C342.715 493.66 342.413 493.249 342.481 492.808C342.549 492.368 342.963 492.066 343.4 492.134C350.974 493.3 358.693 494.122 366.342 494.579C366.787 494.606 367.125 494.988 367.098 495.432C367.073 495.86 366.718 496.19 366.295 496.19Z" fill="black"/>
</g>
</g>
<g id="Group_24">
<path id="Vector_48" d="M223.263 253.992L213.69 252.949L216.214 220.249C216.214 220.249 208.261 180.396 177.628 210.156L172.016 254.553L163.009 255.687C163.009 255.687 166.66 276.395 192.371 276.339C214.211 276.291 223.645 268.917 223.263 253.992Z" fill="white"/>
<path id="Vector_49" d="M163.808 256.034C163.393 256.034 163.04 255.715 163.006 255.293C162.969 254.85 163.3 254.46 163.743 254.424L171.299 253.803L176.829 210.055C176.851 209.874 176.936 209.705 177.067 209.578C186.594 200.323 195.002 196.744 202.055 198.939C213.364 202.459 216.861 219.373 217.004 220.092C217.019 220.164 217.023 220.238 217.017 220.311L214.556 252.204L222.24 252.76C222.684 252.792 223.018 253.178 222.985 253.622C222.953 254.066 222.562 254.403 222.124 254.368L213.632 253.754C213.418 253.738 213.22 253.638 213.08 253.476C212.94 253.313 212.87 253.101 212.887 252.888L215.402 220.303C215.092 218.882 211.533 203.574 201.573 200.478C195.176 198.489 187.377 201.873 178.392 210.539L172.816 254.654C172.768 255.033 172.462 255.326 172.083 255.357L163.875 256.031C163.852 256.033 163.83 256.034 163.808 256.034Z" fill="black"/>
<g id="Group_25">
<g id="Group_26">
<g id="Group_27">
<path id="Vector_50" d="M185.378 211.483C186.487 213.78 188.346 216.615 188.346 216.615C194.337 221.759 202.013 225.121 209.908 225.189C217.802 225.256 225.827 221.803 230.591 215.504C234.762 209.99 236.2 202.8 236 195.888C235.655 184.025 230.668 172.358 222.331 163.916C222.331 163.916 192.661 154.182 188.225 157.958C168.791 174.501 183.544 200.49 183.544 200.49L185.378 211.483Z" fill="white"/>
<path id="Vector_51" d="M210.135 226.202C210.056 226.202 209.979 226.202 209.9 226.201C202.17 226.135 194.329 223.021 187.821 217.434C187.483 217.144 187.445 216.635 187.734 216.297C188.024 215.959 188.534 215.92 188.871 216.21C195.09 221.55 202.564 224.526 209.914 224.589C217.862 224.646 225.528 221.068 229.948 215.224C234.565 209.122 235.349 201.466 235.193 196.118C234.856 184.448 229.958 172.993 221.758 164.689C221.445 164.372 221.448 163.862 221.765 163.549C222.082 163.236 222.592 163.239 222.904 163.556C231.388 172.147 236.455 183.998 236.805 196.071C236.967 201.678 236.133 209.721 231.233 216.198C226.555 222.382 218.488 226.202 210.135 226.202Z" fill="black"/>
</g>
<path id="Vector_52" d="M158.539 175.825C159.356 166.097 164.695 157.454 172.653 151.807C178.667 147.538 187.406 146.297 193.5 146.328C201.297 146.369 211.338 147.539 220.113 154.6C226.276 159.559 229.63 167.431 222.288 169.981C213.085 173.178 206.786 169.144 195.782 167.07C193.333 166.608 190.103 166.821 189.624 173.344C189.206 179.056 192.042 187.407 190.742 192.392C189.307 197.893 186.675 199.56 184.193 200.117C177.162 196.694 170.072 197.02 169.498 207.552C159.129 199.874 157.723 185.552 158.539 175.825Z" fill="black"/>
</g>
<path id="Vector_53" d="M164.058 164.778C167.425 158.16 165.115 150.229 158.9 147.063C152.684 143.897 144.915 146.695 141.549 153.312C138.182 159.93 140.491 167.861 146.707 171.027C152.923 174.193 160.691 171.395 164.058 164.778Z" fill="black"/>
</g>
<g id="Group_28">
<g id="Group_29">
<path id="Vector_54" d="M183.46 200.09C183.46 200.09 171.403 187.847 166.933 196.299C162.463 204.75 176.518 215.99 184.729 206.057L183.46 200.09Z" fill="white"/>
<path id="Vector_55" d="M177.09 210.762C174.667 210.762 172.364 209.903 170.564 208.7C166.487 205.975 163.688 200.712 166.221 195.921C167.245 193.984 168.722 192.861 170.609 192.584C176.294 191.749 183.721 199.206 184.033 199.524C184.141 199.633 184.216 199.771 184.248 199.922L185.518 205.889C185.569 206.13 185.506 206.381 185.35 206.571C182.825 209.625 179.878 210.762 177.09 210.762ZM171.56 194.129C171.316 194.129 171.077 194.145 170.842 194.18C169.473 194.381 168.427 195.197 167.645 196.676C165.558 200.621 167.984 205.036 171.459 207.359C174.701 209.527 179.855 210.39 183.858 205.836L182.722 200.494C181.685 199.487 175.961 194.129 171.56 194.129Z" fill="black"/>
</g>
<path id="Vector_56" d="M179.442 204.249C179.271 204.249 179.098 204.194 178.95 204.081C177.188 202.72 174.896 201.969 172.674 202.032C172.667 202.032 172.66 202.032 172.652 202.032C172.218 202.032 171.859 201.685 171.847 201.248C171.835 200.803 172.186 200.432 172.632 200.42C175.261 200.352 177.853 201.197 179.936 202.805C180.287 203.077 180.353 203.583 180.081 203.935C179.922 204.141 179.684 204.249 179.442 204.249Z" fill="black"/>
</g>
</g>
</g>
</g>
</g>
</g>
<g id="Group_30">
<g id="Group_31">
<path id="Vector_57" d="M311.456 152.636L455.314 152.636C471.468 152.636 484.563 139.533 484.563 123.37V84.1058C484.563 67.9428 471.468 54.8401 455.314 54.8401L311.456 54.8401C295.302 54.8401 282.207 67.9428 282.207 84.1058V123.37C282.207 139.533 295.302 152.636 311.456 152.636Z" fill="white"/>
<path id="Vector_58" d="M455.315 153.442H311.456C294.884 153.442 281.401 139.952 281.401 123.37V84.1059C281.401 67.5241 294.884 54.0339 311.456 54.0339H455.315C471.887 54.0339 485.369 67.5241 485.369 84.1059V123.37C485.369 139.952 471.887 153.442 455.315 153.442ZM311.456 55.6465C295.773 55.6465 283.013 68.4133 283.013 84.1059V123.37C283.013 139.063 295.773 151.83 311.456 151.83H455.315C470.998 151.83 483.758 139.063 483.758 123.37V84.1059C483.758 68.4133 470.998 55.6465 455.315 55.6465H311.456Z" fill="black"/>
</g>
<path id="Vector_59" d="M260.324 200.589C259.879 200.589 259.519 200.228 259.519 199.783C259.519 199.338 259.879 198.977 260.324 198.977C281.644 198.977 298.99 181.599 298.99 160.239C298.99 159.794 299.35 159.433 299.795 159.433C300.241 159.433 300.601 159.794 300.601 160.239C300.601 182.488 282.533 200.589 260.324 200.589Z" fill="black"/>
<g id="Group_32">
<path id="Vector_60" d="M404.134 104.545H315.198C314.753 104.545 314.393 104.184 314.393 103.739C314.393 103.293 314.753 102.932 315.198 102.932H404.134C404.579 102.932 404.94 103.293 404.94 103.739C404.94 104.184 404.579 104.545 404.134 104.545Z" fill="black"/>
<path id="Vector_61" d="M451.573 104.545H424.716C424.271 104.545 423.91 104.184 423.91 103.739C423.91 103.293 424.271 102.932 424.716 102.932H451.573C452.018 102.932 452.379 103.293 452.379 103.739C452.379 104.184 452.018 104.545 451.573 104.545Z" fill="black"/>
<path id="Vector_62" d="M353.804 81.7799H315.198C314.753 81.7799 314.393 81.4189 314.393 80.9736C314.393 80.5284 314.753 80.1674 315.198 80.1674H353.804C354.249 80.1674 354.61 80.5284 354.61 80.9736C354.61 81.4189 354.249 81.7799 353.804 81.7799Z" fill="black"/>
<path id="Vector_63" d="M451.573 81.7799H375.547C375.102 81.7799 374.741 81.4189 374.741 80.9736C374.741 80.5284 375.102 80.1674 375.547 80.1674H451.573C452.018 80.1674 452.379 80.5284 452.379 80.9736C452.379 81.4189 452.018 81.7799 451.573 81.7799Z" fill="black"/>
</g>
</g>
<g id="Group_33">
<g id="Group_34">
<path id="Vector_64" d="M691.419 20.9452H547.561C531.407 20.9452 518.312 34.0479 518.312 50.2109V89.4754C518.312 105.638 531.407 118.741 547.561 118.741H691.419C707.573 118.741 720.668 105.638 720.668 89.4754V50.2109C720.668 34.0479 707.573 20.9452 691.419 20.9452Z" fill="white"/>
<path id="Vector_65" d="M691.419 119.547H547.561C530.988 119.547 517.506 106.057 517.506 89.4753V50.2108C517.506 33.6291 530.988 20.1389 547.561 20.1389H691.419C707.992 20.1389 721.474 33.6291 721.474 50.2108V89.4753C721.474 106.057 707.992 119.547 691.419 119.547ZM547.561 21.7515C531.877 21.7515 519.117 34.5183 519.117 50.2108V89.4753C519.117 105.168 531.877 117.935 547.561 117.935H691.419C707.102 117.935 719.862 105.168 719.862 89.4753V50.2108C719.862 34.5183 707.102 21.7515 691.419 21.7515H547.561Z" fill="black"/>
</g>
<path id="Vector_66" d="M742.551 166.694C720.343 166.694 702.274 148.593 702.274 126.344C702.274 125.899 702.635 125.538 703.08 125.538C703.526 125.538 703.886 125.899 703.886 126.344C703.886 147.704 721.231 165.081 742.551 165.081C742.997 165.081 743.357 165.442 743.357 165.888C743.357 166.333 742.997 166.694 742.551 166.694Z" fill="black"/>
<g id="Group_35">
<path id="Vector_67" d="M687.677 70.6492H598.741C598.296 70.6492 597.936 70.2882 597.936 69.843C597.936 69.3977 598.296 69.0367 598.741 69.0367H687.677C688.122 69.0367 688.483 69.3977 688.483 69.843C688.483 70.2882 688.122 70.6492 687.677 70.6492Z" fill="black"/>
<path id="Vector_68" d="M578.16 70.6492H551.303C550.857 70.6492 550.497 70.2882 550.497 69.843C550.497 69.3977 550.857 69.0367 551.303 69.0367H578.16C578.605 69.0367 578.966 69.3977 578.966 69.843C578.966 70.2882 578.605 70.6492 578.16 70.6492Z" fill="black"/>
<path id="Vector_69" d="M687.677 47.8843H649.071C648.626 47.8843 648.266 47.5233 648.266 47.078C648.266 46.6327 648.626 46.2717 649.071 46.2717H687.677C688.122 46.2717 688.483 46.6327 688.483 47.078C688.483 47.5233 688.122 47.8843 687.677 47.8843Z" fill="black"/>
<path id="Vector_70" d="M627.329 47.8844H551.303C550.857 47.8844 550.497 47.5234 550.497 47.0781C550.497 46.6329 550.857 46.2719 551.303 46.2719H627.329C627.774 46.2719 628.135 46.6329 628.135 47.0781C628.135 47.5234 627.774 47.8844 627.329 47.8844Z" fill="black"/>
</g>
<g id="Group_36">
<g id="Group_37">
<path id="Vector_71" d="M748.706 35.0214C751.124 20.5119 741.349 6.79089 726.871 4.37471C712.393 1.95853 698.696 11.7621 696.277 26.2716C693.858 40.7812 703.634 54.5022 718.112 56.9183C732.59 59.3345 746.287 49.5309 748.706 35.0214Z" fill="white"/>
<path id="Vector_72" d="M722.441 58.0993C717.98 58.0995 713.563 56.9954 709.523 54.821C696.224 47.6627 691.222 30.9946 698.373 17.6651C701.839 11.202 707.61 6.47962 714.623 4.368C721.622 2.26014 729.022 3.00694 735.459 6.47205C748.757 13.6301 753.759 30.2983 746.609 43.6281C743.143 50.0912 737.372 54.8135 730.359 56.9251C727.753 57.7101 725.089 58.0992 722.441 58.0993ZM722.538 4.80707C720.046 4.80707 717.54 5.17321 715.087 5.91203C708.487 7.89945 703.056 12.3442 699.792 18.4276C693.062 30.9745 697.77 46.6635 710.287 53.401C716.344 56.6615 723.309 57.3649 729.895 55.381C736.495 53.3936 741.926 48.9488 745.19 42.8655C751.919 30.3183 747.212 14.6294 734.695 7.89206C730.895 5.84609 726.736 4.80707 722.538 4.80707Z" fill="black"/>
</g>
</g>
</g>
</g>
<path id="Vector 175" d="M1016 460.301H382.789" stroke="black" stroke-width="1.5" stroke-linecap="round"/>
<path id="Vector 176" d="M682.104 519.925H48.8926" stroke="black" stroke-width="1.5" stroke-linecap="round"/>
<g id="uuid-d0c22c3a-65ab-44ba-b364-9b7578975d0a" clip-path="url(#clip0_82_412)">
<path id="Vector_73" d="M431.231 131.512C431.177 131.57 431.119 131.625 431.064 131.681C430.943 131.802 430.823 131.923 430.705 132.047C430.254 132.521 429.832 133.022 429.363 133.478C429.265 133.573 429.167 133.667 429.068 133.76C429.223 134.183 429.387 134.604 429.547 135.025C429.78 135.643 430.033 136.248 430.229 136.88C430.437 137.546 430.597 138.219 430.746 138.901C430.757 138.952 430.763 139.003 430.765 139.053C430.802 139.131 430.83 139.214 430.846 139.302C430.847 139.308 430.848 139.313 430.849 139.319C430.879 139.405 430.907 139.491 430.923 139.58C430.958 139.781 430.951 140.03 430.87 140.219C430.765 140.463 430.74 140.501 430.558 140.694C430.482 140.775 430.38 140.83 430.284 140.883C430.086 140.991 429.898 140.988 429.682 140.998C429.453 141.009 429.256 140.91 429.06 140.807C429.057 140.806 429.054 140.804 429.051 140.802C428.967 140.775 428.89 140.736 428.828 140.683C428.602 140.489 428.356 140.322 428.127 140.132C427.909 139.951 427.678 139.788 427.455 139.615C427.002 139.265 426.533 138.938 426.053 138.629C425.549 138.304 425.058 137.96 424.561 137.624C424.468 137.561 424.374 137.5 424.279 137.44C423.864 137.732 423.449 138.025 423.038 138.323C422.506 138.708 421.97 139.084 421.47 139.51C421.232 139.713 421.009 139.933 420.785 140.153C420.731 140.207 420.678 140.262 420.625 140.316C420.492 140.452 420.339 140.563 420.171 140.651C419.846 140.821 419.425 140.795 419.123 140.589C418.973 140.488 418.831 140.325 418.754 140.16C418.655 139.951 418.656 139.78 418.643 139.554C418.64 139.509 418.655 139.448 418.662 139.401C418.68 139.296 418.702 139.192 418.724 139.088C418.74 139.009 418.757 138.93 418.774 138.851C418.81 138.686 418.85 138.522 418.891 138.357C418.966 138.054 419.046 137.752 419.126 137.45C419.282 136.857 419.458 136.271 419.614 135.679C419.684 135.416 419.755 135.153 419.826 134.89C419.755 134.843 419.684 134.795 419.613 134.749C419.341 134.571 419.071 134.391 418.812 134.195C418.288 133.798 417.766 133.393 417.266 132.966C417.018 132.754 416.776 132.536 416.538 132.311C416.448 132.225 416.365 132.135 416.286 132.038C416.117 131.831 416.031 131.609 415.961 131.353C415.948 131.247 415.943 131.14 415.947 131.033C415.951 130.888 416.042 130.601 416.133 130.487C416.281 130.299 416.418 130.142 416.634 130.034C416.81 129.946 417.004 129.884 417.198 129.851C417.346 129.826 417.499 129.821 417.649 129.806C417.9 129.783 418.15 129.757 418.4 129.731C419.278 129.64 420.159 129.599 421.04 129.558C421.152 129.03 421.276 128.505 421.429 127.988C421.61 127.379 421.843 126.789 422.04 126.187C422.143 125.873 422.246 125.559 422.356 125.248C422.452 124.978 422.576 124.712 422.718 124.466C422.781 124.357 422.889 124.244 422.967 124.159C423.076 124.04 423.204 123.929 423.35 123.858C423.498 123.786 423.705 123.734 423.877 123.734C423.896 123.734 423.914 123.734 423.932 123.735C424.161 123.752 424.365 123.843 424.554 123.968C424.834 124.151 425.016 124.482 425.183 124.765C425.265 124.904 425.336 125.051 425.409 125.195C425.554 125.484 425.7 125.772 425.842 126.063C426.122 126.632 426.403 127.199 426.674 127.773C426.907 128.266 427.142 128.758 427.366 129.255C427.444 129.251 427.521 129.248 427.598 129.244C427.927 129.229 428.255 129.219 428.585 129.224C428.914 129.228 429.245 129.246 429.573 129.272C429.812 129.291 430.05 129.307 430.287 129.34C430.429 129.36 430.584 129.392 430.721 129.426C430.871 129.462 430.976 129.518 431.12 129.593C431.242 129.656 431.335 129.758 431.434 129.853C431.661 130.07 431.668 130.392 431.681 130.68C431.69 130.869 431.582 131.065 431.489 131.218C431.434 131.309 431.313 131.423 431.231 131.512Z" fill="#EED08E"/>
<path id="Vector_74" d="M346.564 131.701C346.521 131.804 346.472 131.903 346.416 131.998C346.342 132.128 346.18 132.275 346.058 132.372C345.931 132.474 345.79 132.56 345.651 132.645C345.477 132.752 345.302 132.855 345.121 132.95C344.972 133.029 344.823 133.107 344.673 133.184C344.799 133.489 344.922 133.794 345.042 134.101C345.141 134.355 345.245 134.606 345.334 134.863C345.444 135.184 345.553 135.505 345.663 135.825C345.904 136.523 346.096 137.241 346.306 137.949C346.377 138.189 346.287 138.501 346.157 138.701C346.009 138.928 345.773 139.088 345.51 139.139C345.256 139.187 344.988 139.132 344.773 138.986C344.706 138.926 344.639 138.866 344.572 138.806C344.524 138.75 344.483 138.69 344.449 138.627C344.321 138.569 344.204 138.483 344.108 138.369C343.804 138.005 343.493 137.648 343.181 137.291C342.916 136.988 342.647 136.691 342.354 136.416C341.912 136.032 341.454 135.669 340.987 135.318C340.776 135.499 340.577 135.693 340.389 135.903C340.123 136.215 339.864 136.533 339.62 136.865C339.331 137.257 339.079 137.669 338.857 138.102C338.809 138.212 338.769 138.33 338.694 138.42C338.635 138.489 338.575 138.557 338.517 138.625C338.38 138.745 338.224 138.823 338.047 138.857C337.962 138.862 337.877 138.867 337.792 138.872C337.617 138.859 337.456 138.804 337.309 138.705C337.306 138.704 337.303 138.702 337.301 138.701C337.149 138.596 337.033 138.46 336.952 138.292C336.877 138.13 336.846 137.96 336.857 137.781C336.863 137.566 336.94 137.339 336.992 137.127C337.035 136.951 337.077 136.774 337.119 136.597C337.198 136.26 337.275 135.923 337.359 135.586C337.526 134.915 337.699 134.245 337.869 133.574C337.884 133.515 337.899 133.455 337.914 133.396C337.825 133.345 337.736 133.294 337.647 133.242C337.353 133.071 337.062 132.893 336.774 132.71C336.651 132.631 336.532 132.547 336.414 132.461C335.907 132.095 335.473 131.482 335.692 130.822C335.761 130.614 335.887 130.474 336.038 130.326C336.18 130.185 336.375 130.124 336.559 130.07C336.672 130.036 336.788 130.023 336.904 130.009C337.067 129.989 337.232 129.974 337.395 129.961C337.807 129.928 338.219 129.909 338.631 129.892C338.674 129.89 338.717 129.888 338.76 129.887C338.785 129.773 338.811 129.659 338.836 129.546C338.985 128.871 339.132 128.195 339.283 127.52C339.328 127.322 339.373 127.122 339.418 126.923C339.443 126.815 339.472 126.709 339.505 126.603C339.518 126.568 339.53 126.534 339.543 126.499C339.597 126.387 339.65 126.275 339.704 126.163C339.792 126.038 339.88 125.913 340.005 125.826C340.141 125.706 340.298 125.628 340.475 125.594C340.539 125.582 340.604 125.577 340.668 125.577C340.705 125.577 340.743 125.579 340.78 125.582C341.541 125.64 341.798 126.407 342.054 127.013C342.452 127.959 342.849 128.905 343.25 129.85C343.433 129.854 343.616 129.859 343.799 129.862C344.119 129.868 344.441 129.897 344.76 129.938C345.018 129.971 345.274 130.022 345.528 130.081C345.624 130.103 345.713 130.143 345.802 130.184C345.91 130.23 346.013 130.284 346.112 130.347C346.205 130.418 346.29 130.498 346.367 130.587C346.539 130.775 346.659 131.122 346.622 131.384C346.609 131.491 346.59 131.597 346.564 131.701ZM337.074 137.223C337.074 137.223 337.073 137.224 337.073 137.224C337.073 137.224 337.074 137.223 337.074 137.223V137.223Z" fill="#EED08E"/>
<path id="Vector_75" d="M406.406 141.009C406.34 141.042 406.272 141.066 406.204 141.082C405.953 141.253 405.628 141.305 405.318 141.212C404.863 141.075 404.441 140.866 404.014 140.659C403.636 140.478 403.258 140.297 402.884 140.11C402.727 140.033 402.571 139.955 402.416 139.876C402.493 139.915 402.571 139.954 402.648 139.992C401.416 139.38 400.247 138.663 399.082 137.929C398.954 137.848 398.826 137.769 398.697 137.69C398.576 137.891 398.457 138.095 398.335 138.296C397.958 138.916 397.572 139.53 397.184 140.144C396.964 140.493 396.741 140.839 396.517 141.185C396.101 141.827 395.679 142.464 395.332 143.149C395.174 143.495 395.038 143.848 394.936 144.217C394.835 144.581 394.801 144.987 394.47 145.234C394.25 145.399 394.027 145.501 393.746 145.481C393.467 145.461 393.255 145.33 393.062 145.133C392.816 144.884 392.782 144.53 392.75 144.199C392.727 143.966 392.722 143.729 392.711 143.496C392.696 143.172 392.682 142.849 392.665 142.525C392.629 141.804 392.589 141.084 392.551 140.363C392.478 138.991 392.484 137.62 392.512 136.248C392.523 135.71 392.538 135.173 392.557 134.637C392.284 134.541 392.01 134.449 391.734 134.36C391.052 134.14 390.371 133.918 389.688 133.698C389.361 133.592 389.037 133.474 388.712 133.362C388.313 133.224 387.925 133.039 387.548 132.847C387.356 132.748 387.168 132.645 386.984 132.53C386.739 132.378 386.53 132.192 386.316 131.998C386.153 131.849 386.015 131.687 385.931 131.475C385.857 131.288 385.814 131.092 385.828 130.889C385.84 130.719 385.911 130.461 386.011 130.322C386.104 130.194 386.202 130.075 386.326 129.979C386.439 129.893 386.552 129.822 386.678 129.763C386.863 129.677 387.069 129.627 387.266 129.572C387.557 129.491 387.856 129.433 388.151 129.371C388.784 129.239 389.417 129.107 390.05 128.978C390.986 128.788 391.923 128.602 392.864 128.435C392.867 128.222 392.871 128.009 392.875 127.796C392.897 126.604 392.894 125.412 392.916 124.221C392.928 123.568 392.933 122.916 392.961 122.264C392.98 121.832 392.994 121.401 393.034 120.971C393.055 120.741 393.102 120.515 393.15 120.289C393.179 120.156 393.261 120.005 393.32 119.893C393.356 119.825 393.384 119.763 393.435 119.705C393.494 119.637 393.553 119.568 393.612 119.5C393.748 119.38 393.905 119.302 394.081 119.268C394.162 119.255 394.234 119.249 394.303 119.249C394.409 119.249 394.51 119.264 394.631 119.297C394.975 119.389 395.173 119.657 395.341 119.952C395.315 119.913 395.29 119.874 395.265 119.835C395.902 120.825 396.497 121.844 397.119 122.845C397.484 123.391 397.856 123.93 398.232 124.468C398.648 125.065 399.075 125.658 399.461 126.276C399.637 126.557 399.812 126.837 399.988 127.117C400.079 127.095 400.17 127.072 400.262 127.05C400.579 126.972 400.891 126.859 401.204 126.763C401.493 126.675 401.781 126.586 402.068 126.493C402.608 126.318 403.147 126.124 403.709 126.036C403.947 125.999 404.194 125.978 404.431 126.017C404.638 126.049 404.815 126.088 404.993 126.207C405.161 126.318 405.321 126.461 405.401 126.655C405.451 126.774 405.499 126.894 405.508 127.024C405.514 127.111 405.518 127.197 405.523 127.284C405.503 127.389 405.482 127.493 405.461 127.598C405.439 127.708 405.38 127.819 405.339 127.923C405.08 128.584 404.856 129.27 404.48 129.875C403.974 130.69 403.391 131.45 402.785 132.19C402.868 132.337 402.952 132.482 403.041 132.625C403.231 132.931 403.424 133.234 403.61 133.542C403.972 134.141 404.337 134.738 404.668 135.354C404.988 135.952 405.305 136.55 405.614 137.153C406.041 137.982 406.457 138.817 406.875 139.651C407.123 140.145 406.887 140.774 406.406 141.009Z" fill="#EED08E"/>
<path id="Vector_76" d="M375.048 127.671C375.133 127.663 375.218 127.656 375.303 127.648C375.509 127.63 375.711 127.594 375.919 127.597C376.094 127.61 376.255 127.666 376.401 127.764C376.554 127.868 376.67 128.005 376.749 128.172C376.82 128.369 376.868 128.494 376.853 128.706C376.84 128.899 376.772 129.09 376.655 129.242C376.548 129.379 376.425 129.491 376.305 129.613C376.199 129.721 376.096 129.832 375.993 129.943C375.744 130.212 375.497 130.482 375.249 130.753C374.852 131.187 374.463 131.631 374.068 132.068C373.745 132.426 373.422 132.783 373.099 133.141C372.918 133.341 372.745 133.553 372.555 133.744C372.386 133.912 372.217 134.081 372.048 134.249C372.083 134.338 372.117 134.427 372.153 134.516L372.602 135.636C372.717 135.923 372.813 136.218 372.919 136.509C373.04 136.845 373.163 137.18 373.27 137.521C373.494 138.236 373.708 138.952 373.914 139.673C373.982 139.914 373.896 140.223 373.764 140.425C373.645 140.607 373.469 140.746 373.268 140.82C373.137 140.933 372.978 141.012 372.807 141.044C372.566 141.091 372.27 141.047 372.069 140.892C371.886 140.751 371.671 140.658 371.472 140.542C371.27 140.424 371.066 140.308 370.858 140.199C370.572 140.063 370.285 139.929 370.01 139.769C369.768 139.629 369.531 139.475 369.298 139.32C368.808 138.997 368.319 138.673 367.817 138.369C367.734 138.319 367.652 138.269 367.569 138.22C367.153 138.566 366.748 138.93 366.337 139.283C366.097 139.488 365.86 139.695 365.617 139.896C365.34 140.123 365.052 140.339 364.787 140.581C364.539 140.807 364.291 141.033 364.043 141.259C363.808 141.472 363.591 141.71 363.366 141.934C363.175 142.125 362.982 142.321 362.779 142.499L362.392 142.838C362.281 142.936 362.167 143.029 362.052 143.121C361.895 143.246 361.708 143.35 361.509 143.388C361.311 143.427 361.144 143.392 360.953 143.338C360.626 143.246 360.34 142.903 360.292 142.563C360.277 142.451 360.263 142.337 360.279 142.224C360.297 142.097 360.325 141.971 360.351 141.845C360.367 141.765 360.383 141.685 360.399 141.605C360.424 141.481 360.449 141.357 360.474 141.233C360.722 139.867 360.894 138.488 361.086 137.112C361.172 136.493 361.272 135.876 361.358 135.257C361.384 135.075 361.409 134.894 361.434 134.713C361.207 134.582 360.98 134.452 360.754 134.319C360.487 134.162 360.228 133.983 359.974 133.805C359.663 133.587 359.356 133.364 359.051 133.136C358.519 132.738 357.997 132.331 357.448 131.957C357.215 131.798 356.982 131.646 356.757 131.476C356.638 131.386 356.521 131.291 356.405 131.197C356.342 131.146 356.283 131.089 356.222 131.036C356.026 130.864 355.817 130.7 355.702 130.455C355.62 130.28 355.596 130.115 355.601 129.924C355.607 129.704 355.674 129.605 355.765 129.414C355.855 129.229 356.074 129.08 356.249 128.995C356.422 128.91 356.639 128.857 356.833 128.825C357.137 128.776 357.443 128.737 357.75 128.706C359.043 128.576 360.342 128.525 361.639 128.454C361.948 128.432 362.257 128.409 362.566 128.385C362.585 128.3 362.604 128.214 362.624 128.128C362.716 127.72 362.796 127.309 362.878 126.899C363.107 125.55 363.294 124.194 363.534 122.847C363.578 122.602 363.622 122.35 363.69 122.11C363.797 121.73 364.115 121.419 364.498 121.346C364.56 121.334 364.623 121.328 364.687 121.328C364.999 121.328 365.312 121.471 365.499 121.732C365.716 122.035 365.893 122.376 366.081 122.698C366.441 123.311 366.793 123.927 367.142 124.545C367.327 124.872 367.49 125.212 367.664 125.545C367.798 125.802 367.93 126.06 368.063 126.317C368.346 126.868 368.635 127.415 368.925 127.962C369.32 127.948 369.715 127.938 370.11 127.926C370.618 127.912 371.125 127.909 371.633 127.897C372.179 127.883 372.723 127.861 373.269 127.832C373.667 127.799 374.065 127.765 374.462 127.726C374.657 127.706 374.852 127.689 375.048 127.671Z" fill="#EED08E"/>
<path id="Vector_77" d="M319.376 136.272C319.324 136.32 319.275 136.376 319.228 136.43L319.177 136.489C319.129 136.543 319.08 136.597 319.031 136.65L318.932 136.757C318.783 136.922 318.616 137.074 318.455 137.22L318.378 137.29L318.298 137.362C318.15 137.497 317.996 137.637 317.851 137.78L317.79 137.839C317.727 137.901 317.662 137.965 317.602 138.033L317.485 138.166L317.353 138.317L317.186 138.532L317.019 138.749C316.982 138.797 316.948 138.848 316.915 138.899C316.9 138.923 316.885 138.946 316.869 138.97L316.785 139.093L316.7 139.218C316.63 139.322 316.563 139.43 316.498 139.535L316.423 139.657C316.313 139.833 316.203 140.01 316.096 140.187C315.895 140.519 315.704 140.819 315.513 141.102C315.426 141.23 315.324 141.363 315.192 141.521C315.132 141.593 315.083 141.647 315.034 141.697C314.946 141.787 314.807 141.844 314.681 141.844C314.671 141.844 314.662 141.844 314.653 141.843C314.506 141.833 314.392 141.736 314.323 141.657C314.228 141.55 314.173 141.406 314.14 141.308C314.049 141.04 314.003 140.756 313.958 140.481L313.933 140.328C313.91 140.196 313.891 140.062 313.871 139.929L313.849 139.776C313.811 139.514 313.784 139.247 313.758 138.988C313.747 138.877 313.736 138.766 313.724 138.655C313.706 138.489 313.69 138.323 313.674 138.157C313.656 137.971 313.638 137.786 313.618 137.601C313.584 137.299 313.54 136.994 313.499 136.699L313.473 136.521L313.448 136.344C313.411 136.085 313.372 135.817 313.344 135.553L313.316 135.299C313.292 135.082 313.268 134.866 313.249 134.649L313.23 134.424C313.209 134.181 313.188 133.939 313.162 133.697C313.151 133.589 313.135 133.481 313.119 133.374L313.099 133.241L313.089 133.168C313.078 133.088 313.067 133.008 313.055 132.928C313.004 132.892 312.953 132.856 312.902 132.82C312.833 132.772 312.765 132.724 312.697 132.676C312.628 132.628 312.56 132.58 312.491 132.532C312.264 132.375 312.035 132.22 311.807 132.065L311.599 131.924C311.487 131.848 311.373 131.775 311.26 131.702C311.08 131.587 310.894 131.468 310.719 131.338C310.571 131.227 310.414 131.104 310.28 130.955C310.222 130.89 310.176 130.814 310.131 130.734C310.113 130.704 310.101 130.671 310.091 130.641C310.066 130.567 310.04 130.482 310.049 130.408C310.058 130.34 310.07 130.279 310.088 130.222C310.103 130.171 310.136 130.113 310.188 130.045C310.257 129.955 310.348 129.882 310.466 129.822C310.589 129.76 310.729 129.736 310.864 129.712L310.889 129.708C310.957 129.696 311.027 129.69 311.096 129.683L311.176 129.676C311.353 129.658 311.53 129.636 311.719 129.611C311.799 129.6 311.88 129.587 311.96 129.574C312.052 129.56 312.143 129.545 312.235 129.533C312.408 129.512 312.594 129.489 312.783 129.472C313.064 129.447 313.346 129.426 313.627 129.407L313.924 129.385C314.28 129.359 314.659 129.333 315.042 129.323C315.197 129.319 315.352 129.317 315.507 129.317C315.569 129.317 315.631 129.318 315.694 129.318L315.85 129.321C315.977 129.324 316.103 129.326 316.23 129.326C316.269 129.326 316.308 129.326 316.347 129.325C316.396 129.319 316.443 129.309 316.493 129.295C316.513 129.288 316.533 129.279 316.553 129.269L316.565 129.25C316.599 129.162 316.619 129.071 316.635 128.993C316.691 128.633 316.724 128.259 316.753 127.929C316.791 127.517 316.82 127.11 316.841 126.802C316.85 126.665 316.86 126.527 316.868 126.39C316.908 125.785 316.949 125.159 317.029 124.548L317.037 124.488C317.061 124.308 317.085 124.121 317.119 123.938L317.126 123.897C317.182 123.593 317.244 123.249 317.484 123.033C317.588 122.939 317.722 122.888 317.861 122.888C317.945 122.888 318.025 122.907 318.098 122.943C318.158 122.973 318.207 123.001 318.261 123.042C318.296 123.069 318.329 123.1 318.361 123.131L318.38 123.149C318.414 123.182 318.445 123.22 318.474 123.258L318.499 123.289C318.6 123.415 318.688 123.557 318.773 123.694C318.797 123.733 318.821 123.771 318.845 123.81C319.021 124.09 319.184 124.384 319.342 124.669L319.424 124.815C319.6 125.135 319.772 125.452 319.933 125.758C320.287 126.432 320.64 127.105 320.991 127.78L321.139 128.065L321.286 128.349C321.347 128.467 321.404 128.587 321.461 128.707L321.505 128.8C321.69 128.796 321.877 128.794 322.064 128.791L322.437 128.786C322.84 128.78 323.255 128.767 323.707 128.748C323.847 128.737 323.987 128.726 324.127 128.715C324.349 128.697 324.571 128.679 324.794 128.664C324.985 128.651 325.171 128.639 325.357 128.639C325.57 128.639 325.756 128.655 325.925 128.687C326.009 128.702 326.099 128.721 326.188 128.753C326.289 128.79 326.388 128.857 326.467 128.941C326.549 129.027 326.605 129.124 326.636 129.231C326.669 129.346 326.672 129.476 326.645 129.629C326.602 129.865 326.52 130.1 326.378 130.392C326.263 130.629 326.124 130.869 325.965 131.104C325.772 131.392 325.546 131.651 325.327 131.902C325.198 132.05 325.068 132.188 324.946 132.314C324.736 132.532 324.523 132.747 324.311 132.962L324.006 133.271C323.925 133.354 323.846 133.438 323.766 133.521C323.697 133.594 323.629 133.666 323.559 133.738L323.486 133.812C323.437 133.862 323.388 133.912 323.34 133.963C323.31 133.994 323.28 134.023 323.25 134.054C323.219 134.083 323.189 134.113 323.16 134.144C323.189 134.201 323.223 134.258 323.257 134.314C323.273 134.34 323.289 134.367 323.304 134.394C323.344 134.464 323.384 134.534 323.422 134.605L323.555 134.848L323.688 135.089L323.761 135.226C323.82 135.335 323.878 135.444 323.941 135.551L324.031 135.707L324.213 136.018C324.436 136.399 324.61 136.689 324.776 136.959C324.862 137.099 324.944 137.243 325.027 137.387L325.083 137.484C325.148 137.595 325.215 137.71 325.27 137.828C325.294 137.88 325.316 137.931 325.337 137.984C325.363 138.051 325.378 138.111 325.384 138.167L325.386 138.211L325.389 138.256C325.382 138.298 325.373 138.34 325.363 138.382C325.349 138.442 325.283 138.527 325.243 138.563C325.191 138.608 325.123 138.644 325.05 138.663C325.002 138.675 324.951 138.681 324.895 138.681C324.851 138.681 324.803 138.678 324.748 138.67C324.553 138.644 324.365 138.587 324.19 138.532C324.049 138.489 323.91 138.427 323.777 138.368L323.712 138.339C323.571 138.276 323.432 138.202 323.297 138.13L323.183 138.07C323.098 138.025 323.014 137.982 322.929 137.938C322.694 137.816 322.45 137.69 322.218 137.553C321.9 137.363 321.581 137.174 321.262 136.986C320.997 136.831 320.71 136.666 320.413 136.51C320.309 136.461 320.204 136.415 320.099 136.369L319.979 136.316L319.956 136.306C319.824 136.247 319.687 136.186 319.546 136.147C319.54 136.146 319.537 136.146 319.532 136.146L319.517 136.152L319.518 136.153C319.463 136.195 319.418 136.233 319.376 136.272Z" fill="#EED08E"/>
</g>
<g id="uuid-d0c22c3a-65ab-44ba-b364-9b7578975d0a_2" clip-path="url(#clip1_82_412)">
<path id="Vector_78" d="M551.381 96.9297C551.435 96.9878 551.492 97.0431 551.548 97.0988C551.669 97.22 551.789 97.3413 551.906 97.4649C552.357 97.9385 552.78 98.44 553.248 98.8961C553.346 98.9911 553.444 99.0851 553.544 99.178C553.388 99.6012 553.224 100.022 553.065 100.443C552.831 101.061 552.579 101.666 552.382 102.298C552.175 102.963 552.014 103.637 551.866 104.319C551.855 104.37 551.848 104.42 551.846 104.471C551.809 104.549 551.781 104.632 551.765 104.72C551.764 104.725 551.763 104.731 551.762 104.737C551.732 104.822 551.704 104.909 551.689 104.998C551.653 105.199 551.66 105.448 551.742 105.637C551.846 105.88 551.871 105.919 552.053 106.112C552.129 106.193 552.231 106.248 552.327 106.3C552.526 106.409 552.713 106.406 552.93 106.416C553.158 106.427 553.355 106.328 553.552 106.225C553.555 106.224 553.558 106.222 553.561 106.22C553.644 106.193 553.721 106.154 553.784 106.101C554.009 105.907 554.255 105.74 554.485 105.549C554.702 105.369 554.933 105.206 555.157 105.033C555.609 104.683 556.079 104.356 556.558 104.047C557.062 103.722 557.554 103.377 558.05 103.042C558.144 102.979 558.238 102.917 558.332 102.857C558.747 103.15 559.162 103.443 559.574 103.741C560.105 104.126 560.641 104.501 561.141 104.928C561.38 105.131 561.603 105.351 561.826 105.571C561.88 105.625 561.933 105.68 561.987 105.734C562.12 105.87 562.273 105.981 562.441 106.069C562.765 106.239 563.186 106.212 563.489 106.007C563.638 105.906 563.78 105.743 563.858 105.578C563.956 105.369 563.956 105.198 563.968 104.972C563.971 104.926 563.956 104.866 563.949 104.819C563.932 104.714 563.909 104.61 563.888 104.505C563.871 104.427 563.854 104.348 563.837 104.269C563.801 104.103 563.762 103.939 563.721 103.775C563.645 103.472 563.565 103.17 563.486 102.868C563.329 102.275 563.153 101.689 562.997 101.097C562.927 100.834 562.856 100.571 562.786 100.307C562.856 100.26 562.927 100.213 562.998 100.167C563.27 99.9888 563.54 99.8089 563.799 99.6126C564.323 99.2161 564.845 98.8107 565.345 98.3843C565.594 98.1721 565.836 97.9534 566.073 97.7289C566.163 97.6429 566.247 97.5524 566.326 97.456C566.495 97.2488 566.581 97.0272 566.65 96.7712C566.663 96.6644 566.668 96.5581 566.664 96.4513C566.661 96.3061 566.569 96.0184 566.479 95.9046C566.33 95.7167 566.194 95.5598 565.977 95.4514C565.802 95.364 565.607 95.3023 565.414 95.2691C565.266 95.2436 565.112 95.2387 564.962 95.2243C564.712 95.2005 564.461 95.1747 564.211 95.1487C563.333 95.0576 562.452 95.0172 561.571 94.9758C561.459 94.4478 561.335 93.9228 561.182 93.4055C561.002 92.7973 560.768 92.2069 560.571 91.6047C560.468 91.2906 560.366 90.977 560.255 90.6655C560.159 90.3961 560.035 90.1298 559.893 89.8839C559.83 89.7745 559.722 89.6617 559.645 89.5773C559.535 89.4574 559.407 89.3472 559.261 89.2755C559.113 89.2034 558.906 89.1515 558.734 89.1514C558.715 89.1514 558.697 89.152 558.679 89.1533C558.451 89.1697 558.247 89.2612 558.057 89.3855C557.777 89.5693 557.596 89.8998 557.429 90.1824C557.346 90.3216 557.276 90.4687 557.203 90.6128C557.057 90.9016 556.912 91.1902 556.769 91.4804C556.49 92.0499 556.208 92.6169 555.938 93.1909C555.705 93.6842 555.469 94.1754 555.245 94.6726C555.168 94.6693 555.091 94.666 555.014 94.6623C554.684 94.6469 554.356 94.6364 554.026 94.6414C553.697 94.6458 553.366 94.6643 553.038 94.6896C552.799 94.7084 552.562 94.7248 552.324 94.7582C552.182 94.778 552.027 94.8103 551.89 94.8437C551.74 94.8799 551.635 94.9357 551.491 95.0106C551.369 95.0742 551.276 95.1761 551.177 95.271C550.951 95.4881 550.944 95.8097 550.93 96.0979C550.921 96.2868 551.03 96.4831 551.122 96.6361C551.177 96.7271 551.298 96.8413 551.381 96.9297Z" fill="#EED08E"/>
<path id="Vector_79" d="M633.303 96.85C633.363 96.9939 633.432 97.1328 633.511 97.2662C633.615 97.4492 633.844 97.6558 634.015 97.7918C634.195 97.935 634.394 98.0566 634.589 98.176C634.835 98.3261 635.082 98.4713 635.337 98.6046C635.547 98.7149 635.758 98.8243 635.969 98.9333C635.791 99.3613 635.617 99.7904 635.448 100.222C635.309 100.578 635.162 100.931 635.037 101.293C634.882 101.743 634.728 102.194 634.572 102.644C634.233 103.625 633.963 104.634 633.666 105.629C633.566 105.965 633.692 106.405 633.877 106.685C634.085 107.004 634.418 107.228 634.788 107.3C635.146 107.368 635.524 107.291 635.828 107.086C635.923 107.002 636.017 106.917 636.112 106.833C636.179 106.754 636.236 106.67 636.284 106.581C636.465 106.5 636.63 106.379 636.765 106.218C637.194 105.707 637.633 105.205 638.072 104.704C638.446 104.278 638.825 103.86 639.238 103.475C639.862 102.935 640.507 102.425 641.166 101.931C641.463 102.186 641.744 102.459 642.008 102.753C642.383 103.192 642.75 103.639 643.093 104.105C643.5 104.656 643.855 105.235 644.169 105.844C644.237 105.998 644.293 106.163 644.399 106.29C644.483 106.387 644.566 106.482 644.649 106.579C644.841 106.747 645.062 106.856 645.312 106.905C645.431 106.912 645.551 106.918 645.671 106.925C645.918 106.907 646.144 106.829 646.351 106.691C646.356 106.689 646.36 106.687 646.363 106.685C646.577 106.538 646.741 106.347 646.854 106.111C646.96 105.883 647.005 105.644 646.988 105.393C646.981 105.091 646.872 104.771 646.799 104.474C646.738 104.226 646.678 103.978 646.619 103.729C646.507 103.256 646.399 102.782 646.281 102.309C646.046 101.365 645.802 100.424 645.562 99.481C645.541 99.3977 645.52 99.3144 645.499 99.231C645.624 99.1596 645.75 99.0878 645.874 99.0152C646.29 98.7737 646.7 98.5236 647.106 98.2668C647.28 98.1565 647.447 98.0376 647.614 97.9177C648.329 97.4031 648.94 96.5421 648.631 95.6142C648.534 95.3223 648.356 95.1255 648.144 94.9167C647.943 94.719 647.668 94.6332 647.409 94.5571C647.25 94.5102 647.087 94.4922 646.922 94.4718C646.692 94.4432 646.461 94.423 646.23 94.4048C645.65 94.3581 645.069 94.3308 644.487 94.307C644.427 94.3045 644.367 94.3022 644.306 94.2998C644.27 94.1404 644.234 93.9808 644.199 93.8212C643.988 92.8729 643.782 91.9233 643.568 90.9752C643.505 90.6958 643.441 90.4158 643.378 90.1365C643.343 89.9844 643.301 89.8349 643.255 89.6862C643.237 89.6372 643.219 89.5892 643.202 89.5402C643.126 89.3825 643.05 89.2247 642.974 89.0676C642.85 88.8929 642.726 88.7171 642.551 88.5941C642.358 88.4252 642.138 88.3163 641.888 88.268C641.797 88.2521 641.706 88.2443 641.615 88.2443C641.563 88.2443 641.51 88.247 641.458 88.2519C640.384 88.3336 640.022 89.4111 639.661 90.2621C639.1 91.5915 638.541 92.9212 637.974 94.248C637.717 94.2537 637.459 94.2607 637.202 94.2652C636.749 94.2736 636.295 94.314 635.846 94.3721C635.483 94.4187 635.121 94.4908 634.763 94.5731C634.628 94.6044 634.502 94.6604 634.377 94.7176C634.225 94.7827 634.079 94.8586 633.94 94.9467C633.809 95.0472 633.688 95.1596 633.58 95.2838C633.338 95.5479 633.169 96.0358 633.22 96.4039C633.239 96.5541 633.266 96.7028 633.303 96.85ZM646.683 104.608C646.684 104.609 646.684 104.609 646.684 104.609C646.684 104.609 646.684 104.609 646.683 104.608V104.608Z" fill="#EED08E"/>
<path id="Vector_80" d="M578.774 91.4984C578.823 91.4749 578.872 91.4575 578.922 91.4456C579.106 91.3212 579.345 91.2835 579.572 91.3513C579.905 91.4503 580.215 91.6027 580.528 91.7528C580.805 91.8849 581.081 92.0163 581.356 92.1521C581.471 92.2085 581.585 92.265 581.699 92.3223C581.642 92.2941 581.585 92.2659 581.529 92.2381C582.432 92.6833 583.289 93.2049 584.143 93.7386C584.236 93.7972 584.33 93.8551 584.425 93.9126C584.514 93.7661 584.601 93.6177 584.69 93.472C584.967 93.0206 585.25 92.5742 585.534 92.1275C585.695 91.8742 585.858 91.6223 586.023 91.3708C586.328 90.9037 586.637 90.4407 586.891 89.9425C587.007 89.6906 587.107 89.4337 587.182 89.1655C587.256 88.9009 587.281 88.6053 587.523 88.4261C587.685 88.3061 587.848 88.2316 588.054 88.2461C588.258 88.2605 588.414 88.3563 588.555 88.4991C588.736 88.6805 588.761 88.9382 588.784 89.1785C588.801 89.348 588.805 89.52 588.813 89.6899C588.824 89.9252 588.834 90.1604 588.846 90.3957C588.873 90.9201 588.902 91.4442 588.93 91.9686C588.984 92.9664 588.979 93.9631 588.959 94.9613C588.951 95.3521 588.939 95.7427 588.925 96.133C589.126 96.2023 589.327 96.2693 589.529 96.3339C590.029 96.494 590.528 96.6556 591.028 96.816C591.268 96.893 591.505 96.9786 591.744 97.0603C592.037 97.1604 592.321 97.2952 592.597 97.4348C592.738 97.5063 592.876 97.5815 593.01 97.6649C593.19 97.7759 593.343 97.9107 593.5 98.0523C593.62 98.1604 593.721 98.2782 593.782 98.4322C593.836 98.5681 593.868 98.7109 593.858 98.8586C593.849 98.9822 593.797 99.1698 593.724 99.271C593.656 99.3642 593.584 99.4503 593.493 99.52C593.41 99.5832 593.327 99.6342 593.235 99.6772C593.099 99.7401 592.949 99.7766 592.804 99.8164C592.591 99.8749 592.372 99.9172 592.155 99.9624C591.691 100.058 591.227 100.155 590.763 100.248C590.077 100.386 589.39 100.522 588.701 100.644C588.698 100.798 588.695 100.953 588.692 101.108C588.677 101.975 588.679 102.842 588.663 103.708C588.654 104.183 588.65 104.657 588.629 105.131C588.616 105.445 588.605 105.759 588.576 106.071C588.561 106.239 588.526 106.404 588.491 106.567C588.47 106.665 588.41 106.774 588.367 106.855C588.34 106.905 588.319 106.95 588.282 106.993C588.239 107.042 588.196 107.092 588.153 107.142C588.053 107.229 587.938 107.285 587.808 107.31C587.749 107.319 587.696 107.324 587.646 107.324C587.568 107.324 587.494 107.313 587.405 107.289C587.153 107.222 587.008 107.027 586.885 106.813C586.904 106.841 586.922 106.87 586.941 106.898C586.474 106.178 586.037 105.437 585.582 104.708C585.314 104.312 585.041 103.92 584.766 103.528C584.461 103.094 584.148 102.663 583.865 102.214C583.736 102.009 583.607 101.806 583.479 101.602C583.412 101.618 583.345 101.635 583.278 101.651C583.045 101.707 582.817 101.789 582.587 101.859C582.376 101.923 582.165 101.988 581.954 102.056C581.558 102.183 581.163 102.324 580.751 102.388C580.577 102.415 580.396 102.43 580.222 102.402C580.07 102.378 579.94 102.35 579.81 102.264C579.687 102.183 579.57 102.079 579.511 101.938C579.474 101.851 579.439 101.764 579.432 101.669C579.428 101.606 579.425 101.544 579.421 101.48C579.436 101.404 579.451 101.328 579.467 101.252C579.483 101.172 579.526 101.091 579.556 101.016C579.746 100.535 579.911 100.036 580.186 99.5963C580.557 99.0033 580.984 98.4509 581.429 97.9123C581.368 97.8057 581.306 97.6998 581.241 97.5959C581.102 97.3736 580.96 97.1529 580.824 96.9288C580.558 96.4937 580.291 96.0595 580.048 95.6111C579.814 95.1766 579.582 94.7411 579.355 94.3028C579.042 93.6997 578.737 93.0925 578.43 92.486C578.249 92.1269 578.422 91.6692 578.774 91.4984Z" fill="#EED08E"/>
<path id="Vector_81" d="M619.866 94.2335C619.933 94.2275 620 94.2219 620.067 94.2162C620.229 94.2026 620.387 94.1749 620.55 94.1775C620.688 94.1873 620.814 94.2294 620.93 94.3038C621.049 94.3827 621.14 94.4857 621.203 94.6127C621.258 94.7611 621.296 94.8555 621.284 95.0159C621.274 95.1621 621.221 95.3064 621.129 95.4213C621.045 95.5254 620.948 95.6096 620.854 95.7021C620.771 95.784 620.689 95.8678 620.609 95.9516C620.413 96.1549 620.219 96.3593 620.024 96.5637C619.712 96.8925 619.407 97.2278 619.097 97.5584C618.843 97.8291 618.589 98.0996 618.336 98.3702C618.194 98.5212 618.058 98.6817 617.908 98.8256C617.775 98.9531 617.642 99.0805 617.51 99.2079C617.537 99.2754 617.565 99.3428 617.592 99.4099L617.945 100.257C618.035 100.473 618.111 100.697 618.194 100.917C618.289 101.171 618.386 101.424 618.47 101.682C618.646 102.223 618.814 102.764 618.975 103.31C619.029 103.492 618.962 103.725 618.858 103.878C618.764 104.016 618.626 104.121 618.468 104.177C618.365 104.262 618.24 104.322 618.107 104.347C617.917 104.382 617.684 104.349 617.527 104.232C617.383 104.125 617.214 104.054 617.058 103.966C616.899 103.877 616.738 103.79 616.575 103.708C616.351 103.604 616.125 103.503 615.909 103.382C615.719 103.276 615.533 103.16 615.35 103.043C614.965 102.798 614.581 102.553 614.186 102.323C614.122 102.285 614.057 102.248 613.992 102.211C613.665 102.473 613.347 102.748 613.024 103.015C612.836 103.17 612.65 103.326 612.459 103.478C612.242 103.65 612.015 103.813 611.807 103.996C611.612 104.167 611.417 104.338 611.222 104.509C611.038 104.67 610.867 104.85 610.691 105.02C610.541 105.164 610.389 105.312 610.23 105.446L609.926 105.703C609.838 105.777 609.749 105.847 609.658 105.917C609.535 106.011 609.388 106.09 609.232 106.119C609.076 106.148 608.946 106.122 608.796 106.081C608.539 106.012 608.314 105.752 608.276 105.495C608.264 105.41 608.253 105.324 608.266 105.239C608.28 105.143 608.302 105.048 608.322 104.952C608.335 104.892 608.347 104.831 608.36 104.771C608.38 104.677 608.4 104.583 608.419 104.49C608.614 103.456 608.749 102.414 608.9 101.373C608.968 100.905 609.046 100.438 609.114 99.9699C609.134 99.8327 609.154 99.6955 609.173 99.5585C608.995 99.46 608.817 99.3611 608.639 99.2608C608.429 99.142 608.226 99.0068 608.026 98.8719C607.782 98.7069 607.541 98.5385 607.302 98.3664C606.883 98.0654 606.474 97.7573 606.042 97.4743C605.859 97.3544 605.676 97.2394 605.5 97.1109C605.406 97.0425 605.315 96.9711 605.223 96.9001C605.174 96.8614 605.127 96.8186 605.079 96.778C604.925 96.6479 604.761 96.5239 604.671 96.3387C604.607 96.2064 604.588 96.0817 604.592 95.937C604.596 95.7708 604.649 95.6957 604.721 95.5518C604.791 95.412 604.963 95.2993 605.101 95.2346C605.236 95.1703 605.407 95.1301 605.559 95.1065C605.798 95.0692 606.039 95.0396 606.279 95.0163C607.295 94.918 608.316 94.8794 609.335 94.8258C609.577 94.8086 609.82 94.7913 610.062 94.7737C610.077 94.7088 610.093 94.6438 610.108 94.5789C610.18 94.2704 610.243 93.9596 610.308 93.6494C610.488 92.6295 610.634 91.604 610.823 90.5858C610.857 90.4005 610.892 90.2096 610.945 90.0281C611.029 89.741 611.279 89.5057 611.58 89.4501C611.628 89.4411 611.678 89.4366 611.728 89.4366C611.974 89.4366 612.219 89.545 612.366 89.7425C612.537 89.9713 612.675 90.2295 612.823 90.473C613.106 90.9363 613.383 91.402 613.657 91.8698C613.802 92.1167 613.93 92.3742 614.066 92.6259C614.172 92.8201 614.276 93.0153 614.38 93.2099C614.602 93.626 614.829 94.0401 615.057 94.4534C615.367 94.4429 615.678 94.435 615.988 94.4263C616.386 94.4154 616.785 94.4135 617.184 94.4041C617.613 94.3937 618.041 94.3775 618.469 94.3554C618.782 94.3305 619.094 94.3048 619.406 94.2748C619.56 94.2602 619.713 94.2467 619.866 94.2335Z" fill="#EED08E"/>
<path id="Vector_82" d="M663.235 101.689C663.287 101.738 663.336 101.794 663.383 101.848L663.435 101.907C663.483 101.961 663.532 102.014 663.581 102.068L663.679 102.175C663.828 102.34 663.995 102.491 664.157 102.638L664.233 102.708L664.313 102.78C664.462 102.915 664.615 103.054 664.761 103.198L664.821 103.257C664.884 103.319 664.95 103.383 665.009 103.45L665.126 103.584L665.258 103.735L665.425 103.95L665.592 104.167C665.63 104.215 665.663 104.266 665.696 104.317C665.711 104.341 665.727 104.364 665.742 104.387L665.826 104.511L665.911 104.636C665.982 104.739 666.049 104.848 666.114 104.953L666.189 105.075C666.299 105.251 666.408 105.427 666.516 105.605C666.717 105.937 666.907 106.236 667.099 106.52C667.185 106.648 667.287 106.781 667.419 106.939C667.479 107.01 667.528 107.065 667.577 107.115C667.666 107.204 667.805 107.262 667.931 107.262C667.94 107.262 667.95 107.262 667.959 107.261C668.105 107.251 668.219 107.154 668.288 107.075C668.383 106.968 668.438 106.824 668.472 106.726C668.562 106.458 668.609 106.174 668.654 105.899L668.679 105.746C668.701 105.613 668.721 105.48 668.74 105.347L668.762 105.194C668.801 104.932 668.827 104.665 668.853 104.406C668.864 104.295 668.875 104.184 668.887 104.073C668.905 103.907 668.921 103.741 668.937 103.574C668.955 103.389 668.973 103.204 668.994 103.019C669.027 102.717 669.071 102.412 669.113 102.117L669.138 101.939L669.163 101.761C669.201 101.503 669.239 101.235 669.268 100.971L669.295 100.717C669.319 100.5 669.343 100.284 669.362 100.067L669.382 99.8414C669.402 99.5988 669.423 99.3565 669.449 99.1145C669.46 99.0066 669.476 98.8992 669.492 98.7921L669.512 98.6589L669.522 98.5858C669.533 98.5055 669.544 98.4255 669.557 98.3459C669.607 98.3099 669.658 98.2736 669.709 98.2377C669.778 98.19 669.846 98.1421 669.915 98.0939C669.983 98.0459 670.051 97.9978 670.12 97.9501C670.347 97.793 670.576 97.6379 670.805 97.483L671.013 97.3419C671.124 97.266 671.238 97.1929 671.352 97.12C671.532 97.0048 671.718 96.8854 671.892 96.7555C672.041 96.6446 672.197 96.5215 672.331 96.3726C672.389 96.308 672.435 96.2314 672.48 96.1518C672.498 96.1214 672.51 96.0892 672.52 96.0586C672.545 95.985 672.571 95.9003 672.562 95.826C672.553 95.7577 672.541 95.6969 672.524 95.6399C672.509 95.5887 672.476 95.5309 672.424 95.4632C672.355 95.3729 672.264 95.3 672.145 95.2402C672.022 95.178 671.883 95.1537 671.748 95.1303L671.722 95.1257C671.654 95.114 671.585 95.1075 671.515 95.1012L671.435 95.0934C671.259 95.0756 671.081 95.0542 670.893 95.0284C670.812 95.0174 670.732 95.0047 670.651 94.992C670.56 94.9775 670.468 94.9633 670.377 94.9513C670.203 94.9295 670.017 94.9071 669.828 94.8897C669.547 94.8644 669.265 94.8443 668.984 94.8245L668.687 94.8032C668.331 94.7771 667.952 94.7508 667.569 94.7412C667.414 94.7372 667.259 94.7351 667.105 94.7351C667.042 94.7351 666.98 94.7354 666.918 94.7362L666.761 94.739C666.634 94.7414 666.508 94.7438 666.381 94.7438C666.343 94.7438 666.304 94.7436 666.265 94.7432C666.216 94.7367 666.168 94.727 666.119 94.7133C666.098 94.7054 666.079 94.6965 666.059 94.6871L666.046 94.6677C666.012 94.5801 665.992 94.4889 665.976 94.4112C665.921 94.051 665.887 93.677 665.858 93.3469C665.82 92.9345 665.791 92.5278 665.77 92.2194C665.761 92.0824 665.752 91.945 665.743 91.8079C665.703 91.2027 665.662 90.577 665.582 89.9663L665.574 89.9061C665.551 89.7255 665.526 89.5388 665.492 89.3559L665.485 89.3146C665.429 89.0111 665.367 88.667 665.127 88.4508C665.023 88.3573 664.889 88.3059 664.75 88.3059C664.666 88.3059 664.587 88.3244 664.514 88.3608C664.453 88.3912 664.404 88.4184 664.35 88.4597C664.315 88.4864 664.283 88.5177 664.25 88.5488L664.232 88.5667C664.197 88.5998 664.167 88.6382 664.137 88.6755L664.112 88.7069C664.011 88.833 663.923 88.9745 663.839 89.1114C663.814 89.1505 663.79 89.1893 663.766 89.2277C663.59 89.5075 663.427 89.8018 663.269 90.0864L663.188 90.2331C663.011 90.5528 662.839 90.8702 662.678 91.1762C662.324 91.8496 661.971 92.5229 661.621 93.1978L661.473 93.4825L661.325 93.7673C661.264 93.8848 661.207 94.0051 661.15 94.1252L661.106 94.2177C660.921 94.2139 660.734 94.2114 660.547 94.2089L660.174 94.2039C659.771 94.1977 659.356 94.1853 658.904 94.1658C658.764 94.1551 658.625 94.1439 658.485 94.1326C658.262 94.1146 658.04 94.0967 657.817 94.0817C657.627 94.0686 657.44 94.0569 657.254 94.0569C657.041 94.0569 656.855 94.0724 656.686 94.1046C656.602 94.12 656.512 94.1388 656.423 94.1711C656.322 94.2081 656.223 94.2749 656.144 94.3589C656.063 94.4447 656.006 94.5423 655.976 94.649C655.942 94.7637 655.939 94.8937 655.967 95.0467C656.009 95.2826 656.091 95.5178 656.233 95.8099C656.348 96.047 656.487 96.2864 656.646 96.5216C656.839 96.8094 657.066 97.0692 657.285 97.3203C657.413 97.468 657.544 97.6057 657.666 97.7323C657.876 97.9502 658.088 98.1652 658.301 98.3803L658.606 98.6893C658.686 98.7715 658.766 98.8554 658.845 98.9392C658.914 99.0116 658.982 99.0841 659.052 99.1554L659.125 99.2303C659.174 99.2801 659.223 99.3299 659.271 99.3806C659.301 99.4114 659.331 99.4413 659.362 99.4715C659.392 99.5012 659.422 99.5311 659.452 99.5619C659.422 99.6188 659.388 99.6755 659.354 99.7316C659.338 99.7582 659.322 99.7848 659.307 99.8114C659.267 99.8814 659.227 99.9521 659.189 100.023L659.056 100.266L658.924 100.507L658.85 100.644C658.792 100.753 658.733 100.862 658.671 100.969L658.58 101.124L658.399 101.435C658.175 101.816 658.002 102.107 657.836 102.376C657.749 102.517 657.667 102.661 657.585 102.804L657.528 102.901C657.464 103.013 657.397 103.128 657.341 103.246C657.317 103.298 657.296 103.349 657.275 103.402C657.248 103.469 657.233 103.529 657.228 103.585L657.225 103.629L657.222 103.674C657.23 103.716 657.239 103.758 657.249 103.8C657.262 103.86 657.328 103.945 657.368 103.981C657.42 104.026 657.488 104.062 657.561 104.081C657.609 104.093 657.66 104.099 657.717 104.099C657.761 104.099 657.809 104.095 657.863 104.088C658.059 104.061 658.246 104.005 658.422 103.95C658.563 103.906 658.701 103.845 658.835 103.785L658.899 103.757C659.04 103.694 659.179 103.62 659.314 103.548L659.429 103.487C659.513 103.443 659.598 103.399 659.682 103.356C659.918 103.234 660.162 103.108 660.393 102.971C660.712 102.781 661.03 102.592 661.349 102.404C661.614 102.249 661.901 102.083 662.199 101.928C662.302 101.879 662.408 101.833 662.512 101.787L662.633 101.734L662.655 101.724C662.787 101.665 662.924 101.603 663.065 101.565C663.071 101.564 663.075 101.563 663.079 101.563L663.094 101.57L663.093 101.571C663.149 101.613 663.194 101.651 663.235 101.689Z" fill="#EED08E"/>
</g>
</g>
<g id="uuid-8f9193e1-c58c-4c52-b22d-00129a19d466" clip-path="url(#clip2_82_412)">
<path id="Vector_83" d="M725.164 17.0521H725.169C725.164 17.0521 725.157 17.0521 725.152 17.0497H725.147C725.152 17.0497 725.16 17.0497 725.164 17.0521Z" fill="black"/>
<path id="Vector_84" d="M736.913 28.5105C736.889 28.3217 736.851 28.1255 736.795 27.9391C736.732 27.6969 736.593 27.462 736.467 27.2489C736.342 27.0286 736.139 26.8567 735.944 26.692C735.765 26.5346 735.56 26.4184 735.343 26.3312C735.102 26.2295 734.875 26.152 734.617 26.0963C734.492 26.0721 734.376 26.0503 734.25 26.0334C733.971 25.9946 733.696 25.9559 733.416 25.9244C732.823 25.859 732.217 25.8203 731.617 25.8203C731.436 25.8203 731.255 25.8251 731.074 25.83C730.645 25.8542 730.215 25.8856 729.786 25.9389C729.349 25.9898 728.91 26.0818 728.474 26.1762C728.585 25.1229 728.698 24.0695 728.758 23.0138C728.797 22.2704 728.758 21.5173 728.703 20.7739C728.679 20.4204 728.647 20.0692 728.594 19.7157C728.539 19.3162 728.486 18.9093 728.368 18.5171C728.322 18.3451 728.274 18.1877 728.211 18.0231C728.071 17.6235 727.883 17.2555 727.649 16.9092C727.47 16.6283 727.227 16.391 726.969 16.1876C726.822 16.0617 726.658 15.9527 726.484 15.8655C726.274 15.7396 726.009 15.6621 725.775 15.5919C725.618 15.5604 725.464 15.5362 725.3 15.5144C725.225 15.5072 725.15 15.5023 725.073 15.5023C724.964 15.5023 724.858 15.5096 724.752 15.529C724.595 15.5435 724.441 15.575 724.284 15.6307C724.222 15.6549 724.159 15.6863 724.096 15.7081C723.925 15.7711 723.761 15.8655 723.611 15.9745C723.479 16.0689 723.353 16.1779 723.228 16.2869C723.165 16.3571 723.095 16.4346 723.025 16.5072C722.917 16.6477 722.815 16.7809 722.714 16.914C722.581 17.1029 722.456 17.2991 722.347 17.4928C722.2 17.7591 722.097 18.057 721.981 18.3306C721.855 18.6527 721.81 19.0135 721.785 19.3501C721.771 19.5704 721.771 19.7956 721.761 20.016C721.761 20.3283 721.769 20.6431 721.761 20.9555C721.754 21.7013 721.723 22.4399 721.631 23.1857C721.58 23.4375 721.525 23.6845 721.448 23.9267C721.409 24.055 721.359 24.1761 721.313 24.2971C721.221 24.5078 721.127 24.7136 721.011 24.9049C720.876 25.1422 720.722 25.3747 720.567 25.5951C720.379 25.8251 720.191 26.0527 719.989 26.2779C719.791 26.4813 719.571 26.675 719.352 26.8567C719.024 27.0988 718.681 27.3167 718.327 27.525C718.199 27.5952 718.069 27.6679 717.938 27.7405C717.948 27.2586 717.948 26.7767 717.953 26.2925C717.953 26.0382 717.823 25.8082 717.63 25.6677C717.83 25.5297 717.88 25.2197 717.757 25.0163C717.661 24.8517 717.502 24.7718 717.333 24.7718C717.263 24.7718 717.191 24.7863 717.121 24.8129C717.14 24.8032 717.159 24.796 717.179 24.7887C717.135 24.8081 717.085 24.8226 717.034 24.8347C716.853 24.8468 716.67 24.8565 716.491 24.8904C716.264 24.9292 716.045 24.9679 715.821 25.0163C715.329 25.1108 714.837 25.1955 714.345 25.2682C714.39 25.2609 714.446 25.2609 714.492 25.2536C713.469 25.3868 712.446 25.52 711.416 25.5587C711.175 25.566 710.932 25.566 710.698 25.583C710.548 25.5902 710.408 25.5975 710.261 25.6217C710.174 25.6362 710.083 25.6532 709.996 25.6604C709.849 25.7064 709.716 25.7621 709.574 25.8251C709.511 25.8638 709.448 25.9123 709.386 25.9583C709.267 26.0285 709.176 26.1229 709.103 26.2489C709.057 26.3046 709.009 26.3675 708.963 26.4281C708.908 26.5685 708.845 26.7017 708.792 26.8445C708.698 27.2514 708.66 27.6606 708.628 28.0747C708.573 29.0239 708.541 29.9876 708.527 30.9344C708.503 32.0072 708.52 33.0823 708.534 34.155C708.558 35.2277 708.573 36.2932 708.558 37.3611C708.551 38.3708 708.52 39.383 708.488 40.3855C708.481 40.8238 708.457 41.2548 708.418 41.6931C708.394 41.9038 708.38 42.1241 708.356 42.3445C708.31 42.7828 708.341 43.284 708.667 43.6206C708.799 43.761 708.925 43.8555 709.096 43.9427C709.275 44.0371 709.487 44.0904 709.689 44.1001C710.042 44.1146 710.384 44.0758 710.736 44.0371C711.26 43.9741 711.783 43.9281 712.314 43.8894C712.962 43.8337 713.609 43.8192 714.265 43.8119C714.586 43.8046 714.904 43.8119 715.225 43.8046C715.577 43.8046 715.927 43.8192 716.279 43.7974C716.785 43.7586 717.208 43.5141 717.434 43.054C717.586 42.7392 717.596 42.3929 717.577 42.0515C717.591 42.0563 717.601 42.066 717.615 42.0709C717.924 42.1483 718.218 42.2331 718.512 42.3493C719.002 42.5794 719.468 42.8385 719.933 43.0976C720.471 43.3954 721.011 43.6787 721.556 43.9523C722.094 44.2187 722.649 44.4536 723.211 44.6667C723.843 44.8943 724.482 45.059 725.138 45.1752C725.763 45.2938 726.395 45.3399 727.027 45.3011C727.401 45.2696 727.784 45.2236 728.158 45.1607C728.751 45.059 729.306 44.8313 729.858 44.5892C730.232 44.4173 730.592 44.1969 730.944 43.9693C731.17 43.8216 731.38 43.64 731.583 43.4608C731.677 43.3736 731.771 43.2816 731.855 43.1799C731.964 43.0394 732.075 42.8966 732.183 42.7561C732.302 42.5842 732.403 42.3953 732.473 42.1992C732.543 42.0587 732.591 41.9086 732.613 41.7609C732.69 41.4703 732.644 41.1797 732.598 40.8916C732.552 40.7657 732.504 40.6494 732.451 40.5235C732.432 40.4896 732.405 40.4606 732.384 40.4267C732.485 40.3976 732.591 40.3903 732.692 40.3564C733.052 40.2305 733.387 40.0513 733.722 39.8697C734.082 39.6808 734.393 39.3927 734.668 39.1021C734.769 38.9689 734.87 38.8357 734.964 38.6953C735.042 38.5476 735.112 38.3975 735.174 38.2497C735.22 38.0924 735.251 37.9374 735.268 37.78V37.5281C735.254 37.3707 735.223 37.223 735.167 37.0802C735.09 36.7993 734.894 36.5717 734.714 36.344C734.622 36.2714 734.528 36.1987 734.436 36.1237C734.591 36.051 734.755 36.0026 734.902 35.9179C735.049 35.8234 735.191 35.7217 735.324 35.6127C735.401 35.5425 735.481 35.4723 735.558 35.4021C735.659 35.2762 735.76 35.1502 735.862 35.0171C735.956 34.8839 736.026 34.7434 736.081 34.5933C736.113 34.5061 736.137 34.4286 736.168 34.3415C736.192 34.1938 736.207 34.0364 736.231 33.8862C736.231 33.7288 736.223 33.5811 736.192 33.431C736.146 33.1961 736.091 32.983 735.99 32.7651C735.934 32.615 735.864 32.4672 735.77 32.3341C735.661 32.1452 735.505 31.9805 735.355 31.8328C735.341 31.8207 735.326 31.811 735.312 31.7989C735.592 31.6125 735.859 31.4115 736.108 31.179C736.216 31.0531 736.327 30.9199 736.428 30.7867C736.561 30.5591 736.711 30.3315 736.788 30.0748C736.865 29.8327 736.945 29.5663 736.952 29.3072C736.966 29.0336 736.959 28.7769 736.913 28.5105ZM710.071 27.5153C710.095 27.4838 710.121 27.4523 710.148 27.4233C710.121 27.4596 710.095 27.4935 710.066 27.5274C710.056 27.5395 710.044 27.554 710.032 27.5662C710.046 27.5492 710.058 27.5323 710.071 27.5153ZM716.409 26.2973C716.346 26.9947 716.346 27.6921 716.322 28.3822C716.298 28.9706 716.284 29.5494 716.252 30.1378C716.182 31.3752 716.127 32.615 716.081 33.8523C716.05 34.5037 716.043 35.1527 716.035 35.804C716.028 36.5087 716.067 37.2134 716.098 37.9132C716.122 38.5718 716.161 39.2208 716.182 39.8721C716.211 40.4727 716.221 41.0708 716.168 41.6689C716.144 41.8045 716.11 41.9328 716.069 42.0612C715.847 42.1217 715.616 42.1459 715.386 42.175C715.066 42.221 714.747 42.2767 714.419 42.3324C713.787 42.4438 713.155 42.5527 712.516 42.6496C712.181 42.6883 711.853 42.7246 711.515 42.7392C711.12 42.7537 710.727 42.7392 710.331 42.7125C710.247 42.6956 710.167 42.6738 710.087 42.6447C710.08 42.6399 710.073 42.635 710.066 42.6326C710.027 42.4873 709.998 42.3372 709.976 42.1895C709.856 41.1822 709.815 40.1676 709.755 39.153C709.692 38.0706 709.636 36.9906 709.583 35.9082C709.559 35.327 709.559 34.741 709.545 34.1599C709.537 33.5714 709.53 32.9854 709.521 32.397C709.521 31.2734 709.537 30.1499 709.66 29.0336C709.692 28.8398 709.718 28.6486 709.762 28.4548C709.824 28.186 709.904 27.9391 710.005 27.6848C710.051 27.5928 710.104 27.508 710.15 27.4233C710.181 27.3894 710.213 27.3555 710.247 27.324C710.321 27.278 710.396 27.2368 710.473 27.2005C711.66 26.7961 712.893 26.5879 714.132 26.4184H714.096C714.73 26.336 715.365 26.2561 715.997 26.1665C715.951 26.1738 715.895 26.1811 715.85 26.1907C716.045 26.1641 716.245 26.1375 716.443 26.0987C716.426 26.1593 716.416 26.2271 716.409 26.2973ZM725.153 17.0496C725.179 17.0472 725.203 17.0448 725.23 17.0448C725.21 17.0472 725.189 17.0496 725.169 17.0521C725.194 17.0545 725.218 17.0569 725.239 17.0618C725.213 17.0593 725.189 17.0569 725.162 17.0521C725.145 17.0545 725.128 17.0569 725.112 17.0569C725.124 17.0545 725.133 17.0496 725.145 17.0496C725.128 17.0472 725.112 17.0448 725.095 17.0448C725.116 17.0448 725.136 17.0472 725.153 17.0496ZM733.609 38.0342C733.599 38.056 733.592 38.0778 733.582 38.0996C733.59 38.0802 733.597 38.0633 733.604 38.0439C733.602 38.0463 733.599 38.0488 733.599 38.0512C733.602 38.0488 733.604 38.0463 733.606 38.0439C733.623 38.0028 733.64 37.9616 733.66 37.9204C733.645 37.9567 733.626 37.9955 733.609 38.0342ZM733.708 37.6081C733.713 37.6202 733.717 37.6298 733.722 37.642V37.6468C733.717 37.6395 733.715 37.6323 733.71 37.6226C733.708 37.6153 733.708 37.6129 733.708 37.6081ZM733.72 37.6468V37.642C733.725 37.6565 733.732 37.671 733.737 37.6855C733.732 37.671 733.727 37.6589 733.72 37.6468ZM733.698 37.5911C733.693 37.579 733.688 37.5645 733.684 37.5524C733.688 37.562 733.693 37.5717 733.698 37.5838V37.5911ZM734.668 33.8354C734.67 33.8184 734.673 33.8015 734.675 33.7845C734.675 33.7894 734.677 33.7918 734.677 33.7918C734.675 33.8112 734.67 33.8233 734.668 33.8354ZM734.677 33.7894C734.677 33.7845 734.677 33.7797 734.675 33.7773C734.68 33.7409 734.687 33.707 734.689 33.6707C734.687 33.7095 734.682 33.7482 734.677 33.7894ZM735.336 29.6147C735.314 29.6607 735.292 29.7043 735.273 29.7479C735.208 29.8763 735.136 29.9998 735.054 30.1111C734.945 30.2371 734.829 30.3484 734.702 30.455C734.586 30.5397 734.47 30.6269 734.337 30.6971C734.193 30.7795 734.048 30.857 733.906 30.9272C733.693 31.0119 733.479 31.0943 733.252 31.1524C733.016 31.2081 732.777 31.2541 732.54 31.2952C731.455 31.3848 730.362 31.2783 729.279 31.2299C728.881 31.2153 728.553 31.5737 728.553 31.966C728.553 32.1549 728.631 32.3413 728.763 32.4842C728.903 32.6246 729.074 32.6803 729.279 32.6949C729.796 32.7336 730.317 32.7724 730.84 32.8208C731.269 32.8595 731.706 32.8837 732.142 32.8668C732.572 32.8595 733.001 32.7893 733.423 32.6949C733.599 32.6585 733.768 32.5859 733.939 32.5181C734.089 32.6803 734.238 32.8329 734.378 33.0048C734.439 33.0968 734.494 33.1913 734.545 33.2954C734.593 33.4262 734.629 33.5569 734.658 33.6949C734.661 33.7506 734.661 33.8063 734.661 33.8669C734.646 33.9371 734.634 34.0097 734.61 34.0775C734.566 34.1695 734.516 34.2567 734.46 34.339C734.371 34.4456 734.275 34.5449 734.168 34.6369C733.997 34.7604 733.824 34.8645 733.635 34.9517C733.394 35.0437 733.155 35.1357 732.897 35.1914C732.704 35.2398 732.509 35.2762 732.311 35.3125C731.993 35.3391 731.672 35.3561 731.351 35.3488C731.047 35.3488 730.743 35.3246 730.437 35.3101C729.735 35.2641 729.041 35.1842 728.353 35.1212C727.955 35.0897 727.62 35.482 727.62 35.8573C727.62 36.0535 727.697 36.2423 727.83 36.3755C727.977 36.5257 728.151 36.5789 728.353 36.5959C729.062 36.6419 729.781 36.7218 730.5 36.7751C730.883 36.7993 731.264 36.8138 731.648 36.8138C732.075 36.8138 732.502 36.7412 732.921 36.6613C732.965 36.7242 733.011 36.7847 733.059 36.838C733.233 37.0269 733.411 37.2037 733.587 37.3877C733.616 37.4313 733.643 37.4749 733.667 37.5209C733.676 37.5645 733.688 37.6105 733.701 37.6541C733.703 37.6831 733.703 37.7098 733.705 37.7388C733.693 37.7994 733.679 37.8575 733.66 37.9156C733.619 37.9858 733.578 38.0512 733.537 38.119C733.445 38.2401 733.348 38.3587 733.23 38.458C733.158 38.5137 733.081 38.5718 733.003 38.6251C732.832 38.734 732.654 38.8309 732.466 38.9132C732.123 39.0367 731.788 39.1312 731.433 39.2038C731.028 39.2571 730.62 39.2837 730.218 39.2668C729.624 39.2426 729.038 39.1966 728.455 39.1651C728.081 39.1409 727.767 39.4944 727.767 39.8552C727.767 40.0344 727.837 40.216 727.97 40.3419C728.102 40.4824 728.266 40.5308 728.455 40.5453C729.188 40.6083 729.914 40.693 730.647 40.693C730.775 40.693 730.903 40.6712 731.031 40.6591C731.052 40.8359 731.081 41.0102 731.113 41.1846C731.125 41.296 731.127 41.4122 731.117 41.5284C731.098 41.635 731.072 41.7367 731.033 41.8408C731.006 41.8989 730.977 41.9595 730.951 42.0176C730.893 42.1241 730.821 42.2307 730.746 42.3324C730.589 42.5237 730.413 42.6932 730.225 42.8578C729.991 43.0346 729.752 43.1872 729.492 43.3179C729.318 43.4148 729.14 43.4947 728.956 43.5722C728.544 43.715 728.134 43.8216 727.704 43.8918C727.398 43.9136 727.097 43.9281 726.79 43.9354C726.508 43.9427 726.221 43.9039 725.932 43.8797C725.435 43.8046 724.948 43.7054 724.463 43.5673C724.007 43.4366 723.57 43.2743 723.134 43.0951C722.355 42.7271 721.597 42.313 720.864 41.8578C720.466 41.6059 720.068 41.3492 719.653 41.1362C719.419 41.0175 719.185 40.9013 718.942 40.8141C718.638 40.7051 718.341 40.618 718.028 40.5477C717.823 40.5017 717.615 40.5308 717.444 40.6228C717.41 40.3225 717.364 40.0247 717.347 39.722C717.239 38.2401 717.208 36.7751 717.253 35.2955C717.299 34 717.415 32.7142 717.577 31.426C717.678 30.6511 717.777 29.8714 717.854 29.0965C717.854 29.0868 717.854 29.0796 717.856 29.0699C717.938 29.0626 718.025 29.0626 718.105 29.0433C718.339 28.9876 718.565 28.9173 718.792 28.8399C719.253 28.6752 719.689 28.4548 720.095 28.1739C720.51 27.8834 720.883 27.5468 721.233 27.1932C721.617 26.8082 721.928 26.3772 722.193 25.9171C722.318 25.7065 722.413 25.4716 722.514 25.2439C722.639 24.9606 722.733 24.6725 722.825 24.3819C723.028 23.7402 723.09 23.0573 723.153 22.3914C723.245 21.3623 723.247 20.3162 723.36 19.2871C723.373 19.2241 723.385 19.1612 723.397 19.1006C723.435 18.8658 723.505 18.6333 723.592 18.4129C723.614 18.3645 723.633 18.3161 723.655 18.2701C723.737 18.1127 723.821 17.9674 723.918 17.8294C723.983 17.7495 724.041 17.6768 724.106 17.6042C724.205 17.5 724.308 17.4032 724.417 17.316C724.523 17.2482 724.634 17.1852 724.747 17.132C724.851 17.0981 724.955 17.0787 725.061 17.0617H725.273C725.394 17.0811 725.51 17.1126 725.628 17.1513C725.654 17.1635 725.681 17.1731 725.707 17.1852C725.838 17.2555 725.956 17.3426 726.074 17.4298C726.18 17.5243 726.281 17.6211 726.371 17.7325C726.518 17.9529 726.641 18.1635 726.757 18.4033C726.841 18.6285 726.923 18.8488 726.978 19.0837C727.051 19.3646 727.104 19.6431 727.152 19.9264C727.222 20.4833 727.275 21.0402 727.275 21.6069C727.268 22.28 727.22 22.9387 727.15 23.6046C727.046 24.5829 726.959 25.5684 726.884 26.554C726.578 26.6315 726.272 26.6993 725.968 26.7816C725.584 26.8906 725.21 26.9923 724.844 27.1182C724.61 27.1957 724.369 27.2828 724.149 27.3918C724.038 27.4499 723.937 27.5274 723.838 27.6049C723.814 27.6097 723.79 27.617 723.766 27.6194C723.785 27.6146 723.809 27.6122 723.833 27.6097H723.831C723.585 27.6485 723.375 27.8253 723.375 28.1061C723.375 28.358 723.609 28.6316 723.874 28.6074C723.937 28.6025 723.992 28.5929 724.048 28.5808C724.094 28.588 724.137 28.5953 724.185 28.5977C724.325 28.6122 724.443 28.6122 724.583 28.605C724.849 28.5808 725.114 28.5105 725.365 28.4476C725.912 28.2999 726.45 28.157 726.988 28.002C727.118 27.9657 727.249 27.9342 727.379 27.8979C727.451 27.9221 727.526 27.9439 727.601 27.9439C727.803 27.9439 728.006 27.8567 728.148 27.7163C728.158 27.7066 728.158 27.6969 728.168 27.6872C728.259 27.663 728.351 27.6364 728.442 27.6146C728.891 27.5105 729.337 27.4257 729.791 27.3531C729.786 27.3531 729.781 27.3555 729.776 27.3555C730.08 27.3167 730.377 27.2853 730.681 27.2538C730.985 27.2296 731.289 27.2393 731.585 27.2393C732.154 27.232 732.731 27.2974 733.293 27.3676C733.416 27.387 733.537 27.4088 733.652 27.4354C733.988 27.4984 734.301 27.5928 734.62 27.7018C734.743 27.7599 734.861 27.8301 734.974 27.9052C735.051 27.973 735.121 28.0432 735.186 28.1231C735.232 28.1933 735.271 28.266 735.307 28.3386C735.348 28.4669 735.384 28.5953 735.408 28.7236C735.428 28.9028 735.428 29.082 735.408 29.2612C735.401 29.3871 735.372 29.5033 735.336 29.6147Z" fill="black"/>
<path id="Vector_85" d="M714.246 38.0366C714.057 37.8574 713.809 37.763 713.565 37.6831C713.394 37.6201 713.192 37.6129 713.003 37.6056C712.878 37.6201 712.753 37.6371 712.63 37.6613C712.511 37.7 712.403 37.7388 712.294 37.7945C712.147 37.8889 712.022 37.9833 711.896 38.1165C711.749 38.2812 711.662 38.4773 711.592 38.688C711.539 38.843 711.554 38.9979 711.59 39.1481C711.576 39.2449 711.58 39.3394 711.609 39.4265C711.578 39.5404 711.573 39.6614 711.6 39.7849C711.617 39.8552 711.631 39.9254 711.646 40.0053C711.691 40.1239 711.747 40.2329 711.817 40.3419C711.848 40.3879 711.887 40.4363 711.918 40.4823C712.012 40.5695 712.106 40.647 712.207 40.7172C712.263 40.7487 712.326 40.7729 712.379 40.8044C712.487 40.8673 712.605 40.8988 712.731 40.8988C712.856 40.9303 712.982 40.9303 713.114 40.8988C713.24 40.8819 713.365 40.8528 713.481 40.7898C713.684 40.6954 713.865 40.5937 714.026 40.4533C714.152 40.3516 714.267 40.2426 714.361 40.1094C714.448 40.015 714.525 39.906 714.588 39.7874C714.612 39.7317 714.634 39.6784 714.658 39.6154C714.714 39.4968 714.745 39.3636 714.745 39.2304C714.752 38.9786 714.738 38.7049 714.595 38.487C714.496 38.3127 714.385 38.1795 714.246 38.0366ZM713.305 39.1965C713.303 39.1965 713.302 39.1957 713.3 39.1941C713.303 39.1941 713.303 39.1965 713.305 39.1965ZM713.208 39.119C713.201 39.119 713.196 39.1214 713.189 39.1214C713.194 39.1214 713.201 39.119 713.208 39.119ZM713.189 39.1214C713.175 39.1239 713.163 39.1263 713.148 39.1263C713.16 39.1239 713.175 39.1214 713.189 39.1214ZM713.083 39.1311C713.078 39.1311 713.071 39.1311 713.064 39.1287C713.071 39.1287 713.076 39.1287 713.083 39.1311ZM713.064 39.1287C713.035 39.1263 713.008 39.1239 712.979 39.119C713.008 39.1214 713.037 39.1239 713.064 39.1287ZM712.741 39.5573C712.784 39.5525 712.827 39.5452 712.871 39.5404H712.873C712.827 39.55 712.784 39.5549 712.741 39.5573ZM713.023 39.504C713.052 39.4919 713.081 39.4798 713.107 39.4677C713.105 39.4701 713.102 39.4726 713.1 39.475C713.076 39.4847 713.049 39.4943 713.023 39.504ZM713.105 39.4701C713.107 39.4677 713.11 39.4653 713.114 39.4629C713.131 39.4556 713.151 39.4483 713.167 39.4387C713.148 39.4508 713.126 39.4604 713.105 39.4701ZM713.31 39.2401C713.288 39.2813 713.257 39.3152 713.23 39.3539C713.213 39.3709 713.194 39.3902 713.175 39.4072C713.122 39.4411 713.066 39.4774 713.011 39.5089C712.979 39.5186 712.948 39.5282 712.917 39.5355C712.912 39.5355 712.909 39.5355 712.907 39.5331C712.907 39.5331 712.907 39.5307 712.905 39.5307C712.895 39.4992 712.883 39.4653 712.871 39.4338C712.854 39.3854 712.832 39.3394 712.808 39.2958C712.83 39.2788 712.854 39.2595 712.876 39.2425C712.919 39.2135 712.965 39.1844 713.011 39.1602C713.028 39.1553 713.047 39.1505 713.064 39.1457H713.141C713.163 39.1505 713.182 39.1553 713.201 39.1626C713.225 39.1771 713.249 39.1917 713.276 39.2038C713.288 39.2135 713.298 39.2256 713.31 39.2328V39.2401ZM713.341 39.2135C713.336 39.211 713.331 39.2086 713.327 39.2086C713.324 39.2135 713.322 39.2183 713.319 39.2256C713.322 39.2207 713.324 39.2135 713.327 39.2086C713.324 39.2086 713.319 39.2062 713.317 39.2038C713.319 39.2062 713.324 39.2062 713.327 39.2086C713.344 39.165 713.363 39.1166 713.38 39.0754C713.365 39.1214 713.348 39.1674 713.327 39.211C713.331 39.2086 713.336 39.211 713.341 39.2135Z" fill="black"/>
</g>
</g>
<defs>
<clipPath id="clip0_82_412">
<rect width="121.634" height="26.2348" fill="white" transform="matrix(-1 0 0 1 431.682 119.249)"/>
</clipPath>
<clipPath id="clip1_82_412">
<rect width="121.634" height="26.2348" fill="white" transform="translate(550.93 84.6667)"/>
</clipPath>
<clipPath id="clip2_82_412">
<rect width="28.6197" height="29.8122" fill="white" transform="translate(708.339 15.5023)"/>
</clipPath>
</defs>
</svg>
