<svg width="191" height="48" viewBox="0 0 191 48" fill="none" xmlns="http://www.w3.org/2000/svg">
<path id="Vector" d="M189.238 4.31597C188.678 4.33809 188.105 4.32112 187.561 4.42606C182.672 5.38277 177.812 6.46748 172.814 6.90943C172.26 6.95898 171.723 7.19017 171.209 7.40735C169.982 7.9292 168.683 8.08869 167.351 8.17165C166.219 8.24047 165.079 8.30427 163.976 8.51742C153.723 10.4962 143.478 12.5085 133.226 14.5061C132.951 14.5609 132.667 14.6046 132.386 14.5999C132.099 14.5963 132.032 14.4468 132.267 14.1479C133.361 13.9176 134.558 13.689 135.74 13.4092C136.281 13.2824 136.806 13.0727 137.32 12.8586C137.526 12.7731 137.54 12.5594 137.407 12.3369C135.831 12.4239 134.258 12.5515 132.799 13.2377C132.487 13.3826 132.057 13.2799 131.682 13.2651C131.607 13.2609 131.462 13.1429 131.457 13.0768C131.446 12.8971 131.435 12.6119 131.525 12.5558C131.84 12.3686 132.19 12.2191 132.547 12.1322C133.641 11.8667 134.751 11.6555 135.846 11.3834C136.202 11.2935 136.538 11.1116 136.85 10.9091C136.942 10.8494 136.926 10.5811 136.922 10.4064C136.92 10.3621 136.748 10.2526 136.687 10.2712C135.609 10.5686 134.552 10.9544 133.455 11.1695C132.26 11.4072 131.026 11.4706 129.815 11.6413C129.351 11.7081 128.901 11.8485 128.45 11.9672C127.361 12.254 126.287 12.5951 125.186 12.8302C121.416 13.6311 117.642 14.4137 113.859 15.1695C102.238 17.4874 90.6122 19.7967 78.9869 22.0963C69.3888 23.9928 59.7853 25.8551 50.1908 27.7668C47.6099 28.2801 45.0038 28.7602 42.5054 29.5477C39.5445 30.4814 36.5101 31.0945 33.4935 31.8063C32.7627 31.9772 32.0037 32.0899 31.3134 32.3708C29.0404 33.289 26.6279 33.7178 24.2514 34.2735C22.9711 34.5729 21.6644 34.7977 20.4241 35.2168C17.0481 36.3512 13.6634 37.449 10.2346 38.4215C9.78494 38.5493 9.35401 38.7435 8.90728 38.8835C7.65494 39.2762 6.40533 39.6684 5.14591 40.0434C4.42798 40.2565 3.6739 40.3777 2.97941 40.6531C2.46718 40.854 1.99998 41.1959 1.5637 41.5477C1.26806 41.782 1.11346 42.1767 1.23473 42.6378C1.47655 43.5569 1.71763 44.473 1.97236 45.3864C2.22927 46.309 2.92754 46.9011 3.72146 46.7432C5.10196 46.4686 6.46793 46.133 7.82883 45.7761C8.55184 45.5844 9.23381 45.2445 9.95828 45.0589C12.7805 44.3347 15.4652 43.2133 18.2532 42.3938C19.3322 42.077 20.401 41.7176 21.4965 41.4582C23.8736 40.8928 26.2654 40.401 28.5527 39.5311C29.5121 39.1679 30.5452 38.9943 31.555 38.7711C33.666 38.3001 35.7836 37.8693 37.8924 37.3892C38.806 37.1819 39.6993 36.8893 40.6035 36.6424C41.7781 36.3194 42.9383 35.9354 44.1353 35.6941C50.5865 34.3822 57.0436 33.0946 63.5042 31.8223C68.1199 30.9137 72.7495 30.0758 77.3601 29.146C81.7851 28.253 86.1833 27.2473 90.6062 26.3452C101.111 24.2013 111.627 22.1001 122.13 19.9629C124.338 19.5142 126.575 19.1298 128.711 18.4497C130.865 17.7658 133.067 17.3023 135.272 16.8414C142.449 15.3403 149.638 13.8752 156.818 12.3832C157.828 12.1727 158.848 11.9539 159.809 11.5999C161.136 11.1125 162.504 10.7958 163.886 10.5176C167.944 9.70396 171.998 8.88175 176.057 8.0712C178.823 7.52092 181.593 6.98283 184.36 6.43864C184.729 6.36538 185.149 6.37759 185.453 6.18947C186.359 5.61651 187.385 5.53066 188.412 5.39332C188.75 5.34845 189.044 5.03462 189.345 4.82462C189.397 4.78884 189.41 4.64247 189.392 4.55354C189.372 4.4682 189.287 4.31589 189.242 4.31848L189.238 4.31597ZM113.003 17.504C112.723 17.5023 112.441 17.4691 112.164 17.4729C111.916 17.4744 111.776 17.3875 111.801 17.1814C111.81 17.1125 111.925 17.0449 112.006 17.0225C112.181 16.9684 112.364 16.9448 112.583 16.9013C112.728 16.9108 112.915 16.9054 113.099 16.9455C113.171 16.9599 113.278 17.06 113.297 17.1392C113.357 17.3698 113.244 17.5072 113.003 17.504ZM127.739 14.2602C127.091 14.804 126.454 15.3681 125.767 15.8461C125.579 15.9793 125.118 15.988 124.977 15.8374C124.301 15.1228 123.589 15.2165 122.83 15.3292C122.499 15.3791 122.112 15.6028 121.74 15.048C122.111 14.9293 122.447 14.7892 122.796 14.7198C124.356 14.4191 125.921 14.1397 127.489 13.8597C127.557 13.8462 127.65 13.9362 127.731 13.9775C127.737 14.0722 127.781 14.223 127.741 14.2566L127.739 14.2602Z" fill="#DC8A4D"/>
</svg>
