<svg width="37" height="38" viewBox="0 0 37 38" fill="none" xmlns="http://www.w3.org/2000/svg">
<path id="Vector" d="M27.3293 8.23103L27.3277 8.23097C26.0827 8.19511 24.8884 8.19098 23.7539 8.3198L23.7551 8.32196C24.0957 8.95936 24.6732 9.68667 25.5739 10.413C26.4722 11.1373 27.3026 11.5483 27.9968 11.7462L27.9987 11.7469C27.8881 10.6067 27.628 9.4429 27.3325 8.23115L27.3293 8.23103ZM23.0342 13.561L23.0339 13.5608C22.3435 13.0041 21.3318 13.1138 20.7739 13.8057C20.2157 14.4978 20.3233 15.5106 21.0141 16.0676C21.705 16.6247 22.7175 16.5152 23.2756 15.8231C23.8337 15.1309 23.7258 14.1187 23.0349 13.5617L23.0342 13.561ZM24.0795 12.2677L24.0798 12.2679C25.4837 13.4 25.7021 15.4581 24.5677 16.865C23.4331 18.272 21.3746 18.4946 19.9702 17.3622C18.5658 16.2297 18.3471 14.1708 19.4817 12.7637C20.6164 11.3567 22.6746 11.1348 24.079 12.2673L24.0795 12.2677ZM19.5159 17.9271L19.5161 17.9273C19.8725 18.2147 19.9274 18.7372 19.6395 19.0942L15.8682 23.771C15.5801 24.1283 15.0574 24.185 14.7005 23.8973C14.3438 23.6097 14.2883 23.0866 14.5764 22.7293L18.3477 18.0526C18.636 17.695 19.1585 17.639 19.5154 17.9268L19.5159 17.9271ZM23.0748 23.7366L23.0723 23.7387C22.3079 24.3904 21.5074 25.0394 20.6988 25.6835L20.6993 25.686C20.8246 26.3882 20.904 27.252 20.472 28.2418L20.472 28.2423C20.3368 28.552 20.1508 28.8721 19.9333 29.1948C20.5365 28.9326 21.062 28.6471 21.4827 28.3124L21.4833 28.3116C22.4156 27.5651 22.8654 26.5302 23.0342 25.5415L23.0346 25.541C23.1407 24.9196 23.1328 24.3369 23.0769 23.7351L23.0748 23.7366ZM13.0833 15.6797L13.0811 15.6799C12.4836 15.7482 11.9121 15.8659 11.3261 16.1023L11.3256 16.1024C10.3952 16.4773 9.47654 17.138 8.94922 18.202L8.94886 18.203C8.71009 18.6855 8.54195 19.2618 8.41338 19.9095C8.68267 19.6282 8.95556 19.3786 9.22961 19.1808L9.22981 19.1805C10.1064 18.5475 10.9684 18.4409 11.6819 18.4141L11.6827 18.4127C12.144 17.482 12.6099 16.5677 13.087 15.6793L13.0833 15.6797ZM22.0641 8.64042L22.0621 8.64087C21.0182 8.92562 20.0306 9.39946 19.1071 10.1592L19.1064 10.1595C16.5763 12.2408 14.4499 16.5021 12.2291 21.0891L12.8748 22.0117C12.9795 22.1618 13.0316 22.3424 13.0234 22.5252L12.9708 23.663L15.2998 25.5402L16.4008 25.2474C16.5776 25.2002 16.765 25.213 16.9338 25.2836L17.9721 25.7189C21.9809 22.5765 25.6912 19.5954 27.1897 16.6829L27.1899 16.6822C27.7401 15.6142 27.9905 14.5498 28.0511 13.4663L28.0486 13.4659C26.8345 13.2053 25.5522 12.5324 24.5297 11.7078C23.5064 10.8827 22.5768 9.77078 22.0676 8.63967L22.0641 8.64042ZM28.5097 6.7702L28.5104 6.7708C28.6627 6.89357 28.7697 7.06939 28.805 7.26917L28.8053 7.27142C29.5867 10.4212 30.4713 13.9256 28.6705 17.4332L28.6701 17.4337C27.8088 19.1111 26.3361 20.7684 24.5827 22.3948C24.587 22.4123 24.5881 22.4202 24.5881 22.4202L24.5881 22.4207C24.7272 23.4163 24.8889 24.5457 24.6721 25.8172L24.6719 25.8175C24.4563 27.0834 23.8561 28.5413 22.5224 29.6062L22.5222 29.6065C21.2473 30.6247 19.3409 31.2257 17.6559 31.7676L17.6554 31.7677C17.3856 31.8546 17.0944 31.7964 16.8805 31.6239C16.8181 31.5736 16.7625 31.5139 16.7157 31.4452C16.5102 31.1433 16.5273 30.7441 16.7521 30.4607L16.7825 30.4246C17.774 29.309 18.6134 28.3497 18.9495 27.58C19.0492 27.3517 19.1035 27.1392 19.1259 26.9266L19.1246 26.9277C18.9544 27.0611 18.7826 27.1924 18.6126 27.3256C18.3756 27.5113 18.0575 27.5543 17.7802 27.4385L16.5519 26.9259L15.3156 27.2547C15.0601 27.3228 14.7872 27.2648 14.5816 27.099L11.5995 24.696C11.3945 24.5299 11.2802 24.2759 11.2922 24.0116L11.3512 22.7337L10.5892 21.6422C10.4172 21.3963 10.3919 21.0758 10.5229 20.8051C10.6176 20.6096 10.7122 20.4135 10.8073 20.217L10.8052 20.2174C10.6014 20.2838 10.4042 20.3802 10.201 20.527L10.2008 20.5273C9.5198 21.0188 8.76011 22.0437 7.88051 23.2494L7.85565 23.2817C7.62725 23.5655 7.2382 23.669 6.89772 23.5314C6.82045 23.5 6.74985 23.4584 6.6877 23.4083C6.46507 23.2288 6.34489 22.9416 6.38614 22.6468L6.38609 22.6464C6.55742 20.893 6.74208 18.9192 7.4611 17.4667L7.4617 17.466C8.21935 15.9365 9.51581 15.0412 10.707 14.5616L10.7076 14.5613C11.904 14.0793 13.042 13.998 14.0445 13.9224L14.0454 13.9223C14.0545 13.9218 14.0733 13.9225 14.0733 13.9225C15.2936 11.8612 16.5992 10.0725 18.0535 8.87626L18.0539 8.87576C21.0991 6.37128 24.7115 6.49028 27.9556 6.58458C27.9938 6.58524 28.0119 6.5858 28.0119 6.5858L28.0128 6.5857C28.202 6.59012 28.3723 6.65935 28.5083 6.76904L28.5097 6.7702ZM14.5416 28.2629L14.5421 28.2633C14.8983 28.5505 14.9535 29.0729 14.6656 29.43L12.9719 31.5304C12.6837 31.8877 12.1608 31.9443 11.8041 31.6567C11.4472 31.3689 11.3917 30.8458 11.6798 30.4885L13.3736 28.3881C13.6619 28.0306 14.1848 27.9751 14.5414 28.2627L14.5416 28.2629ZM10.4687 24.9786L10.469 24.9788C10.8254 25.2662 10.8807 25.7886 10.5927 26.1457L8.89898 28.2461C8.61084 28.6034 8.0879 28.66 7.73102 28.3722C7.37438 28.0846 7.31883 27.5616 7.60695 27.2042L9.30069 25.1038C9.58903 24.7463 10.1117 24.6906 10.4685 24.9784L10.4687 24.9786ZM11.1614 28.2874L11.1616 28.2876C11.518 28.575 11.5731 29.0972 11.2851 29.4543L9.59139 31.5548C9.30305 31.9123 8.78055 31.9688 8.42368 31.681C8.06703 31.3934 8.01129 30.8706 8.29961 30.5131L9.99334 28.4127C10.2815 28.0554 10.8041 27.9993 11.1607 28.2869L11.1614 28.2874Z" fill="#545556"/>
</svg>
