<svg width="586" height="357" viewBox="0 0 586 357" fill="none" xmlns="http://www.w3.org/2000/svg">
<g id="Group 77">
<path id="Vector" d="M583.225 265.172C581.726 235.749 581.707 206.435 581.393 176.989C581.096 148.493 579.82 120.005 578.544 91.5374C577.237 62.4141 578.27 33.2954 577.765 4.15687C577.761 3.97091 577.729 3.81486 577.677 3.66898C577.906 2.81281 577.435 1.75453 576.29 1.78609C547.191 2.7308 518.154 3.9093 489.04 4.08079C456.841 4.27175 424.639 4.27674 392.44 4.48727C360.173 4.68932 327.91 5.1067 295.657 6.06239C263.669 7.01305 231.739 9.51938 199.755 10.2056C167.223 10.9022 134.689 9.39592 102.163 10.4253C85.3567 10.9504 68.6629 12.237 51.8367 12.2239C35.2356 12.2065 18.6471 11.8168 2.06574 12.8369C1.80159 12.8517 1.5875 12.9244 1.39374 13.0357C0.937495 13.25 0.60283 13.6774 0.625084 14.333C2.71566 71.767 3.51428 129.245 4.59645 186.698C5.14113 215.356 5.5879 244.016 5.40771 272.668C5.31892 287.063 6.83557 301.417 7.29505 315.801C7.51282 322.622 7.41785 329.477 7.19487 336.296C7.02008 341.528 5.66487 348.035 6.94717 353.151C6.98931 353.307 7.05066 353.443 7.14119 353.569C7.1451 353.774 7.14882 353.97 7.15254 354.166C7.17375 355.281 8.22027 355.722 9.05834 355.5C9.57853 355.559 10.1236 355.382 10.4856 354.846C9.84734 355.789 9.37145 355.484 10.5939 355.393C11.3569 355.339 12.1203 355.315 12.8936 355.29C15.5852 355.2 18.2779 355.168 20.9707 355.137C28.7256 355.038 36.4726 355.038 44.2292 355.027C58.7828 355.015 73.3288 355.121 87.8807 355.02C116.72 354.815 145.631 352.229 174.429 350.839C206.748 349.285 238.978 349.143 271.329 349.252C375.161 349.609 478.992 345.746 582.8 343.773C582.956 343.77 583.093 343.738 583.219 343.706C584.004 343.76 584.837 343.284 584.828 342.266C584.603 316.529 584.547 290.917 583.245 265.191L583.225 265.172ZM298.529 346.278C266.123 346.414 233.721 345.698 201.324 346.764C158.629 348.173 115.993 352.107 73.2709 352.077C58.9324 352.065 44.603 352.024 30.2662 352.101C24.9583 352.124 19.6506 352.156 14.3447 352.286C13.3265 352.305 11.4817 352.115 9.97785 352.349C9.95455 352.154 9.95083 351.958 9.91774 351.763C9.87374 351.509 9.74256 351.306 9.57296 351.143C9.40036 349.276 9.71189 347.116 9.75692 345.363C9.8342 341.7 10.0681 338.033 10.1846 334.369C10.4074 327.54 10.3847 320.677 10.1569 313.848C9.69689 299.434 8.24914 285.098 8.33719 270.664C8.51719 242.002 8.02146 213.343 7.47697 184.695C6.41582 128.348 5.61883 71.986 3.58862 15.667C18.4301 14.8268 33.2818 15.0439 48.1407 15.1238C63.8126 15.2077 79.3296 14.3547 94.9665 13.6267C124.958 12.2147 154.989 13.3867 184.996 13.2962C216.785 13.2011 248.488 10.6403 280.248 9.48841C312.477 8.31776 344.739 7.8123 376.985 7.52254C411.777 7.21376 446.584 7.21799 481.379 7.04623C512.57 6.89402 543.664 5.77432 574.828 4.76098C575.308 33.0775 574.132 61.3961 575.522 89.6953C576.947 118.787 578.098 147.913 578.455 177.035C578.797 205.844 578.745 234.523 580.183 263.301C581.478 289.174 581.625 314.931 581.852 340.815C519.722 341.995 457.601 343.646 395.474 344.944C363.157 345.627 330.836 346.124 298.519 346.258L298.529 346.278Z" fill="#1A1A1A"/>
<rect id="Rectangle 3972" x="9.70508" y="8.56702" width="571.995" height="337.638" fill="#D9D9D9"/>
<g id="Group">
<path id="Vector_2" d="M296.201 131.58C296.045 131.511 295.878 131.472 295.673 131.462C275.266 130.425 258.032 143.738 251.255 162.582C244.391 181.642 252.891 204.588 268.989 216.394C286.008 228.866 310.38 226.448 325.784 212.488C342.127 197.677 345.73 174.369 335.674 155.054C327.556 139.46 312.584 131.922 296.192 131.589L296.201 131.58ZM295.966 221.485C270.918 222.757 250.717 199.146 251.774 174.78C252.626 155.28 267.54 138.745 286.047 135.104C286.233 135.143 286.429 135.153 286.644 135.123C298.581 133.254 310.88 134.918 320.936 141.937C331.737 149.465 337.965 163.483 338.611 176.327C339.816 200.418 319.184 220.3 295.966 221.485Z" fill="#1A1A1A"/>
<path id="Vector_3" d="M328.026 176.6C328.026 176.6 327.928 176.532 327.879 176.512C320.662 171.921 312.917 168.25 305.543 163.943C298.003 159.538 290.581 154.917 283.051 150.483C282.972 150.434 282.884 150.404 282.806 150.365C281.866 149.141 279.702 150.551 280.446 152.147C281.014 153.37 280.72 155.123 280.671 156.444C280.583 158.764 280.965 161.192 281.082 163.522C281.19 165.705 281.171 167.888 281.112 170.081C280.994 170.306 280.887 170.531 280.798 170.766C280.593 171.334 280.74 171.794 281.053 172.107C280.984 174.055 280.916 176.003 280.916 177.951C280.916 179.381 280.916 180.81 280.926 182.249C280.612 182.748 280.671 183.228 280.926 183.61C280.965 190.462 281.102 197.315 281.102 204.167C281.102 204.363 281.141 204.529 281.19 204.686C281.337 205.606 282.306 206.429 283.354 205.792C290.835 201.279 298.229 196.629 305.7 192.087C313.024 187.633 320.76 183.923 327.948 179.234C327.948 179.234 327.948 179.234 327.958 179.234C327.987 179.214 328.026 179.195 328.055 179.175C328.085 179.155 328.104 179.136 328.134 179.107C328.144 179.097 328.163 179.087 328.173 179.067C328.545 178.774 328.712 178.382 328.721 177.991C328.77 177.54 328.614 177.07 328.183 176.738C328.144 176.708 328.114 176.679 328.075 176.649C328.075 176.649 328.065 176.64 328.055 176.63C328.055 176.63 328.046 176.63 328.036 176.62L328.026 176.6ZM283.903 188.123C284.118 188.289 284.373 188.436 284.647 188.563C284.402 188.857 284.157 189.16 283.912 189.464C283.912 189.023 283.912 188.573 283.903 188.132V188.123ZM299.315 176.679C299.237 177.002 299.169 177.315 299.1 177.638C298.992 177.521 298.894 177.403 298.796 177.296C298.973 177.09 299.149 176.884 299.325 176.689L299.315 176.679ZM304.495 174.985C304.603 174.75 304.956 174.662 305.455 174.682C305.279 175.347 305.103 176.003 304.946 176.679C304.721 176.297 304.495 175.915 304.27 175.543C304.349 175.357 304.427 175.171 304.505 174.985H304.495ZM295.81 169.826C295.859 169.464 295.898 169.112 295.957 168.749C295.996 168.485 295.976 168.25 295.908 168.035C296.015 167.888 296.113 167.741 296.221 167.584C296.153 168.27 296.094 168.945 296.035 169.63C295.957 169.679 295.888 169.748 295.82 169.816L295.81 169.826ZM291.345 178.607C291.766 178.49 292.187 178.363 292.608 178.235C292.608 178.754 292.627 179.263 292.637 179.782C292.627 179.792 292.608 179.811 292.598 179.821C292.197 179.88 291.805 179.948 291.403 180.007C291.364 179.547 291.345 179.077 291.335 178.607H291.345ZM292.725 183.864V183.884C292.657 184.04 292.588 184.207 292.51 184.363C292.48 184.305 292.441 184.246 292.412 184.187C292.51 184.08 292.618 183.972 292.715 183.864H292.725ZM309.646 175.729C309.95 175.837 310.263 175.945 310.576 176.052C310.283 176.189 310.008 176.336 309.715 176.483C309.685 176.228 309.666 175.984 309.646 175.729ZM300.011 171.109C299.639 170.903 299.247 170.717 298.826 170.57C298.875 170.071 298.924 169.582 298.973 169.082C299.55 169.425 300.138 169.758 300.735 170.091C300.5 170.433 300.265 170.776 300.02 171.118L300.011 171.109ZM292.197 168.162C292.089 168.299 291.991 168.436 291.883 168.563C291.883 168.338 291.883 168.113 291.883 167.898C292.04 167.771 292.197 167.653 292.353 167.536C292.304 167.741 292.255 167.957 292.197 168.162ZM291.521 164.471C291.188 164.716 290.865 164.971 290.542 165.225C290.111 165.108 289.66 165.196 289.298 165.646C289.151 165.832 289.004 166.028 288.867 166.214C288.828 166.165 288.789 166.116 288.75 166.067C289.445 165.392 290.16 164.736 290.884 164.09C291.11 164.217 291.325 164.344 291.531 164.462L291.521 164.471ZM289.102 183.365C289.102 183.365 289.132 183.453 289.141 183.492C288.309 184.383 287.486 185.284 286.674 186.194C286.155 185.665 286.742 184.667 287.506 183.61C288.035 183.531 288.564 183.443 289.092 183.365H289.102ZM292.383 191.764C292.324 192.273 292.255 192.782 292.167 193.291C291.736 193.184 291.315 193.076 290.884 192.968C291.374 192.557 291.873 192.156 292.383 191.764ZM300.49 184.716C300.49 184.716 300.51 184.686 300.53 184.677C300.579 184.608 300.628 184.54 300.677 184.481C300.882 184.814 301.068 185.147 301.235 185.479C300.921 185.489 300.618 185.509 300.304 185.528C300.373 185.264 300.432 185 300.5 184.726L300.49 184.716ZM288.143 162.474C288.054 162.563 287.966 162.651 287.878 162.739C287.878 162.592 287.878 162.455 287.878 162.308C287.966 162.367 288.054 162.416 288.133 162.474H288.143ZM286.821 179.479C286.517 179.958 286.214 180.428 285.9 180.898C285.743 180.927 285.587 180.947 285.43 180.976C285.812 180.487 286.194 179.997 286.586 179.508C286.664 179.508 286.742 179.488 286.811 179.479H286.821ZM289.895 195.719C290.346 195.837 290.796 195.954 291.247 196.071C290.698 196.453 290.14 196.815 289.582 197.168C289.69 196.688 289.797 196.199 289.905 195.719H289.895ZM299.776 189.356C299.57 189.366 299.345 189.366 299.129 189.366C299.237 189.072 299.335 188.788 299.433 188.495C299.942 188.465 300.451 188.436 300.961 188.416C300.569 188.729 300.177 189.043 299.785 189.356H299.776ZM313.984 177.785C314.072 177.756 314.151 177.716 314.239 177.687C314.239 177.756 314.258 177.824 314.258 177.893C314.141 177.893 314.023 177.902 313.906 177.912C313.925 177.873 313.955 177.824 313.974 177.785H313.984ZM285.92 198.979C285.969 199.057 286.018 199.136 286.067 199.224C285.978 199.224 285.89 199.224 285.802 199.224C285.841 199.145 285.881 199.067 285.92 198.979ZM306.209 184.109C306.307 184.207 306.385 184.314 306.473 184.422C306.336 184.51 306.199 184.598 306.062 184.686C306.111 184.491 306.16 184.305 306.209 184.109ZM312.163 181.554C312.261 181.319 312.368 181.094 312.466 180.859C312.76 180.849 313.064 180.839 313.357 180.82C313.132 180.996 312.907 181.182 312.672 181.358C312.496 181.417 312.329 181.485 312.153 181.554H312.163ZM317.97 177.384C318.048 177.188 318.077 176.982 318.077 176.767C319.017 176.493 319.458 175.573 319.096 174.77C319.429 174.956 319.771 175.142 320.104 175.338C319.252 175.915 318.577 176.61 317.97 177.384ZM303.134 166.145C302.312 165.607 301.499 165.049 300.686 164.471C301.538 164.981 302.38 165.49 303.232 165.999C303.193 166.038 303.164 166.097 303.134 166.145ZM295.477 161.779C295.477 161.779 295.379 161.838 295.33 161.868C295.242 161.574 295.115 161.3 294.977 161.045C295.291 161.231 295.614 161.427 295.927 161.613C295.761 161.642 295.604 161.701 295.477 161.779ZM287.917 158.95C287.917 158.236 287.917 157.531 287.898 156.816C288.916 157.423 289.944 158.03 290.963 158.647C289.974 158.569 288.946 158.715 287.927 158.95H287.917ZM283.824 160.027C283.824 159.88 283.824 159.724 283.814 159.567C283.912 159.499 284.01 159.42 284.098 159.322C284.118 159.303 284.138 159.283 284.147 159.264C284.343 159.479 284.549 159.694 284.774 159.9C284.461 160.008 284.147 160.115 283.834 160.213C283.834 160.145 283.834 160.086 283.834 160.027H283.824ZM285.107 169.836C285.107 169.836 285.107 169.924 285.117 169.973C284.833 170.257 284.549 170.531 284.265 170.815C284.519 170.512 284.774 170.208 285.029 169.914C285.058 169.885 285.078 169.856 285.107 169.836ZM284.03 201.837C284.03 201.837 284.118 201.857 284.157 201.867C284.118 201.896 284.069 201.916 284.03 201.945V201.837ZM313.867 184.07C313.867 184.07 313.916 184.05 313.935 184.04C313.896 184.06 313.857 184.089 313.808 184.109C313.827 184.099 313.847 184.08 313.857 184.07H313.867ZM319.194 180.595C319.194 180.595 319.213 180.575 319.213 180.555C319.556 180.536 319.908 180.516 320.251 180.487C319.967 180.653 319.683 180.81 319.399 180.976C319.35 180.839 319.282 180.702 319.194 180.585V180.595ZM283.981 164.295C284.265 164.775 284.568 165.245 284.872 165.705C284.578 165.979 284.284 166.253 283.991 166.537C283.991 165.793 283.991 165.039 283.991 164.295H283.981ZM305.298 188.925C305.298 188.847 305.328 188.778 305.328 188.7C305.484 188.592 305.631 188.485 305.788 188.377C305.925 188.377 306.072 188.377 306.209 188.387C305.906 188.563 305.602 188.739 305.298 188.915V188.925Z" fill="#1A1A1A"/>
</g>
<path id="Vector_4" d="M581.527 270.682C580.587 241.236 581.126 211.927 581.371 182.48C581.615 153.984 580.881 125.477 580.147 96.9901C579.393 67.8473 580.979 38.7534 581.028 9.61055C581.028 9.42455 580.998 9.26792 580.949 9.12108C581.194 8.26941 580.744 7.20238 579.598 7.21216C550.486 7.60374 521.433 8.23026 492.32 7.84847C460.124 7.42753 427.927 6.82059 395.73 6.41923C363.465 6.00808 331.2 5.81229 298.935 6.15492C266.934 6.49754 234.963 8.39667 202.972 8.47499C170.432 8.5533 137.932 6.42902 105.393 6.84017C88.5794 7.04575 71.8642 8.01489 55.0412 7.68205C38.4435 7.34922 21.8653 6.64438 5.26761 7.34922C5.00322 7.359 4.7878 7.42753 4.59195 7.53521C4.13172 7.74079 3.78899 8.16173 3.79879 8.81762C4.79759 66.281 4.50382 123.764 4.49403 181.227C4.49403 209.89 4.39611 238.554 3.67149 267.197C3.30918 281.587 4.55278 295.968 4.73884 310.358C4.82697 317.181 4.60175 324.034 4.24923 330.847C3.97505 336.075 2.49643 342.555 3.68128 347.695C3.72045 347.851 3.7792 347.988 3.86733 348.116C3.86733 348.321 3.86733 348.517 3.86733 348.713C3.86733 349.829 4.9053 350.289 5.74743 350.083C6.26642 350.152 6.81478 349.986 7.18688 349.457C6.5308 350.387 6.06078 350.074 7.2848 350.005C8.04859 349.966 8.81238 349.956 9.58596 349.946C12.2788 349.907 14.9717 349.927 17.6645 349.946C25.4199 349.995 33.1655 350.142 40.9209 350.279C55.4721 350.543 70.0135 350.925 84.5646 351.102C113.403 351.444 142.358 349.408 171.176 348.566C203.52 347.626 235.746 348.096 268.09 348.821C371.896 351.15 475.782 349.261 579.608 349.261C579.765 349.261 579.902 349.232 580.029 349.202C580.812 349.271 581.654 348.811 581.664 347.793C581.929 322.057 582.36 296.448 581.547 270.702L581.527 270.682ZM295.341 346.363C262.939 345.884 230.556 344.552 198.144 345.003C155.431 345.6 112.727 348.723 70.0135 347.881C55.6777 347.597 41.3518 347.284 27.016 347.088C21.7087 347.01 16.4013 346.941 11.094 346.97C10.0756 346.97 8.23464 346.745 6.72665 346.951C6.70706 346.755 6.70706 346.559 6.67769 346.363C6.63852 346.109 6.51122 345.903 6.34475 345.737C6.20766 343.867 6.56018 341.714 6.63852 339.961C6.7854 336.3 7.08896 332.639 7.27501 328.978C7.62753 322.154 7.73524 315.292 7.63732 308.459C7.45127 294.04 6.27621 279.679 6.63852 265.249C7.36314 236.596 7.4121 207.933 7.4121 179.279C7.42189 122.922 7.69607 66.5551 6.73644 10.2077C21.5912 9.64971 36.4361 10.149 51.2908 10.5112C66.9583 10.893 82.4887 10.335 98.1366 9.90423C128.15 9.06235 158.153 10.8048 188.156 11.2845C219.941 11.7936 251.688 9.8357 283.463 9.2875C315.709 8.72951 347.974 8.83719 380.22 9.16024C415.011 9.51266 449.813 10.1783 484.604 10.6678C515.792 11.1083 546.902 10.5797 578.08 10.1588C578.022 38.4793 576.308 66.7704 577.16 95.091C578.031 124.204 578.629 153.347 578.433 182.471C578.227 211.281 577.63 239.953 578.521 268.754C579.324 294.646 578.981 320.402 578.717 346.285C516.576 346.285 454.435 346.755 392.293 346.872C359.969 346.941 327.646 346.824 295.331 346.344L295.341 346.363Z" fill="#1A1A1A"/>
</g>
</svg>
