<svg width="759" height="514" viewBox="0 0 759 514" fill="none" xmlns="http://www.w3.org/2000/svg">
<g id="Layer_5" clip-path="url(#clip0_82_292)">
<rect id="Rectangle 3972" x="18" y="18.0559" width="723" height="427" fill="#D9D9D9"/>
<path id="Vector" d="M649.535 471.112C648.594 470.753 647.641 470.641 646.663 470.616C646.49 470.567 646.305 470.53 646.106 470.53C620.77 470.79 632.529 470.183 607.217 469.193C586.794 468.388 529.203 469.292 508.793 470.121C488.581 470.938 468.369 471.05 448.132 470.852C395.07 470.319 342.083 471.619 289.022 471.582C227.853 471.545 166.623 470.01 105.454 470.815C105.33 470.79 105.219 470.777 105.083 470.777C102.125 470.753 99.6863 471.025 97.3717 472.981C95.6142 474.467 94.2898 477.884 95.837 479.964C98.3619 483.343 103.214 483.603 107.323 483.405C131.422 483.566 155.557 482.997 179.619 482.043C200.041 481.239 220.501 482.142 240.911 482.972C261.123 483.789 281.335 483.9 301.572 483.702C354.634 483.17 407.621 484.47 460.682 484.433C522.47 484.396 584.319 482.823 646.106 483.678C646.379 483.678 646.602 483.628 646.812 483.554C647.728 483.492 648.631 483.306 649.51 482.861C651.911 481.623 653.818 479.666 653.917 476.856C654.003 474.331 651.763 471.954 649.535 471.124V471.112ZM646.812 479.877C646.589 479.926 646.354 479.951 646.119 479.964C645.636 479.964 645.141 479.964 644.658 479.951C644.138 479.914 643.631 479.877 643.136 479.914C643.086 479.914 643.037 479.926 642.987 479.939C561.099 478.911 479.186 482.266 397.298 480.236C343.531 478.911 289.752 481.214 235.997 479.06C194.051 477.376 152.228 479.84 110.281 479.716C110.046 479.605 109.761 479.555 109.427 479.567C108.647 479.617 107.855 479.666 107.076 479.691C106.296 479.691 105.504 479.691 104.724 479.679C103.647 479.629 102.583 479.53 101.531 479.295C99.8348 478.911 98.3372 478.131 99.4264 476.262C100.206 474.912 101.704 474.591 103.177 474.516C103.313 474.541 103.461 474.566 103.622 474.566C186.55 473.414 269.515 476.881 352.431 474.838C406.197 473.513 459.977 475.816 513.731 473.662C556.272 471.954 598.677 474.516 641.217 474.306C641.44 474.355 641.675 474.368 641.923 474.331C642.071 474.306 642.245 474.306 642.406 474.293C643.223 474.293 644.052 474.293 644.869 474.281C645.525 474.306 646.168 474.343 646.775 474.343C648.235 474.343 650.042 475.247 650.216 476.869C650.389 478.466 648.087 479.605 646.824 479.902L646.812 479.877Z" fill="#3A414A"/>
<g id="Group">
<path id="Vector_2" d="M123.81 464.117C133.823 469.725 129.961 486.723 121.458 491.242C111.544 496.504 101.06 491.948 97.706 481.412C96.753 478.441 96.7035 475.519 97.31 472.833C97.409 472.672 97.4956 472.498 97.5451 472.288C97.7803 471.31 98.1021 470.431 98.4487 469.589C100.132 466.098 103.078 463.287 106.791 461.752C112.014 460.031 118.438 461.109 123.81 464.117Z" fill="white"/>
<path id="Vector_3" d="M121.458 491.242C129.962 486.723 133.823 469.725 123.81 464.117C118.438 461.108 112.015 460.031 106.791 461.752C103.078 463.287 100.132 466.098 98.449 469.589C98.1025 470.431 97.7806 471.31 97.5455 472.288C97.496 472.498 97.4093 472.672 97.3103 472.833C96.7038 475.519 96.7533 478.441 97.7064 481.412C101.061 491.948 111.544 496.504 121.458 491.242ZM127.041 461.938C136.484 469.044 135.135 488.184 124.689 493.73C112.807 500.044 97.6816 496.924 94.117 482.402C93.2382 478.812 93.2382 475.309 93.9313 472.09C93.8942 471.855 93.8942 471.582 93.9684 471.297C95.5651 464.736 99.7858 460.502 104.984 458.471C107.262 457.481 109.824 456.874 112.633 456.775C113.104 456.763 113.475 456.887 113.76 457.11C118.376 457.332 123.092 458.967 127.041 461.938Z" fill="#3A414A"/>
</g>
<path id="Vector_4" d="M122.226 467.187C119.663 465.219 116.532 464.166 113.462 464.042C113.066 463.721 112.534 463.547 111.89 463.708C111.036 463.919 110.207 464.154 109.415 464.426C107.719 464.86 106.172 465.64 104.873 466.741C103.511 467.781 102.372 469.106 101.518 470.889C99.9216 474.219 99.8721 478.676 101.382 482.031C105.12 490.375 114.205 492.17 121.619 487.194C127.634 483.158 127.969 471.594 122.238 467.187H122.226ZM122.312 479.32C122.25 479.134 122.201 478.936 122.139 478.75C122.25 478.713 122.362 478.676 122.473 478.639C122.424 478.862 122.374 479.097 122.312 479.32ZM113.685 483.207C114.143 482.13 114.849 481.09 115.443 480.186C115.765 480.149 116.074 480.112 116.396 480.063C116.235 480.929 116.037 481.783 115.789 482.625C115.084 482.786 114.378 482.984 113.685 483.207ZM114.428 469.948C113.883 471.248 112.868 472.473 111.655 473.625C111.829 472.832 112.002 472.028 112.138 471.223C112.881 470.728 113.648 470.295 114.44 469.935L114.428 469.948ZM107.695 475.098C107.608 475.494 107.521 475.89 107.447 476.287C107.212 476.237 106.989 476.175 106.766 476.113C107.063 475.767 107.373 475.432 107.695 475.098ZM110.95 480.409C110.777 480.743 110.628 481.078 110.479 481.412C110.479 481.065 110.479 480.731 110.479 480.397C110.64 480.397 110.789 480.397 110.95 480.409ZM104.897 479.406C104.761 479.543 104.637 479.679 104.514 479.815C104.476 479.703 104.427 479.592 104.39 479.468C104.353 479.369 104.34 479.283 104.316 479.184C104.514 479.258 104.699 479.332 104.897 479.406ZM121.384 472.337C121.384 472.176 121.384 472.028 121.384 471.867C121.52 472.077 121.656 472.288 121.768 472.511C121.631 472.449 121.508 472.399 121.371 472.337H121.384Z" fill="#3A414A"/>
<path id="Vector_5" d="M67.0231 475.866C67.0231 475.866 66.9984 475.841 66.9736 475.829C66.9365 475.804 66.9117 475.779 66.8746 475.754C66.8498 475.742 66.8251 475.73 66.8127 475.717C66.7756 475.692 66.7384 475.668 66.6889 475.643C56.6633 469.354 46.1055 463.77 35.8942 457.753C35.7457 457.667 35.5972 457.605 35.4486 457.568C34.1614 456.899 32.1687 457.865 32.7504 459.623C33.9015 463.077 33.6168 467.583 33.3445 471.669C33.2455 471.855 33.1589 472.053 33.0846 472.251C32.8742 472.845 32.9608 473.34 33.2207 473.712C33.1836 474.442 33.1465 475.16 33.1341 475.841C33.1093 477.302 33.1093 478.775 33.1093 480.236C32.9113 480.694 32.9237 481.14 33.1093 481.511C33.1341 486.166 33.2455 490.821 33.2455 495.464C33.2455 495.786 33.3198 496.07 33.4312 496.305C33.7901 497.296 34.904 498.026 36.0675 497.321C46.2664 491.155 56.8366 485.423 66.8498 478.986C67.4563 478.602 67.7039 478.032 67.7039 477.463C67.7534 476.893 67.5553 476.311 66.986 475.89L67.0231 475.866Z" fill="#3A414A"/>
<path id="Vector_6" d="M758.369 387.718C757.168 347.161 757.379 306.789 757.911 266.231C758.443 225.958 757.651 185.673 756.723 145.4C755.794 105.548 756.698 65.8568 757.379 26.0172C757.502 18.9481 757.564 11.8666 757.564 4.79744C757.564 4.54984 757.515 4.33937 757.453 4.15367C757.787 3.06421 757.218 1.69 755.757 1.70238C719.616 2.19759 683.523 3.10135 647.369 2.6309C606.784 2.11093 566.199 1.34335 525.614 0.786244C484.917 0.216753 444.209 -0.129894 403.512 0.142471C362.964 0.402456 322.503 2.11093 281.979 3.13849C236.06 4.30223 190.177 1.09575 144.257 1.10813C120.592 1.10813 97.0132 2.77946 73.3355 2.42044C49.633 2.06141 25.9429 0.848145 2.24035 1.86332C1.90616 1.8757 1.62148 1.96237 1.38632 2.09855C0.804584 2.35853 0.371378 2.89088 0.383756 3.72036C1.67099 83.7091 1.31205 163.71 1.31205 243.699C1.31205 284.219 1.26254 324.752 0.470397 365.26C0.0743236 385.205 0.656056 404.989 1.32443 424.921C1.98043 444.37 1.06451 463.671 0.222851 483.096C-0.148468 491.626 0.433265 500.156 0.495151 508.686C0.495151 508.723 0.495151 508.76 0.495151 508.797C0.433265 508.859 0.371378 508.921 0.321869 508.995C-1.02726 510.988 2.19084 512.845 3.52759 510.865C2.74782 512.016 2.04231 511.644 3.60185 511.558C4.54252 511.508 5.4832 511.496 6.42387 511.471C9.75336 511.409 13.0705 511.434 16.4 511.446C26.079 511.496 35.758 511.669 45.4247 511.843C64.6219 512.189 83.8067 512.672 103.004 512.957C127.796 513.328 152.662 512.511 177.466 512.338C271.335 511.682 365.204 511.372 459.074 511.063C544.836 510.79 630.598 510.53 716.36 510.53H756.933C758.641 510.53 759.124 508.636 758.394 507.547C758.765 467.571 759.557 427.682 758.357 387.706L758.369 387.718ZM488.346 507.262C391.754 507.547 295.161 507.881 198.569 508.488C169.915 508.661 141.25 508.809 112.596 509.23C78.8063 509.738 44.9915 507.708 11.2015 507.72C9.80287 507.72 6.75806 507.311 4.18358 507.509C4.09694 489.372 4.54252 471.409 5.19852 453.272C5.9164 433.55 4.45588 413.803 3.92366 394.094C3.39144 373.964 4.40637 353.772 4.64154 333.641C4.87671 313.424 4.95097 293.208 4.98811 272.991C5.11188 192.556 5.38418 112.109 4.46826 31.6749C4.36924 22.9593 4.24547 14.2436 4.10932 5.5155C23.1827 4.78506 42.2685 5.40407 61.3419 5.8869C81.4426 6.39449 101.37 5.825 121.446 5.18123C159.283 3.96797 197.133 6.03547 234.97 6.8278C274.949 7.65728 314.816 5.39169 354.77 4.53746C395.417 3.65846 436.089 3.64608 476.748 3.96797C525.527 4.35175 574.306 5.29265 623.085 6.02309C666.715 6.67924 710.221 6.04785 753.851 5.45359C753.777 44.897 751.648 84.3157 752.49 123.759C753.344 163.945 754.42 204.107 754.359 244.306C754.297 284.863 753.022 325.322 754.049 365.88C755.064 406.276 755.559 446.512 754.953 486.909C754.854 493.545 754.767 500.193 754.705 506.829C665.923 506.829 577.141 507.002 488.358 507.262H488.346Z" fill="#3A414A"/>
<path id="Vector_7" d="M744.457 348.312C743.269 311.072 743.949 274.006 744.259 236.766C744.568 200.727 743.64 164.676 742.712 128.649C741.759 91.7934 743.764 54.9993 743.826 18.1433C743.826 17.9081 743.789 17.71 743.727 17.5243C744.036 16.4472 743.467 15.0978 742.019 15.1102C705.221 15.6054 668.497 16.3977 631.7 15.9149C591.003 15.3825 550.307 14.615 509.61 14.1074C468.827 13.5874 428.044 13.3398 387.261 13.7731C346.812 14.2064 306.4 16.6082 265.963 16.7072C224.834 16.8063 183.753 14.1197 142.624 14.6397C121.372 14.8997 100.244 16.1253 78.9797 15.7044C58.0002 15.2835 37.0455 14.3921 16.066 15.2835C15.7318 15.2959 15.4595 15.3825 15.2119 15.5187C14.6302 15.7787 14.197 16.311 14.2094 17.1405C15.4718 89.8125 15.1005 162.509 15.0881 235.181C15.0881 271.431 14.9644 307.68 14.0485 343.905C13.5905 362.104 15.1624 380.29 15.3976 398.489C15.509 407.118 15.2243 415.784 14.7787 424.401C14.4322 431.012 12.5632 439.208 14.0608 445.707C14.1103 445.905 14.1846 446.079 14.296 446.24C14.296 446.5 14.296 446.747 14.296 446.995C14.296 448.406 15.608 448.988 16.6724 448.728C17.3284 448.815 18.0216 448.604 18.4919 447.936C17.6626 449.112 17.0685 448.716 18.6157 448.629C19.5811 448.579 20.5465 448.567 21.5243 448.555C24.9281 448.505 28.3318 448.53 31.7356 448.555C41.5384 448.617 51.3288 448.802 61.1317 448.976C79.5243 449.31 97.9046 449.793 116.297 450.016C152.748 450.449 189.348 447.874 225.774 446.809C266.657 445.621 307.39 446.215 348.272 447.131C479.484 450.078 610.795 447.688 742.031 447.688C742.229 447.688 742.402 447.651 742.563 447.614C743.553 447.701 744.618 447.119 744.63 445.831C744.964 413.283 745.509 380.897 744.482 348.337L744.457 348.312ZM382.718 444.024C341.762 443.417 300.83 441.733 259.861 442.303C205.872 443.058 151.894 447.007 97.9046 445.943C79.7842 445.583 61.6763 445.187 43.5559 444.94C36.8474 444.841 30.1389 444.754 23.4304 444.791C22.1432 444.791 19.8163 444.506 17.9102 444.766C17.8854 444.519 17.8854 444.271 17.8483 444.024C17.7988 443.702 17.6379 443.442 17.4275 443.231C17.2542 440.867 17.6998 438.143 17.7988 435.927C17.9844 431.297 18.3681 426.667 18.6033 422.036C19.0489 413.407 19.185 404.729 19.0613 396.087C18.8261 377.851 17.3408 359.689 17.7988 341.441C18.7147 305.204 18.7766 268.955 18.7766 232.718C18.789 161.445 19.1355 90.1592 17.9225 18.8985C36.6989 18.1928 55.4629 18.8242 74.2392 19.2823C94.0429 19.7651 113.673 19.0595 133.452 18.5147C171.389 17.45 209.313 19.6537 247.237 20.2603C287.413 20.9041 327.54 18.4281 367.705 17.7348C408.463 17.0291 449.246 17.1653 490.005 17.5738C533.981 18.0195 577.97 18.8614 621.947 19.4804C661.368 20.0375 700.691 19.369 740.1 18.8366C740.026 54.6527 737.86 90.4315 738.937 126.248C740.038 163.066 740.793 199.922 740.546 236.754C740.286 273.189 739.531 309.45 740.657 345.873C741.672 378.619 741.239 411.191 740.905 443.925C662.358 443.925 583.812 444.519 505.266 444.667C464.408 444.754 423.551 444.605 382.706 443.999L382.718 444.024Z" fill="#3A414A"/>
<g id="Group_2">
<path id="Vector_8" d="M380.131 173.627C379.933 173.54 379.723 173.491 379.463 173.478C353.668 172.166 331.884 189.003 323.319 212.835C314.643 236.939 325.386 265.959 345.735 280.889C367.246 296.662 398.053 293.604 417.523 275.949C438.18 257.218 442.735 227.741 430.024 203.315C419.763 183.593 400.838 174.06 380.119 173.639L380.131 173.627ZM379.834 287.327C348.173 288.936 322.639 259.075 323.975 228.261C325.052 203.599 343.903 182.689 367.296 178.084C367.531 178.133 367.778 178.146 368.051 178.108C383.139 175.744 398.685 177.848 411.396 186.725C425.048 196.245 432.92 213.974 433.737 230.217C435.259 260.685 409.18 285.829 379.834 287.327Z" fill="#3A414A"/>
<path id="Vector_9" d="M420.357 230.563C420.357 230.563 420.233 230.477 420.171 230.452C411.049 224.646 401.259 220.003 391.939 214.556C382.408 208.985 373.026 203.141 363.508 197.533C363.409 197.471 363.298 197.434 363.199 197.384C362.01 195.837 359.275 197.62 360.216 199.638C360.934 201.185 360.562 203.401 360.5 205.073C360.389 208.007 360.872 211.077 361.02 214.023C361.156 216.784 361.132 219.545 361.057 222.318C360.909 222.603 360.773 222.888 360.661 223.185C360.401 223.903 360.587 224.485 360.983 224.881C360.897 227.345 360.81 229.808 360.81 232.272C360.81 234.079 360.81 235.887 360.822 237.707C360.426 238.338 360.5 238.945 360.822 239.428C360.872 248.094 361.045 256.76 361.045 265.426C361.045 265.674 361.095 265.884 361.156 266.082C361.342 267.246 362.567 268.286 363.892 267.481C373.348 261.774 382.693 255.893 392.137 250.149C401.395 244.516 411.173 239.824 420.258 233.894C420.258 233.894 420.258 233.894 420.27 233.894C420.307 233.869 420.357 233.844 420.394 233.819C420.431 233.795 420.456 233.77 420.493 233.733C420.506 233.72 420.53 233.708 420.543 233.683C421.013 233.312 421.223 232.817 421.236 232.321C421.298 231.752 421.1 231.158 420.555 230.737C420.506 230.7 420.468 230.662 420.419 230.625C420.419 230.625 420.407 230.613 420.394 230.601C420.394 230.601 420.382 230.601 420.369 230.588L420.357 230.563ZM364.585 245.135C364.857 245.345 365.179 245.531 365.526 245.692C365.216 246.063 364.907 246.447 364.597 246.831C364.597 246.274 364.597 245.704 364.585 245.147V245.135ZM384.067 230.662C383.968 231.071 383.881 231.467 383.794 231.876C383.658 231.727 383.535 231.579 383.411 231.442C383.634 231.182 383.856 230.922 384.079 230.675L384.067 230.662ZM390.614 228.521C390.751 228.224 391.196 228.112 391.827 228.137C391.605 228.979 391.382 229.808 391.184 230.662C390.899 230.18 390.614 229.697 390.33 229.226C390.429 228.991 390.528 228.756 390.627 228.521H390.614ZM379.636 221.996C379.698 221.538 379.747 221.093 379.821 220.634C379.871 220.3 379.846 220.003 379.76 219.731C379.896 219.545 380.019 219.359 380.156 219.161C380.069 220.028 379.995 220.882 379.92 221.749C379.821 221.811 379.735 221.897 379.648 221.984L379.636 221.996ZM373.992 233.101C374.524 232.953 375.056 232.792 375.588 232.631C375.588 233.287 375.613 233.931 375.626 234.587C375.613 234.599 375.588 234.624 375.576 234.637C375.069 234.711 374.573 234.797 374.066 234.872C374.016 234.29 373.992 233.696 373.979 233.101H373.992ZM375.737 239.75V239.774C375.65 239.972 375.564 240.183 375.465 240.381C375.427 240.307 375.378 240.232 375.341 240.158C375.465 240.022 375.601 239.886 375.725 239.75H375.737ZM397.125 229.462C397.509 229.598 397.905 229.734 398.301 229.87C397.929 230.043 397.583 230.229 397.212 230.415C397.174 230.093 397.15 229.783 397.125 229.462ZM384.946 223.618C384.475 223.358 383.98 223.123 383.448 222.937C383.51 222.306 383.572 221.687 383.634 221.055C384.364 221.489 385.107 221.91 385.862 222.331C385.564 222.764 385.267 223.197 384.958 223.63L384.946 223.618ZM375.069 219.892C374.932 220.065 374.809 220.238 374.672 220.399C374.672 220.114 374.672 219.83 374.672 219.557C374.87 219.396 375.069 219.248 375.267 219.099C375.205 219.359 375.143 219.632 375.069 219.892ZM374.214 215.224C373.794 215.534 373.385 215.856 372.977 216.178C372.432 216.029 371.863 216.14 371.405 216.71C371.219 216.945 371.034 217.193 370.86 217.428C370.811 217.366 370.761 217.304 370.712 217.242C371.591 216.388 372.494 215.559 373.41 214.741C373.695 214.902 373.967 215.063 374.227 215.212L374.214 215.224ZM371.157 239.118C371.157 239.118 371.194 239.23 371.207 239.279C370.155 240.406 369.115 241.545 368.088 242.696C367.432 242.028 368.174 240.765 369.14 239.428C369.808 239.329 370.477 239.217 371.145 239.118H371.157ZM375.304 249.74C375.229 250.384 375.143 251.028 375.031 251.672C374.487 251.536 373.955 251.399 373.41 251.263C374.029 250.743 374.66 250.236 375.304 249.74ZM385.552 240.827C385.552 240.827 385.577 240.789 385.602 240.777C385.663 240.69 385.725 240.604 385.787 240.53C386.047 240.95 386.282 241.371 386.493 241.792C386.097 241.805 385.713 241.829 385.317 241.854C385.404 241.52 385.478 241.186 385.564 240.839L385.552 240.827ZM369.944 212.699C369.833 212.81 369.722 212.922 369.61 213.033C369.61 212.847 369.61 212.674 369.61 212.488C369.722 212.563 369.833 212.624 369.932 212.699H369.944ZM368.273 234.203C367.89 234.81 367.506 235.404 367.11 235.998C366.912 236.035 366.714 236.06 366.516 236.097C366.999 235.478 367.481 234.859 367.976 234.24C368.075 234.24 368.174 234.216 368.261 234.203H368.273ZM372.16 254.742C372.729 254.891 373.299 255.039 373.868 255.188C373.175 255.671 372.469 256.129 371.764 256.574C371.9 255.968 372.036 255.349 372.172 254.742H372.16ZM384.649 246.695C384.389 246.707 384.104 246.707 383.832 246.707C383.968 246.336 384.092 245.977 384.215 245.605C384.859 245.568 385.503 245.531 386.146 245.506C385.651 245.903 385.156 246.299 384.661 246.695H384.649ZM402.608 232.061C402.719 232.024 402.818 231.975 402.93 231.938C402.93 232.024 402.955 232.111 402.955 232.198C402.806 232.198 402.658 232.21 402.509 232.222C402.534 232.173 402.571 232.111 402.596 232.061H402.608ZM367.135 258.865C367.197 258.964 367.258 259.063 367.32 259.174C367.209 259.174 367.098 259.174 366.986 259.174C367.036 259.075 367.085 258.976 367.135 258.865ZM392.78 240.059C392.904 240.183 393.003 240.319 393.115 240.455C392.941 240.567 392.768 240.678 392.595 240.789C392.657 240.542 392.719 240.307 392.78 240.059ZM400.306 236.828C400.43 236.531 400.566 236.246 400.69 235.949C401.061 235.936 401.445 235.924 401.816 235.899C401.531 236.122 401.246 236.357 400.949 236.58C400.727 236.654 400.516 236.741 400.293 236.828H400.306ZM407.646 231.554C407.745 231.306 407.782 231.046 407.782 230.774C408.97 230.427 409.527 229.263 409.069 228.248C409.49 228.484 409.923 228.719 410.344 228.966C409.267 229.697 408.413 230.576 407.646 231.554ZM388.894 217.341C387.854 216.66 386.827 215.955 385.8 215.224C386.876 215.868 387.941 216.512 389.018 217.156C388.968 217.205 388.931 217.279 388.894 217.341ZM379.215 211.82C379.215 211.82 379.091 211.894 379.029 211.931C378.918 211.56 378.757 211.213 378.584 210.891C378.98 211.126 379.388 211.374 379.784 211.609C379.574 211.646 379.376 211.721 379.215 211.82ZM369.66 208.242C369.66 207.338 369.66 206.447 369.635 205.543C370.922 206.311 372.222 207.078 373.509 207.858C372.259 207.759 370.959 207.945 369.672 208.242H369.66ZM364.486 209.604C364.486 209.418 364.486 209.22 364.474 209.022C364.597 208.935 364.721 208.836 364.833 208.712C364.857 208.688 364.882 208.663 364.894 208.638C365.142 208.91 365.402 209.183 365.687 209.443C365.29 209.579 364.894 209.715 364.498 209.839C364.498 209.752 364.498 209.678 364.498 209.604H364.486ZM366.107 222.009C366.107 222.009 366.107 222.12 366.12 222.182C365.761 222.541 365.402 222.888 365.043 223.247C365.365 222.863 365.687 222.479 366.008 222.108C366.045 222.071 366.07 222.033 366.107 222.009ZM364.746 262.48C364.746 262.48 364.857 262.504 364.907 262.517C364.857 262.554 364.795 262.579 364.746 262.616V262.48ZM402.459 240.01C402.459 240.01 402.521 239.985 402.546 239.972C402.497 239.997 402.447 240.034 402.385 240.059C402.41 240.047 402.435 240.022 402.447 240.01H402.459ZM409.193 235.615C409.193 235.615 409.217 235.59 409.217 235.565C409.651 235.54 410.096 235.516 410.529 235.478C410.17 235.689 409.812 235.887 409.453 236.097C409.391 235.924 409.304 235.751 409.193 235.602V235.615ZM364.684 215.001C365.043 215.608 365.427 216.202 365.81 216.784C365.439 217.131 365.068 217.478 364.696 217.837C364.696 216.896 364.696 215.942 364.696 215.001H364.684ZM391.629 246.15C391.629 246.051 391.666 245.964 391.666 245.865C391.865 245.729 392.05 245.593 392.248 245.457C392.421 245.457 392.607 245.457 392.78 245.469C392.397 245.692 392.013 245.915 391.629 246.138V246.15Z" fill="#3A414A"/>
</g>
<path id="Vector_10" d="M715.717 487.776C719.034 485.498 721.076 482.762 721.547 478.701C722.178 473.278 720.68 468.648 715.618 466.197C713.477 465.157 711.595 468.363 713.749 469.403C719.888 472.374 719.034 481.004 713.848 484.569C711.892 485.918 713.737 489.137 715.717 487.776Z" fill="#3A414A"/>
<path id="Vector_11" d="M720.804 491.824C730.545 484.148 732.797 467.979 720.284 461.864C718.143 460.811 716.261 464.018 718.415 465.07C728.861 470.171 726.052 482.997 718.18 489.199C716.298 490.685 718.947 493.285 720.804 491.824Z" fill="#3A414A"/>
<path id="Vector_12" d="M714.392 473.563C714.256 473.414 714.108 473.266 713.947 473.13C713.464 472.721 712.932 472.61 712.437 472.684C711.397 472.498 710.197 473.08 710.184 474.442C710.172 476.448 710.048 478.416 710.444 480.409C710.704 481.734 712.189 481.994 713.204 481.449C713.34 481.4 713.489 481.338 713.625 481.251C716.509 479.505 717.078 475.531 714.38 473.563H714.392Z" fill="#3A414A"/>
<path id="Vector_13" d="M690.912 470.406C690.912 469.861 690.714 469.44 690.417 469.143C690.405 469.131 690.38 469.106 690.368 469.094C690.355 469.081 690.33 469.057 690.318 469.044C690.021 468.747 689.6 468.549 689.056 468.549C687.211 468.549 685.367 468.574 683.535 468.549C682.904 468.549 682.446 468.797 682.137 469.18C681.852 469.477 681.679 469.874 681.679 470.406C681.679 474.888 681.679 479.369 681.679 483.851C681.679 484.396 681.877 484.817 682.174 485.114C682.186 485.126 682.211 485.151 682.223 485.163C682.236 485.176 682.26 485.2 682.273 485.213C682.57 485.51 682.991 485.708 683.535 485.708C685.38 485.708 687.224 485.683 689.056 485.708C689.687 485.708 690.145 485.46 690.454 485.077C690.739 484.779 690.912 484.383 690.912 483.851C690.912 479.369 690.912 474.888 690.912 470.394V470.406Z" fill="#3A414A"/>
<path id="Vector_14" d="M707.288 494.944C707.325 483.046 707.35 471.174 707.288 459.289C707.288 459.016 707.239 458.781 707.14 458.558C706.83 457.246 705.209 456.293 704.119 457.592C700.926 461.43 696.767 464.352 693.648 468.277C693.19 468.574 692.869 469.057 692.844 469.75C692.708 474.516 693.128 479.307 692.856 484.086C692.547 484.693 692.584 485.436 693.302 486.017C695.257 487.59 696.879 489.521 698.698 491.242C699.639 492.121 700.53 493.037 701.359 494.027C702.065 494.882 703.191 495.377 703.822 496.293C705.06 498.063 707.82 496.702 707.276 494.944H707.288ZM696.545 470.926C696.545 470.815 696.545 470.691 696.545 470.579C696.644 470.468 696.743 470.344 696.829 470.233C696.73 470.455 696.631 470.691 696.532 470.926H696.545Z" fill="#3A414A"/>
</g>
<defs>
<clipPath id="clip0_82_292">
<rect width="759" height="513" fill="white" transform="translate(0 0.0559082)"/>
</clipPath>
</defs>
</svg>
